<svg width="1092" height="96" viewBox="0 0 1092 96" fill="none" xmlns="http://www.w3.org/2000/svg">
<rect x="0.5" y="0.5" width="1091" height="95" rx="7.5" fill="white" stroke="#E0E0E0"/>
<path d="M97.728 38.816H104.448C105.184 38.816 105.872 38.936 106.512 39.176C107.152 39.4 107.704 39.72 108.168 40.136C108.648 40.536 109.024 41.008 109.296 41.552C109.568 42.096 109.704 42.68 109.704 43.304C109.704 44.216 109.48 44.984 109.032 45.608C108.6 46.216 108.056 46.68 107.4 47V47.192C108.28 47.512 108.984 48.016 109.512 48.704C110.056 49.376 110.328 50.216 110.328 51.224C110.328 51.96 110.176 52.624 109.872 53.216C109.584 53.792 109.184 54.288 108.672 54.704C108.16 55.12 107.56 55.44 106.872 55.664C106.2 55.888 105.472 56 104.688 56H97.728V38.816ZM104.208 45.824C104.96 45.824 105.536 45.624 105.936 45.224C106.352 44.808 106.56 44.32 106.56 43.76C106.56 43.2 106.36 42.72 105.96 42.32C105.56 41.92 105.008 41.72 104.304 41.72H100.968V45.824H104.208ZM104.568 53.024C105.384 53.024 106.008 52.824 106.44 52.424C106.872 52.008 107.088 51.48 107.088 50.84C107.088 50.2 106.864 49.672 106.416 49.256C105.984 48.824 105.336 48.608 104.472 48.608H100.968V53.024H104.568ZM119.686 54.752H119.494C119.126 55.2 118.678 55.584 118.15 55.904C117.638 56.224 116.974 56.384 116.158 56.384C115.55 56.384 114.974 56.28 114.43 56.072C113.902 55.88 113.438 55.608 113.038 55.256C112.638 54.904 112.326 54.48 112.102 53.984C111.878 53.488 111.766 52.944 111.766 52.352C111.766 51.744 111.886 51.2 112.126 50.72C112.366 50.224 112.702 49.8 113.134 49.448C113.566 49.096 114.07 48.832 114.646 48.656C115.238 48.464 115.878 48.368 116.566 48.368C117.334 48.368 117.966 48.432 118.462 48.56C118.958 48.672 119.366 48.792 119.686 48.92V48.56C119.686 47.936 119.438 47.424 118.942 47.024C118.446 46.608 117.83 46.4 117.094 46.4C116.006 46.4 115.086 46.856 114.334 47.768L112.054 46.208C113.302 44.64 115.006 43.856 117.166 43.856C118.99 43.856 120.382 44.288 121.342 45.152C122.302 46 122.782 47.264 122.782 48.944V56H119.686V54.752ZM119.686 51.224C119.318 51.048 118.934 50.912 118.534 50.816C118.15 50.704 117.726 50.648 117.262 50.648C116.51 50.648 115.926 50.816 115.51 51.152C115.11 51.472 114.91 51.872 114.91 52.352C114.91 52.832 115.102 53.216 115.486 53.504C115.886 53.792 116.342 53.936 116.854 53.936C117.27 53.936 117.654 53.864 118.006 53.72C118.358 53.56 118.654 53.36 118.894 53.12C119.15 52.864 119.342 52.576 119.47 52.256C119.614 51.92 119.686 51.576 119.686 51.224ZM128.234 45.776H128.426C128.794 45.184 129.29 44.72 129.914 44.384C130.538 44.032 131.25 43.856 132.05 43.856C132.786 43.856 133.434 43.976 133.994 44.216C134.554 44.456 135.01 44.8 135.362 45.248C135.73 45.68 136.002 46.208 136.178 46.832C136.37 47.44 136.466 48.12 136.466 48.872V56H133.322V49.256C133.322 48.408 133.13 47.784 132.746 47.384C132.378 46.968 131.834 46.76 131.114 46.76C130.682 46.76 130.298 46.856 129.962 47.048C129.642 47.224 129.362 47.472 129.122 47.792C128.898 48.096 128.722 48.464 128.594 48.896C128.482 49.312 128.426 49.76 128.426 50.24V56H125.282V44.24H128.234V45.776ZM139.749 46.928H137.685V44.24H139.749V40.64H142.893V44.24H145.773V46.928H142.893V51.488C142.893 51.76 142.917 52.016 142.965 52.256C143.029 52.48 143.141 52.672 143.301 52.832C143.525 53.088 143.845 53.216 144.261 53.216C144.533 53.216 144.749 53.192 144.909 53.144C145.069 53.08 145.221 53 145.365 52.904L146.253 55.664C145.885 55.84 145.485 55.968 145.053 56.048C144.637 56.144 144.173 56.192 143.661 56.192C143.069 56.192 142.533 56.104 142.053 55.928C141.589 55.736 141.197 55.48 140.877 55.16C140.125 54.44 139.749 53.416 139.749 52.088V46.928ZM156.222 54.464H156.03C155.662 55.056 155.166 55.528 154.542 55.88C153.918 56.216 153.206 56.384 152.406 56.384C150.918 56.384 149.806 55.928 149.07 55.016C148.35 54.104 147.99 52.888 147.99 51.368V44.24H151.134V50.984C151.134 51.832 151.318 52.464 151.686 52.88C152.07 53.28 152.622 53.48 153.342 53.48C153.774 53.48 154.15 53.392 154.47 53.216C154.806 53.024 155.086 52.776 155.31 52.472C155.55 52.152 155.726 51.784 155.838 51.368C155.966 50.936 156.03 50.48 156.03 50V44.24H159.174V56H156.222V54.464ZM168.998 54.752H168.806C168.438 55.2 167.99 55.584 167.462 55.904C166.95 56.224 166.286 56.384 165.47 56.384C164.862 56.384 164.286 56.28 163.742 56.072C163.214 55.88 162.75 55.608 162.35 55.256C161.95 54.904 161.638 54.48 161.414 53.984C161.19 53.488 161.078 52.944 161.078 52.352C161.078 51.744 161.198 51.2 161.438 50.72C161.678 50.224 162.014 49.8 162.446 49.448C162.878 49.096 163.382 48.832 163.958 48.656C164.55 48.464 165.19 48.368 165.878 48.368C166.646 48.368 167.278 48.432 167.774 48.56C168.27 48.672 168.678 48.792 168.998 48.92V48.56C168.998 47.936 168.75 47.424 168.254 47.024C167.758 46.608 167.142 46.4 166.406 46.4C165.318 46.4 164.398 46.856 163.646 47.768L161.366 46.208C162.614 44.64 164.318 43.856 166.478 43.856C168.302 43.856 169.694 44.288 170.654 45.152C171.614 46 172.094 47.264 172.094 48.944V56H168.998V54.752ZM168.998 51.224C168.63 51.048 168.246 50.912 167.846 50.816C167.462 50.704 167.038 50.648 166.574 50.648C165.822 50.648 165.238 50.816 164.822 51.152C164.422 51.472 164.222 51.872 164.222 52.352C164.222 52.832 164.414 53.216 164.798 53.504C165.198 53.792 165.654 53.936 166.166 53.936C166.582 53.936 166.966 53.864 167.318 53.72C167.67 53.56 167.966 53.36 168.206 53.12C168.462 52.864 168.654 52.576 168.782 52.256C168.926 51.92 168.998 51.576 168.998 51.224ZM177.546 45.776H177.738C178.106 45.184 178.602 44.72 179.226 44.384C179.85 44.032 180.562 43.856 181.362 43.856C182.098 43.856 182.746 43.976 183.306 44.216C183.866 44.456 184.322 44.8 184.674 45.248C185.042 45.68 185.314 46.208 185.49 46.832C185.682 47.44 185.778 48.12 185.778 48.872V56H182.634V49.256C182.634 48.408 182.442 47.784 182.058 47.384C181.69 46.968 181.146 46.76 180.426 46.76C179.994 46.76 179.61 46.856 179.274 47.048C178.954 47.224 178.674 47.472 178.434 47.792C178.21 48.096 178.034 48.464 177.906 48.896C177.794 49.312 177.738 49.76 177.738 50.24V56H174.594V44.24H177.546V45.776ZM198.562 56.384C197.826 56.384 197.122 56.28 196.45 56.072C195.778 55.864 195.162 55.552 194.602 55.136C194.042 54.72 193.554 54.216 193.138 53.624C192.722 53.016 192.394 52.312 192.154 51.512L195.202 50.312C195.426 51.176 195.818 51.896 196.378 52.472C196.938 53.032 197.674 53.312 198.586 53.312C198.922 53.312 199.242 53.272 199.546 53.192C199.866 53.096 200.146 52.968 200.386 52.808C200.642 52.632 200.842 52.416 200.986 52.16C201.13 51.904 201.202 51.608 201.202 51.272C201.202 50.952 201.146 50.664 201.034 50.408C200.922 50.152 200.73 49.912 200.458 49.688C200.202 49.464 199.858 49.248 199.426 49.04C199.01 48.832 198.49 48.616 197.866 48.392L196.81 48.008C196.346 47.848 195.874 47.632 195.394 47.36C194.93 47.088 194.506 46.76 194.122 46.376C193.738 45.992 193.418 45.544 193.162 45.032C192.922 44.504 192.802 43.912 192.802 43.256C192.802 42.584 192.93 41.96 193.186 41.384C193.458 40.792 193.834 40.28 194.314 39.848C194.81 39.4 195.394 39.056 196.066 38.816C196.754 38.56 197.514 38.432 198.346 38.432C199.21 38.432 199.954 38.552 200.578 38.792C201.218 39.016 201.754 39.312 202.186 39.68C202.634 40.032 202.994 40.424 203.266 40.856C203.538 41.288 203.738 41.696 203.866 42.08L201.01 43.28C200.85 42.8 200.554 42.368 200.122 41.984C199.706 41.6 199.13 41.408 198.394 41.408C197.69 41.408 197.106 41.576 196.642 41.912C196.178 42.232 195.946 42.656 195.946 43.184C195.946 43.696 196.17 44.136 196.618 44.504C197.066 44.856 197.778 45.2 198.754 45.536L199.834 45.896C200.522 46.136 201.146 46.416 201.706 46.736C202.282 47.04 202.77 47.408 203.17 47.84C203.586 48.272 203.898 48.768 204.106 49.328C204.33 49.872 204.442 50.504 204.442 51.224C204.442 52.12 204.258 52.896 203.89 53.552C203.538 54.192 203.082 54.72 202.522 55.136C201.962 55.552 201.33 55.864 200.626 56.072C199.922 56.28 199.234 56.384 198.562 56.384ZM212.295 43.856C213.207 43.856 214.039 44.016 214.791 44.336C215.559 44.64 216.215 45.072 216.759 45.632C217.319 46.176 217.751 46.832 218.055 47.6C218.375 48.368 218.535 49.208 218.535 50.12C218.535 51.032 218.375 51.872 218.055 52.64C217.751 53.408 217.319 54.072 216.759 54.632C216.215 55.176 215.559 55.608 214.791 55.928C214.039 56.232 213.207 56.384 212.295 56.384C211.383 56.384 210.543 56.232 209.775 55.928C209.023 55.608 208.367 55.176 207.807 54.632C207.263 54.072 206.831 53.408 206.511 52.64C206.207 51.872 206.055 51.032 206.055 50.12C206.055 49.208 206.207 48.368 206.511 47.6C206.831 46.832 207.263 46.176 207.807 45.632C208.367 45.072 209.023 44.64 209.775 44.336C210.543 44.016 211.383 43.856 212.295 43.856ZM212.295 53.48C212.695 53.48 213.079 53.408 213.447 53.264C213.831 53.104 214.167 52.88 214.455 52.592C214.743 52.304 214.967 51.952 215.127 51.536C215.303 51.12 215.391 50.648 215.391 50.12C215.391 49.592 215.303 49.12 215.127 48.704C214.967 48.288 214.743 47.936 214.455 47.648C214.167 47.36 213.831 47.144 213.447 47C213.079 46.84 212.695 46.76 212.295 46.76C211.879 46.76 211.487 46.84 211.119 47C210.751 47.144 210.423 47.36 210.135 47.648C209.847 47.936 209.615 48.288 209.439 48.704C209.279 49.12 209.199 49.592 209.199 50.12C209.199 50.648 209.279 51.12 209.439 51.536C209.615 51.952 209.847 52.304 210.135 52.592C210.423 52.88 210.751 53.104 211.119 53.264C211.487 53.408 211.879 53.48 212.295 53.48ZM225.094 56.384C224.326 56.384 223.638 56.288 223.03 56.096C222.438 55.904 221.918 55.656 221.47 55.352C221.038 55.032 220.67 54.672 220.366 54.272C220.062 53.856 219.83 53.44 219.67 53.024L222.478 51.824C222.75 52.432 223.11 52.888 223.558 53.192C224.022 53.48 224.534 53.624 225.094 53.624C225.67 53.624 226.126 53.52 226.462 53.312C226.798 53.104 226.966 52.856 226.966 52.568C226.966 52.248 226.822 51.992 226.534 51.8C226.262 51.592 225.782 51.408 225.094 51.248L223.438 50.888C223.07 50.808 222.686 50.68 222.286 50.504C221.902 50.328 221.55 50.104 221.23 49.832C220.91 49.56 220.646 49.232 220.438 48.848C220.23 48.464 220.126 48.016 220.126 47.504C220.126 46.928 220.246 46.416 220.486 45.968C220.742 45.52 221.086 45.144 221.518 44.84C221.95 44.52 222.454 44.28 223.03 44.12C223.622 43.944 224.254 43.856 224.926 43.856C226.046 43.856 227.046 44.08 227.926 44.528C228.806 44.96 229.454 45.656 229.87 46.616L227.158 47.72C226.934 47.256 226.606 46.92 226.174 46.712C225.742 46.504 225.31 46.4 224.878 46.4C224.43 46.4 224.038 46.496 223.702 46.688C223.366 46.864 223.198 47.096 223.198 47.384C223.198 47.656 223.334 47.872 223.606 48.032C223.894 48.192 224.278 48.336 224.758 48.464L226.558 48.896C227.758 49.184 228.646 49.648 229.222 50.288C229.814 50.912 230.11 51.656 230.11 52.52C230.11 53.032 229.99 53.52 229.75 53.984C229.51 54.448 229.166 54.864 228.718 55.232C228.286 55.584 227.758 55.864 227.134 56.072C226.526 56.28 225.846 56.384 225.094 56.384ZM233.674 42.536C233.402 42.536 233.138 42.488 232.882 42.392C232.642 42.28 232.426 42.136 232.234 41.96C232.058 41.768 231.914 41.552 231.802 41.312C231.706 41.072 231.658 40.808 231.658 40.52C231.658 40.232 231.706 39.968 231.802 39.728C231.914 39.488 232.058 39.28 232.234 39.104C232.426 38.912 232.642 38.768 232.882 38.672C233.138 38.56 233.402 38.504 233.674 38.504C234.234 38.504 234.714 38.704 235.114 39.104C235.514 39.488 235.714 39.96 235.714 40.52C235.714 41.08 235.514 41.56 235.114 41.96C234.714 42.344 234.234 42.536 233.674 42.536ZM232.114 56V44.24H235.258V56H232.114ZM245.264 54.752H245.072C244.704 55.2 244.256 55.584 243.728 55.904C243.216 56.224 242.552 56.384 241.736 56.384C241.128 56.384 240.552 56.28 240.008 56.072C239.48 55.88 239.016 55.608 238.616 55.256C238.216 54.904 237.904 54.48 237.68 53.984C237.456 53.488 237.344 52.944 237.344 52.352C237.344 51.744 237.464 51.2 237.704 50.72C237.944 50.224 238.28 49.8 238.712 49.448C239.144 49.096 239.648 48.832 240.224 48.656C240.816 48.464 241.456 48.368 242.144 48.368C242.912 48.368 243.544 48.432 244.04 48.56C244.536 48.672 244.944 48.792 245.264 48.92V48.56C245.264 47.936 245.016 47.424 244.52 47.024C244.024 46.608 243.408 46.4 242.672 46.4C241.584 46.4 240.664 46.856 239.912 47.768L237.632 46.208C238.88 44.64 240.584 43.856 242.744 43.856C244.568 43.856 245.96 44.288 246.92 45.152C247.88 46 248.36 47.264 248.36 48.944V56H245.264V54.752ZM245.264 51.224C244.896 51.048 244.512 50.912 244.112 50.816C243.728 50.704 243.304 50.648 242.84 50.648C242.088 50.648 241.504 50.816 241.088 51.152C240.688 51.472 240.488 51.872 240.488 52.352C240.488 52.832 240.68 53.216 241.064 53.504C241.464 53.792 241.92 53.936 242.432 53.936C242.848 53.936 243.232 53.864 243.584 53.72C243.936 53.56 244.232 53.36 244.472 53.12C244.728 52.864 244.92 52.576 245.048 52.256C245.192 51.92 245.264 51.576 245.264 51.224ZM250.86 56V38.816H254.004V56H250.86ZM262.353 56V38.816H268.401C269.217 38.816 269.977 38.952 270.681 39.224C271.401 39.48 272.025 39.848 272.553 40.328C273.081 40.808 273.497 41.384 273.801 42.056C274.105 42.712 274.257 43.44 274.257 44.24C274.257 45.056 274.105 45.8 273.801 46.472C273.497 47.128 273.081 47.696 272.553 48.176C272.025 48.656 271.401 49.032 270.681 49.304C269.977 49.56 269.217 49.688 268.401 49.688H265.593V56H262.353ZM268.449 46.616C269.297 46.616 269.937 46.376 270.369 45.896C270.801 45.416 271.017 44.864 271.017 44.24C271.017 43.936 270.961 43.64 270.849 43.352C270.753 43.064 270.593 42.816 270.369 42.608C270.161 42.384 269.897 42.208 269.577 42.08C269.257 41.952 268.881 41.888 268.449 41.888H265.593V46.616H268.449ZM276.172 44.24H279.124V45.872H279.316C279.46 45.584 279.652 45.32 279.892 45.08C280.132 44.84 280.396 44.632 280.684 44.456C280.988 44.28 281.308 44.144 281.644 44.048C281.996 43.952 282.34 43.904 282.676 43.904C283.092 43.904 283.444 43.944 283.732 44.024C284.036 44.104 284.292 44.208 284.5 44.336L283.66 47.192C283.468 47.096 283.252 47.024 283.012 46.976C282.788 46.912 282.508 46.88 282.172 46.88C281.74 46.88 281.348 46.968 280.996 47.144C280.644 47.304 280.34 47.536 280.084 47.84C279.844 48.144 279.652 48.504 279.508 48.92C279.38 49.32 279.316 49.76 279.316 50.24V56H276.172V44.24ZM290.787 43.856C291.699 43.856 292.531 44.016 293.283 44.336C294.051 44.64 294.707 45.072 295.251 45.632C295.811 46.176 296.243 46.832 296.547 47.6C296.867 48.368 297.027 49.208 297.027 50.12C297.027 51.032 296.867 51.872 296.547 52.64C296.243 53.408 295.811 54.072 295.251 54.632C294.707 55.176 294.051 55.608 293.283 55.928C292.531 56.232 291.699 56.384 290.787 56.384C289.875 56.384 289.035 56.232 288.267 55.928C287.515 55.608 286.859 55.176 286.299 54.632C285.755 54.072 285.323 53.408 285.003 52.64C284.699 51.872 284.547 51.032 284.547 50.12C284.547 49.208 284.699 48.368 285.003 47.6C285.323 46.832 285.755 46.176 286.299 45.632C286.859 45.072 287.515 44.64 288.267 44.336C289.035 44.016 289.875 43.856 290.787 43.856ZM290.787 53.48C291.187 53.48 291.571 53.408 291.939 53.264C292.323 53.104 292.659 52.88 292.947 52.592C293.235 52.304 293.459 51.952 293.619 51.536C293.795 51.12 293.883 50.648 293.883 50.12C293.883 49.592 293.795 49.12 293.619 48.704C293.459 48.288 293.235 47.936 292.947 47.648C292.659 47.36 292.323 47.144 291.939 47C291.571 46.84 291.187 46.76 290.787 46.76C290.371 46.76 289.979 46.84 289.611 47C289.243 47.144 288.915 47.36 288.627 47.648C288.339 47.936 288.107 48.288 287.931 48.704C287.771 49.12 287.691 49.592 287.691 50.12C287.691 50.648 287.771 51.12 287.931 51.536C288.107 51.952 288.339 52.304 288.627 52.592C288.915 52.88 289.243 53.104 289.611 53.264C289.979 53.408 290.371 53.48 290.787 53.48ZM297.565 44.24H301.141L304.069 51.728H304.237L307.189 44.24H310.741L305.677 56H302.581L297.565 44.24ZM313.924 42.536C313.652 42.536 313.388 42.488 313.132 42.392C312.892 42.28 312.676 42.136 312.484 41.96C312.308 41.768 312.164 41.552 312.052 41.312C311.956 41.072 311.908 40.808 311.908 40.52C311.908 40.232 311.956 39.968 312.052 39.728C312.164 39.488 312.308 39.28 312.484 39.104C312.676 38.912 312.892 38.768 313.132 38.672C313.388 38.56 313.652 38.504 313.924 38.504C314.484 38.504 314.964 38.704 315.364 39.104C315.764 39.488 315.964 39.96 315.964 40.52C315.964 41.08 315.764 41.56 315.364 41.96C314.964 42.344 314.484 42.536 313.924 42.536ZM312.364 56V44.24H315.508V56H312.364ZM321.335 45.776H321.527C321.895 45.184 322.391 44.72 323.015 44.384C323.639 44.032 324.351 43.856 325.151 43.856C325.887 43.856 326.535 43.976 327.095 44.216C327.655 44.456 328.111 44.8 328.463 45.248C328.831 45.68 329.103 46.208 329.279 46.832C329.471 47.44 329.567 48.12 329.567 48.872V56H326.423V49.256C326.423 48.408 326.231 47.784 325.847 47.384C325.479 46.968 324.935 46.76 324.215 46.76C323.783 46.76 323.399 46.856 323.063 47.048C322.743 47.224 322.463 47.472 322.223 47.792C321.999 48.096 321.823 48.464 321.695 48.896C321.583 49.312 321.527 49.76 321.527 50.24V56H318.383V44.24H321.335V45.776ZM336.703 56.384C335.935 56.384 335.247 56.288 334.639 56.096C334.047 55.904 333.527 55.656 333.079 55.352C332.647 55.032 332.279 54.672 331.975 54.272C331.671 53.856 331.439 53.44 331.279 53.024L334.087 51.824C334.359 52.432 334.719 52.888 335.167 53.192C335.631 53.48 336.143 53.624 336.703 53.624C337.279 53.624 337.735 53.52 338.071 53.312C338.407 53.104 338.575 52.856 338.575 52.568C338.575 52.248 338.431 51.992 338.143 51.8C337.871 51.592 337.391 51.408 336.703 51.248L335.047 50.888C334.679 50.808 334.295 50.68 333.895 50.504C333.511 50.328 333.159 50.104 332.839 49.832C332.519 49.56 332.255 49.232 332.047 48.848C331.839 48.464 331.735 48.016 331.735 47.504C331.735 46.928 331.855 46.416 332.095 45.968C332.351 45.52 332.695 45.144 333.127 44.84C333.559 44.52 334.063 44.28 334.639 44.12C335.231 43.944 335.863 43.856 336.535 43.856C337.655 43.856 338.655 44.08 339.535 44.528C340.415 44.96 341.063 45.656 341.479 46.616L338.767 47.72C338.543 47.256 338.215 46.92 337.783 46.712C337.351 46.504 336.919 46.4 336.487 46.4C336.039 46.4 335.647 46.496 335.311 46.688C334.975 46.864 334.807 47.096 334.807 47.384C334.807 47.656 334.943 47.872 335.215 48.032C335.503 48.192 335.887 48.336 336.367 48.464L338.167 48.896C339.367 49.184 340.255 49.648 340.831 50.288C341.423 50.912 341.719 51.656 341.719 52.52C341.719 53.032 341.599 53.52 341.359 53.984C341.119 54.448 340.775 54.864 340.327 55.232C339.895 55.584 339.367 55.864 338.743 56.072C338.135 56.28 337.455 56.384 336.703 56.384ZM345.284 42.536C345.012 42.536 344.748 42.488 344.492 42.392C344.252 42.28 344.036 42.136 343.844 41.96C343.668 41.768 343.524 41.552 343.412 41.312C343.316 41.072 343.268 40.808 343.268 40.52C343.268 40.232 343.316 39.968 343.412 39.728C343.524 39.488 343.668 39.28 343.844 39.104C344.036 38.912 344.252 38.768 344.492 38.672C344.748 38.56 345.012 38.504 345.284 38.504C345.844 38.504 346.324 38.704 346.724 39.104C347.124 39.488 347.324 39.96 347.324 40.52C347.324 41.08 347.124 41.56 346.724 41.96C346.324 42.344 345.844 42.536 345.284 42.536ZM343.724 56V44.24H346.868V56H343.724Z" fill="#333333"/>
<circle cx="48" cy="48" r="24" fill="#FCF1CF"/>
<g clip-path="url(#clip0)">
<path d="M59.2493 47.84C58.4468 47.1787 57.1785 47.1219 56.346 48.0153L54.2794 50.2338C54.0122 49.3751 53.2103 48.7498 52.2649 48.7498H48.577C48.2971 48.7498 48.2034 48.6429 47.7173 48.2685C45.864 46.6528 43.0803 46.6579 41.2326 48.2839L39.877 49.4773C39.2677 49.1548 38.5562 49.1468 37.9435 49.4529L36.3888 50.23C36.0414 50.4039 35.9009 50.8262 36.0743 51.1736L40.2928 59.6106C40.4667 59.9579 40.889 60.0985 41.2363 59.9251L42.7911 59.1475C43.5574 58.7646 43.9839 57.9827 43.9563 57.1868H52.2648C53.8055 57.1868 55.2778 56.451 56.2021 55.2182L59.5774 50.7176C60.2322 49.8452 60.1286 48.5661 59.2493 47.84ZM42.162 57.8899L41.2363 58.353L37.6463 51.1736L38.5725 50.7105C38.9199 50.5371 39.3417 50.6772 39.5156 51.025L42.4765 56.9468C42.65 57.2941 42.5093 57.716 42.162 57.8899ZM58.4524 49.8738L55.0772 54.3745C54.4168 55.2552 53.3654 55.7806 52.2649 55.7806H43.4655L40.8308 50.5108L42.1615 49.3395C43.4857 48.1747 45.4824 48.1747 46.8066 49.3395C47.5865 50.0262 48.0716 50.156 48.5769 50.156H52.2648C52.6525 50.156 52.9679 50.4715 52.9679 50.8591C52.9679 51.2467 52.6524 51.5622 52.2648 51.5622H48.674C48.2858 51.5622 47.9709 51.8772 47.9709 52.2653C47.9709 52.6533 48.2859 52.9683 48.674 52.9683H52.7359C53.3195 52.9683 53.882 52.7236 54.2794 52.2967L57.3749 48.9739C57.658 48.6701 58.092 48.6954 58.3583 48.9284C58.6366 49.1721 58.6667 49.5888 58.4524 49.8738Z" fill="#F2C94C"/>
<path d="M50.7836 40.7986C51.265 40.2938 51.5617 39.6113 51.5617 38.8599C51.5617 37.3122 50.3112 36.0007 48.7494 36.0007C47.1993 36.0007 45.8902 37.3099 45.8902 38.8599C45.8902 39.5883 46.1757 40.2759 46.6941 40.8042C45.4084 41.5251 44.4841 42.9087 44.4841 44.5315V45.2345C44.4841 45.6226 44.7991 45.9376 45.1871 45.9376H52.2648C52.6529 45.9376 52.9679 45.6226 52.9679 45.2345V44.5315C52.9679 42.9406 52.0929 41.5354 50.7836 40.7986ZM48.7494 37.4069C49.5115 37.4069 50.1556 38.0725 50.1556 38.86C50.1556 39.6352 49.5247 40.2661 48.7494 40.2661C47.962 40.2661 47.2964 39.6221 47.2964 38.86C47.2964 38.0861 47.9755 37.4069 48.7494 37.4069ZM45.8902 44.5315C45.8902 42.9814 47.1993 41.6723 48.7494 41.6723C50.2999 41.6723 51.5617 42.9547 51.5617 44.5315H45.8902Z" fill="#F2C94C"/>
</g>
<defs>
<clipPath id="clip0">
<rect x="36" y="36" width="24" height="24" fill="white"/>
</clipPath>
</defs>
</svg>
