<svg width="1092" height="96" viewBox="0 0 1092 96" fill="none" xmlns="http://www.w3.org/2000/svg">
<rect x="0.5" y="0.5" width="1091" height="95" rx="7.5" fill="white" stroke="#E0E0E0"/>
<path d="M97.728 39.816H104.448C105.184 39.816 105.872 39.936 106.512 40.176C107.152 40.4 107.704 40.72 108.168 41.136C108.648 41.536 109.024 42.008 109.296 42.552C109.568 43.096 109.704 43.68 109.704 44.304C109.704 45.216 109.48 45.984 109.032 46.608C108.6 47.216 108.056 47.68 107.4 48V48.192C108.28 48.512 108.984 49.016 109.512 49.704C110.056 50.376 110.328 51.216 110.328 52.224C110.328 52.96 110.176 53.624 109.872 54.216C109.584 54.792 109.184 55.288 108.672 55.704C108.16 56.12 107.56 56.44 106.872 56.664C106.2 56.888 105.472 57 104.688 57H97.728V39.816ZM104.208 46.824C104.96 46.824 105.536 46.624 105.936 46.224C106.352 45.808 106.56 45.32 106.56 44.76C106.56 44.2 106.36 43.72 105.96 43.32C105.56 42.92 105.008 42.72 104.304 42.72H100.968V46.824H104.208ZM104.568 54.024C105.384 54.024 106.008 53.824 106.44 53.424C106.872 53.008 107.088 52.48 107.088 51.84C107.088 51.2 106.864 50.672 106.416 50.256C105.984 49.824 105.336 49.608 104.472 49.608H100.968V54.024H104.568ZM119.686 55.752H119.494C119.126 56.2 118.678 56.584 118.15 56.904C117.638 57.224 116.974 57.384 116.158 57.384C115.55 57.384 114.974 57.28 114.43 57.072C113.902 56.88 113.438 56.608 113.038 56.256C112.638 55.904 112.326 55.48 112.102 54.984C111.878 54.488 111.766 53.944 111.766 53.352C111.766 52.744 111.886 52.2 112.126 51.72C112.366 51.224 112.702 50.8 113.134 50.448C113.566 50.096 114.07 49.832 114.646 49.656C115.238 49.464 115.878 49.368 116.566 49.368C117.334 49.368 117.966 49.432 118.462 49.56C118.958 49.672 119.366 49.792 119.686 49.92V49.56C119.686 48.936 119.438 48.424 118.942 48.024C118.446 47.608 117.83 47.4 117.094 47.4C116.006 47.4 115.086 47.856 114.334 48.768L112.054 47.208C113.302 45.64 115.006 44.856 117.166 44.856C118.99 44.856 120.382 45.288 121.342 46.152C122.302 47 122.782 48.264 122.782 49.944V57H119.686V55.752ZM119.686 52.224C119.318 52.048 118.934 51.912 118.534 51.816C118.15 51.704 117.726 51.648 117.262 51.648C116.51 51.648 115.926 51.816 115.51 52.152C115.11 52.472 114.91 52.872 114.91 53.352C114.91 53.832 115.102 54.216 115.486 54.504C115.886 54.792 116.342 54.936 116.854 54.936C117.27 54.936 117.654 54.864 118.006 54.72C118.358 54.56 118.654 54.36 118.894 54.12C119.15 53.864 119.342 53.576 119.47 53.256C119.614 52.92 119.686 52.576 119.686 52.224ZM128.234 46.776H128.426C128.794 46.184 129.29 45.72 129.914 45.384C130.538 45.032 131.25 44.856 132.05 44.856C132.786 44.856 133.434 44.976 133.994 45.216C134.554 45.456 135.01 45.8 135.362 46.248C135.73 46.68 136.002 47.208 136.178 47.832C136.37 48.44 136.466 49.12 136.466 49.872V57H133.322V50.256C133.322 49.408 133.13 48.784 132.746 48.384C132.378 47.968 131.834 47.76 131.114 47.76C130.682 47.76 130.298 47.856 129.962 48.048C129.642 48.224 129.362 48.472 129.122 48.792C128.898 49.096 128.722 49.464 128.594 49.896C128.482 50.312 128.426 50.76 128.426 51.24V57H125.282V45.24H128.234V46.776ZM139.749 47.928H137.685V45.24H139.749V41.64H142.893V45.24H145.773V47.928H142.893V52.488C142.893 52.76 142.917 53.016 142.965 53.256C143.029 53.48 143.141 53.672 143.301 53.832C143.525 54.088 143.845 54.216 144.261 54.216C144.533 54.216 144.749 54.192 144.909 54.144C145.069 54.08 145.221 54 145.365 53.904L146.253 56.664C145.885 56.84 145.485 56.968 145.053 57.048C144.637 57.144 144.173 57.192 143.661 57.192C143.069 57.192 142.533 57.104 142.053 56.928C141.589 56.736 141.197 56.48 140.877 56.16C140.125 55.44 139.749 54.416 139.749 53.088V47.928ZM156.222 55.464H156.03C155.662 56.056 155.166 56.528 154.542 56.88C153.918 57.216 153.206 57.384 152.406 57.384C150.918 57.384 149.806 56.928 149.07 56.016C148.35 55.104 147.99 53.888 147.99 52.368V45.24H151.134V51.984C151.134 52.832 151.318 53.464 151.686 53.88C152.07 54.28 152.622 54.48 153.342 54.48C153.774 54.48 154.15 54.392 154.47 54.216C154.806 54.024 155.086 53.776 155.31 53.472C155.55 53.152 155.726 52.784 155.838 52.368C155.966 51.936 156.03 51.48 156.03 51V45.24H159.174V57H156.222V55.464ZM168.998 55.752H168.806C168.438 56.2 167.99 56.584 167.462 56.904C166.95 57.224 166.286 57.384 165.47 57.384C164.862 57.384 164.286 57.28 163.742 57.072C163.214 56.88 162.75 56.608 162.35 56.256C161.95 55.904 161.638 55.48 161.414 54.984C161.19 54.488 161.078 53.944 161.078 53.352C161.078 52.744 161.198 52.2 161.438 51.72C161.678 51.224 162.014 50.8 162.446 50.448C162.878 50.096 163.382 49.832 163.958 49.656C164.55 49.464 165.19 49.368 165.878 49.368C166.646 49.368 167.278 49.432 167.774 49.56C168.27 49.672 168.678 49.792 168.998 49.92V49.56C168.998 48.936 168.75 48.424 168.254 48.024C167.758 47.608 167.142 47.4 166.406 47.4C165.318 47.4 164.398 47.856 163.646 48.768L161.366 47.208C162.614 45.64 164.318 44.856 166.478 44.856C168.302 44.856 169.694 45.288 170.654 46.152C171.614 47 172.094 48.264 172.094 49.944V57H168.998V55.752ZM168.998 52.224C168.63 52.048 168.246 51.912 167.846 51.816C167.462 51.704 167.038 51.648 166.574 51.648C165.822 51.648 165.238 51.816 164.822 52.152C164.422 52.472 164.222 52.872 164.222 53.352C164.222 53.832 164.414 54.216 164.798 54.504C165.198 54.792 165.654 54.936 166.166 54.936C166.582 54.936 166.966 54.864 167.318 54.72C167.67 54.56 167.966 54.36 168.206 54.12C168.462 53.864 168.654 53.576 168.782 53.256C168.926 52.92 168.998 52.576 168.998 52.224ZM177.546 46.776H177.738C178.106 46.184 178.602 45.72 179.226 45.384C179.85 45.032 180.562 44.856 181.362 44.856C182.098 44.856 182.746 44.976 183.306 45.216C183.866 45.456 184.322 45.8 184.674 46.248C185.042 46.68 185.314 47.208 185.49 47.832C185.682 48.44 185.778 49.12 185.778 49.872V57H182.634V50.256C182.634 49.408 182.442 48.784 182.058 48.384C181.69 47.968 181.146 47.76 180.426 47.76C179.994 47.76 179.61 47.856 179.274 48.048C178.954 48.224 178.674 48.472 178.434 48.792C178.21 49.096 178.034 49.464 177.906 49.896C177.794 50.312 177.738 50.76 177.738 51.24V57H174.594V45.24H177.546V46.776ZM198.562 57.384C197.826 57.384 197.122 57.28 196.45 57.072C195.778 56.864 195.162 56.552 194.602 56.136C194.042 55.72 193.554 55.216 193.138 54.624C192.722 54.016 192.394 53.312 192.154 52.512L195.202 51.312C195.426 52.176 195.818 52.896 196.378 53.472C196.938 54.032 197.674 54.312 198.586 54.312C198.922 54.312 199.242 54.272 199.546 54.192C199.866 54.096 200.146 53.968 200.386 53.808C200.642 53.632 200.842 53.416 200.986 53.16C201.13 52.904 201.202 52.608 201.202 52.272C201.202 51.952 201.146 51.664 201.034 51.408C200.922 51.152 200.73 50.912 200.458 50.688C200.202 50.464 199.858 50.248 199.426 50.04C199.01 49.832 198.49 49.616 197.866 49.392L196.81 49.008C196.346 48.848 195.874 48.632 195.394 48.36C194.93 48.088 194.506 47.76 194.122 47.376C193.738 46.992 193.418 46.544 193.162 46.032C192.922 45.504 192.802 44.912 192.802 44.256C192.802 43.584 192.93 42.96 193.186 42.384C193.458 41.792 193.834 41.28 194.314 40.848C194.81 40.4 195.394 40.056 196.066 39.816C196.754 39.56 197.514 39.432 198.346 39.432C199.21 39.432 199.954 39.552 200.578 39.792C201.218 40.016 201.754 40.312 202.186 40.68C202.634 41.032 202.994 41.424 203.266 41.856C203.538 42.288 203.738 42.696 203.866 43.08L201.01 44.28C200.85 43.8 200.554 43.368 200.122 42.984C199.706 42.6 199.13 42.408 198.394 42.408C197.69 42.408 197.106 42.576 196.642 42.912C196.178 43.232 195.946 43.656 195.946 44.184C195.946 44.696 196.17 45.136 196.618 45.504C197.066 45.856 197.778 46.2 198.754 46.536L199.834 46.896C200.522 47.136 201.146 47.416 201.706 47.736C202.282 48.04 202.77 48.408 203.17 48.84C203.586 49.272 203.898 49.768 204.106 50.328C204.33 50.872 204.442 51.504 204.442 52.224C204.442 53.12 204.258 53.896 203.89 54.552C203.538 55.192 203.082 55.72 202.522 56.136C201.962 56.552 201.33 56.864 200.626 57.072C199.922 57.28 199.234 57.384 198.562 57.384ZM212.295 44.856C213.207 44.856 214.039 45.016 214.791 45.336C215.559 45.64 216.215 46.072 216.759 46.632C217.319 47.176 217.751 47.832 218.055 48.6C218.375 49.368 218.535 50.208 218.535 51.12C218.535 52.032 218.375 52.872 218.055 53.64C217.751 54.408 217.319 55.072 216.759 55.632C216.215 56.176 215.559 56.608 214.791 56.928C214.039 57.232 213.207 57.384 212.295 57.384C211.383 57.384 210.543 57.232 209.775 56.928C209.023 56.608 208.367 56.176 207.807 55.632C207.263 55.072 206.831 54.408 206.511 53.64C206.207 52.872 206.055 52.032 206.055 51.12C206.055 50.208 206.207 49.368 206.511 48.6C206.831 47.832 207.263 47.176 207.807 46.632C208.367 46.072 209.023 45.64 209.775 45.336C210.543 45.016 211.383 44.856 212.295 44.856ZM212.295 54.48C212.695 54.48 213.079 54.408 213.447 54.264C213.831 54.104 214.167 53.88 214.455 53.592C214.743 53.304 214.967 52.952 215.127 52.536C215.303 52.12 215.391 51.648 215.391 51.12C215.391 50.592 215.303 50.12 215.127 49.704C214.967 49.288 214.743 48.936 214.455 48.648C214.167 48.36 213.831 48.144 213.447 48C213.079 47.84 212.695 47.76 212.295 47.76C211.879 47.76 211.487 47.84 211.119 48C210.751 48.144 210.423 48.36 210.135 48.648C209.847 48.936 209.615 49.288 209.439 49.704C209.279 50.12 209.199 50.592 209.199 51.12C209.199 51.648 209.279 52.12 209.439 52.536C209.615 52.952 209.847 53.304 210.135 53.592C210.423 53.88 210.751 54.104 211.119 54.264C211.487 54.408 211.879 54.48 212.295 54.48ZM225.094 57.384C224.326 57.384 223.638 57.288 223.03 57.096C222.438 56.904 221.918 56.656 221.47 56.352C221.038 56.032 220.67 55.672 220.366 55.272C220.062 54.856 219.83 54.44 219.67 54.024L222.478 52.824C222.75 53.432 223.11 53.888 223.558 54.192C224.022 54.48 224.534 54.624 225.094 54.624C225.67 54.624 226.126 54.52 226.462 54.312C226.798 54.104 226.966 53.856 226.966 53.568C226.966 53.248 226.822 52.992 226.534 52.8C226.262 52.592 225.782 52.408 225.094 52.248L223.438 51.888C223.07 51.808 222.686 51.68 222.286 51.504C221.902 51.328 221.55 51.104 221.23 50.832C220.91 50.56 220.646 50.232 220.438 49.848C220.23 49.464 220.126 49.016 220.126 48.504C220.126 47.928 220.246 47.416 220.486 46.968C220.742 46.52 221.086 46.144 221.518 45.84C221.95 45.52 222.454 45.28 223.03 45.12C223.622 44.944 224.254 44.856 224.926 44.856C226.046 44.856 227.046 45.08 227.926 45.528C228.806 45.96 229.454 46.656 229.87 47.616L227.158 48.72C226.934 48.256 226.606 47.92 226.174 47.712C225.742 47.504 225.31 47.4 224.878 47.4C224.43 47.4 224.038 47.496 223.702 47.688C223.366 47.864 223.198 48.096 223.198 48.384C223.198 48.656 223.334 48.872 223.606 49.032C223.894 49.192 224.278 49.336 224.758 49.464L226.558 49.896C227.758 50.184 228.646 50.648 229.222 51.288C229.814 51.912 230.11 52.656 230.11 53.52C230.11 54.032 229.99 54.52 229.75 54.984C229.51 55.448 229.166 55.864 228.718 56.232C228.286 56.584 227.758 56.864 227.134 57.072C226.526 57.28 225.846 57.384 225.094 57.384ZM233.674 43.536C233.402 43.536 233.138 43.488 232.882 43.392C232.642 43.28 232.426 43.136 232.234 42.96C232.058 42.768 231.914 42.552 231.802 42.312C231.706 42.072 231.658 41.808 231.658 41.52C231.658 41.232 231.706 40.968 231.802 40.728C231.914 40.488 232.058 40.28 232.234 40.104C232.426 39.912 232.642 39.768 232.882 39.672C233.138 39.56 233.402 39.504 233.674 39.504C234.234 39.504 234.714 39.704 235.114 40.104C235.514 40.488 235.714 40.96 235.714 41.52C235.714 42.08 235.514 42.56 235.114 42.96C234.714 43.344 234.234 43.536 233.674 43.536ZM232.114 57V45.24H235.258V57H232.114ZM245.264 55.752H245.072C244.704 56.2 244.256 56.584 243.728 56.904C243.216 57.224 242.552 57.384 241.736 57.384C241.128 57.384 240.552 57.28 240.008 57.072C239.48 56.88 239.016 56.608 238.616 56.256C238.216 55.904 237.904 55.48 237.68 54.984C237.456 54.488 237.344 53.944 237.344 53.352C237.344 52.744 237.464 52.2 237.704 51.72C237.944 51.224 238.28 50.8 238.712 50.448C239.144 50.096 239.648 49.832 240.224 49.656C240.816 49.464 241.456 49.368 242.144 49.368C242.912 49.368 243.544 49.432 244.04 49.56C244.536 49.672 244.944 49.792 245.264 49.92V49.56C245.264 48.936 245.016 48.424 244.52 48.024C244.024 47.608 243.408 47.4 242.672 47.4C241.584 47.4 240.664 47.856 239.912 48.768L237.632 47.208C238.88 45.64 240.584 44.856 242.744 44.856C244.568 44.856 245.96 45.288 246.92 46.152C247.88 47 248.36 48.264 248.36 49.944V57H245.264V55.752ZM245.264 52.224C244.896 52.048 244.512 51.912 244.112 51.816C243.728 51.704 243.304 51.648 242.84 51.648C242.088 51.648 241.504 51.816 241.088 52.152C240.688 52.472 240.488 52.872 240.488 53.352C240.488 53.832 240.68 54.216 241.064 54.504C241.464 54.792 241.92 54.936 242.432 54.936C242.848 54.936 243.232 54.864 243.584 54.72C243.936 54.56 244.232 54.36 244.472 54.12C244.728 53.864 244.92 53.576 245.048 53.256C245.192 52.92 245.264 52.576 245.264 52.224ZM250.86 57V39.816H254.004V57H250.86ZM262.353 57V39.816H268.401C269.217 39.816 269.977 39.952 270.681 40.224C271.401 40.48 272.025 40.848 272.553 41.328C273.081 41.808 273.497 42.384 273.801 43.056C274.105 43.712 274.257 44.44 274.257 45.24C274.257 46.056 274.105 46.8 273.801 47.472C273.497 48.128 273.081 48.696 272.553 49.176C272.025 49.656 271.401 50.032 270.681 50.304C269.977 50.56 269.217 50.688 268.401 50.688H265.593V57H262.353ZM268.449 47.616C269.297 47.616 269.937 47.376 270.369 46.896C270.801 46.416 271.017 45.864 271.017 45.24C271.017 44.936 270.961 44.64 270.849 44.352C270.753 44.064 270.593 43.816 270.369 43.608C270.161 43.384 269.897 43.208 269.577 43.08C269.257 42.952 268.881 42.888 268.449 42.888H265.593V47.616H268.449ZM276.172 45.24H279.124V46.872H279.316C279.46 46.584 279.652 46.32 279.892 46.08C280.132 45.84 280.396 45.632 280.684 45.456C280.988 45.28 281.308 45.144 281.644 45.048C281.996 44.952 282.34 44.904 282.676 44.904C283.092 44.904 283.444 44.944 283.732 45.024C284.036 45.104 284.292 45.208 284.5 45.336L283.66 48.192C283.468 48.096 283.252 48.024 283.012 47.976C282.788 47.912 282.508 47.88 282.172 47.88C281.74 47.88 281.348 47.968 280.996 48.144C280.644 48.304 280.34 48.536 280.084 48.84C279.844 49.144 279.652 49.504 279.508 49.92C279.38 50.32 279.316 50.76 279.316 51.24V57H276.172V45.24ZM296.355 54.168C295.811 55.128 295.075 55.904 294.147 56.496C293.235 57.088 292.115 57.384 290.787 57.384C289.891 57.384 289.059 57.232 288.291 56.928C287.539 56.608 286.883 56.168 286.323 55.608C285.763 55.048 285.323 54.392 285.003 53.64C284.699 52.872 284.547 52.032 284.547 51.12C284.547 50.272 284.699 49.472 285.003 48.72C285.307 47.952 285.731 47.288 286.275 46.728C286.819 46.152 287.459 45.696 288.195 45.36C288.947 45.024 289.771 44.856 290.667 44.856C291.611 44.856 292.451 45.016 293.187 45.336C293.923 45.64 294.539 46.072 295.035 46.632C295.531 47.176 295.907 47.824 296.163 48.576C296.419 49.328 296.547 50.144 296.547 51.024C296.547 51.136 296.547 51.232 296.547 51.312C296.531 51.408 296.523 51.496 296.523 51.576C296.507 51.656 296.499 51.744 296.499 51.84H287.643C287.707 52.32 287.835 52.736 288.027 53.088C288.235 53.424 288.483 53.712 288.771 53.952C289.075 54.176 289.403 54.344 289.755 54.456C290.107 54.552 290.467 54.6 290.835 54.6C291.555 54.6 292.147 54.44 292.611 54.12C293.091 53.784 293.467 53.368 293.739 52.872L296.355 54.168ZM293.499 49.608C293.483 49.4 293.411 49.168 293.283 48.912C293.171 48.656 292.995 48.416 292.755 48.192C292.531 47.968 292.243 47.784 291.891 47.64C291.555 47.496 291.147 47.424 290.667 47.424C289.995 47.424 289.403 47.616 288.891 48C288.379 48.384 288.019 48.92 287.811 49.608H293.499ZM303.328 57.384C302.56 57.384 301.872 57.288 301.264 57.096C300.672 56.904 300.152 56.656 299.704 56.352C299.272 56.032 298.904 55.672 298.6 55.272C298.296 54.856 298.064 54.44 297.904 54.024L300.712 52.824C300.984 53.432 301.344 53.888 301.792 54.192C302.256 54.48 302.768 54.624 303.328 54.624C303.904 54.624 304.36 54.52 304.696 54.312C305.032 54.104 305.2 53.856 305.2 53.568C305.2 53.248 305.056 52.992 304.768 52.8C304.496 52.592 304.016 52.408 303.328 52.248L301.672 51.888C301.304 51.808 300.92 51.68 300.52 51.504C300.136 51.328 299.784 51.104 299.464 50.832C299.144 50.56 298.88 50.232 298.672 49.848C298.464 49.464 298.36 49.016 298.36 48.504C298.36 47.928 298.48 47.416 298.72 46.968C298.976 46.52 299.32 46.144 299.752 45.84C300.184 45.52 300.688 45.28 301.264 45.12C301.856 44.944 302.488 44.856 303.16 44.856C304.28 44.856 305.28 45.08 306.16 45.528C307.04 45.96 307.688 46.656 308.104 47.616L305.392 48.72C305.168 48.256 304.84 47.92 304.408 47.712C303.976 47.504 303.544 47.4 303.112 47.4C302.664 47.4 302.272 47.496 301.936 47.688C301.6 47.864 301.432 48.096 301.432 48.384C301.432 48.656 301.568 48.872 301.84 49.032C302.128 49.192 302.512 49.336 302.992 49.464L304.792 49.896C305.992 50.184 306.88 50.648 307.456 51.288C308.048 51.912 308.344 52.656 308.344 53.52C308.344 54.032 308.224 54.52 307.984 54.984C307.744 55.448 307.4 55.864 306.952 56.232C306.52 56.584 305.992 56.864 305.368 57.072C304.76 57.28 304.08 57.384 303.328 57.384ZM311.909 43.536C311.637 43.536 311.373 43.488 311.117 43.392C310.877 43.28 310.661 43.136 310.469 42.96C310.293 42.768 310.149 42.552 310.037 42.312C309.941 42.072 309.893 41.808 309.893 41.52C309.893 41.232 309.941 40.968 310.037 40.728C310.149 40.488 310.293 40.28 310.469 40.104C310.661 39.912 310.877 39.768 311.117 39.672C311.373 39.56 311.637 39.504 311.909 39.504C312.469 39.504 312.949 39.704 313.349 40.104C313.749 40.488 313.949 40.96 313.949 41.52C313.949 42.08 313.749 42.56 313.349 42.96C312.949 43.344 312.469 43.536 311.909 43.536ZM310.349 57V45.24H313.493V57H310.349ZM325.01 55.584H324.818C324.53 56.08 324.082 56.504 323.474 56.856C322.866 57.208 322.114 57.384 321.218 57.384C320.466 57.384 319.746 57.232 319.058 56.928C318.386 56.608 317.786 56.176 317.258 55.632C316.746 55.072 316.338 54.408 316.034 53.64C315.73 52.872 315.578 52.032 315.578 51.12C315.578 50.208 315.73 49.368 316.034 48.6C316.338 47.832 316.746 47.176 317.258 46.632C317.786 46.072 318.386 45.64 319.058 45.336C319.746 45.016 320.466 44.856 321.218 44.856C322.114 44.856 322.866 45.032 323.474 45.384C324.082 45.736 324.53 46.16 324.818 46.656H325.01L324.818 44.976V39.816H327.962V57H325.01V55.584ZM321.866 54.48C322.282 54.48 322.674 54.408 323.042 54.264C323.426 54.104 323.762 53.88 324.05 53.592C324.338 53.304 324.57 52.952 324.746 52.536C324.922 52.12 325.01 51.648 325.01 51.12C325.01 50.592 324.922 50.12 324.746 49.704C324.57 49.288 324.338 48.936 324.05 48.648C323.762 48.36 323.426 48.144 323.042 48C322.674 47.84 322.282 47.76 321.866 47.76C321.45 47.76 321.05 47.84 320.666 48C320.298 48.16 319.97 48.384 319.682 48.672C319.394 48.96 319.162 49.312 318.986 49.728C318.81 50.144 318.722 50.608 318.722 51.12C318.722 51.632 318.81 52.096 318.986 52.512C319.162 52.928 319.394 53.28 319.682 53.568C319.97 53.856 320.298 54.08 320.666 54.24C321.05 54.4 321.45 54.48 321.866 54.48ZM341.66 54.168C341.116 55.128 340.38 55.904 339.452 56.496C338.54 57.088 337.42 57.384 336.092 57.384C335.196 57.384 334.364 57.232 333.596 56.928C332.844 56.608 332.188 56.168 331.628 55.608C331.068 55.048 330.628 54.392 330.308 53.64C330.004 52.872 329.852 52.032 329.852 51.12C329.852 50.272 330.004 49.472 330.308 48.72C330.612 47.952 331.036 47.288 331.58 46.728C332.124 46.152 332.764 45.696 333.5 45.36C334.252 45.024 335.076 44.856 335.972 44.856C336.916 44.856 337.756 45.016 338.492 45.336C339.228 45.64 339.844 46.072 340.34 46.632C340.836 47.176 341.212 47.824 341.468 48.576C341.724 49.328 341.852 50.144 341.852 51.024C341.852 51.136 341.852 51.232 341.852 51.312C341.836 51.408 341.828 51.496 341.828 51.576C341.812 51.656 341.804 51.744 341.804 51.84H332.948C333.012 52.32 333.14 52.736 333.332 53.088C333.54 53.424 333.788 53.712 334.076 53.952C334.38 54.176 334.708 54.344 335.06 54.456C335.412 54.552 335.772 54.6 336.14 54.6C336.86 54.6 337.452 54.44 337.916 54.12C338.396 53.784 338.772 53.368 339.044 52.872L341.66 54.168ZM338.804 49.608C338.788 49.4 338.716 49.168 338.588 48.912C338.476 48.656 338.3 48.416 338.06 48.192C337.836 47.968 337.548 47.784 337.196 47.64C336.86 47.496 336.452 47.424 335.972 47.424C335.3 47.424 334.708 47.616 334.196 48C333.684 48.384 333.324 48.92 333.116 49.608H338.804ZM346.812 46.776H347.004C347.372 46.184 347.868 45.72 348.492 45.384C349.116 45.032 349.828 44.856 350.628 44.856C351.364 44.856 352.012 44.976 352.572 45.216C353.132 45.456 353.588 45.8 353.94 46.248C354.308 46.68 354.58 47.208 354.756 47.832C354.948 48.44 355.044 49.12 355.044 49.872V57H351.9V50.256C351.9 49.408 351.708 48.784 351.324 48.384C350.956 47.968 350.412 47.76 349.692 47.76C349.26 47.76 348.876 47.856 348.54 48.048C348.22 48.224 347.94 48.472 347.7 48.792C347.476 49.096 347.3 49.464 347.172 49.896C347.06 50.312 347.004 50.76 347.004 51.24V57H343.86V45.24H346.812V46.776ZM367.828 57.384C367.092 57.384 366.388 57.28 365.716 57.072C365.044 56.864 364.428 56.552 363.868 56.136C363.308 55.72 362.82 55.216 362.404 54.624C361.988 54.016 361.66 53.312 361.42 52.512L364.468 51.312C364.692 52.176 365.084 52.896 365.644 53.472C366.204 54.032 366.94 54.312 367.852 54.312C368.188 54.312 368.508 54.272 368.812 54.192C369.132 54.096 369.412 53.968 369.652 53.808C369.908 53.632 370.108 53.416 370.252 53.16C370.396 52.904 370.468 52.608 370.468 52.272C370.468 51.952 370.412 51.664 370.3 51.408C370.188 51.152 369.996 50.912 369.724 50.688C369.468 50.464 369.124 50.248 368.692 50.04C368.276 49.832 367.756 49.616 367.132 49.392L366.076 49.008C365.612 48.848 365.14 48.632 364.66 48.36C364.196 48.088 363.772 47.76 363.388 47.376C363.004 46.992 362.684 46.544 362.428 46.032C362.188 45.504 362.068 44.912 362.068 44.256C362.068 43.584 362.196 42.96 362.452 42.384C362.724 41.792 363.1 41.28 363.58 40.848C364.076 40.4 364.66 40.056 365.332 39.816C366.02 39.56 366.78 39.432 367.612 39.432C368.476 39.432 369.22 39.552 369.844 39.792C370.484 40.016 371.02 40.312 371.452 40.68C371.9 41.032 372.26 41.424 372.532 41.856C372.804 42.288 373.004 42.696 373.132 43.08L370.276 44.28C370.116 43.8 369.82 43.368 369.388 42.984C368.972 42.6 368.396 42.408 367.66 42.408C366.956 42.408 366.372 42.576 365.908 42.912C365.444 43.232 365.212 43.656 365.212 44.184C365.212 44.696 365.436 45.136 365.884 45.504C366.332 45.856 367.044 46.2 368.02 46.536L369.1 46.896C369.788 47.136 370.412 47.416 370.972 47.736C371.548 48.04 372.036 48.408 372.436 48.84C372.852 49.272 373.164 49.768 373.372 50.328C373.596 50.872 373.708 51.504 373.708 52.224C373.708 53.12 373.524 53.896 373.156 54.552C372.804 55.192 372.348 55.72 371.788 56.136C371.228 56.552 370.596 56.864 369.892 57.072C369.188 57.28 368.5 57.384 367.828 57.384ZM387.128 54.168C386.584 55.128 385.848 55.904 384.92 56.496C384.008 57.088 382.888 57.384 381.56 57.384C380.664 57.384 379.832 57.232 379.064 56.928C378.312 56.608 377.656 56.168 377.096 55.608C376.536 55.048 376.096 54.392 375.776 53.64C375.472 52.872 375.32 52.032 375.32 51.12C375.32 50.272 375.472 49.472 375.776 48.72C376.08 47.952 376.504 47.288 377.048 46.728C377.592 46.152 378.232 45.696 378.968 45.36C379.72 45.024 380.544 44.856 381.44 44.856C382.384 44.856 383.224 45.016 383.96 45.336C384.696 45.64 385.312 46.072 385.808 46.632C386.304 47.176 386.68 47.824 386.936 48.576C387.192 49.328 387.32 50.144 387.32 51.024C387.32 51.136 387.32 51.232 387.32 51.312C387.304 51.408 387.296 51.496 387.296 51.576C387.28 51.656 387.272 51.744 387.272 51.84H378.416C378.48 52.32 378.608 52.736 378.8 53.088C379.008 53.424 379.256 53.712 379.544 53.952C379.848 54.176 380.176 54.344 380.528 54.456C380.88 54.552 381.24 54.6 381.608 54.6C382.328 54.6 382.92 54.44 383.384 54.12C383.864 53.784 384.24 53.368 384.512 52.872L387.128 54.168ZM384.272 49.608C384.256 49.4 384.184 49.168 384.056 48.912C383.944 48.656 383.768 48.416 383.528 48.192C383.304 47.968 383.016 47.784 382.664 47.64C382.328 47.496 381.92 47.424 381.44 47.424C380.768 47.424 380.176 47.616 379.664 48C379.152 48.384 378.792 48.92 378.584 49.608H384.272ZM389.328 45.24H392.28V46.776H392.472C392.84 46.2 393.336 45.736 393.96 45.384C394.6 45.032 395.304 44.856 396.072 44.856C396.968 44.856 397.72 45.064 398.328 45.48C398.936 45.896 399.368 46.408 399.624 47.016C399.992 46.424 400.512 45.92 401.184 45.504C401.856 45.072 402.672 44.856 403.632 44.856C404.352 44.856 404.976 44.976 405.504 45.216C406.032 45.44 406.464 45.76 406.8 46.176C407.152 46.592 407.416 47.096 407.592 47.688C407.768 48.264 407.856 48.896 407.856 49.584V57H404.712V50.16C404.712 48.56 404.056 47.76 402.744 47.76C402.328 47.76 401.96 47.856 401.64 48.048C401.32 48.224 401.048 48.472 400.824 48.792C400.616 49.096 400.448 49.464 400.32 49.896C400.208 50.328 400.152 50.792 400.152 51.288V57H397.008V50.16C397.008 48.56 396.32 47.76 394.944 47.76C394.544 47.76 394.192 47.856 393.888 48.048C393.584 48.224 393.328 48.472 393.12 48.792C392.912 49.096 392.752 49.464 392.64 49.896C392.528 50.328 392.472 50.792 392.472 51.288V57H389.328V45.24ZM410.446 39.816H413.59V44.976L413.398 46.656H413.59C413.878 46.16 414.326 45.736 414.934 45.384C415.542 45.032 416.294 44.856 417.19 44.856C417.942 44.856 418.654 45.016 419.326 45.336C420.014 45.64 420.614 46.072 421.126 46.632C421.654 47.176 422.07 47.832 422.374 48.6C422.678 49.368 422.83 50.208 422.83 51.12C422.83 52.032 422.678 52.872 422.374 53.64C422.07 54.408 421.654 55.072 421.126 55.632C420.614 56.176 420.014 56.608 419.326 56.928C418.654 57.232 417.942 57.384 417.19 57.384C416.294 57.384 415.542 57.208 414.934 56.856C414.326 56.504 413.878 56.08 413.59 55.584H413.398V57H410.446V39.816ZM416.542 54.48C416.958 54.48 417.35 54.4 417.718 54.24C418.102 54.08 418.438 53.856 418.726 53.568C419.014 53.28 419.246 52.928 419.422 52.512C419.598 52.096 419.686 51.632 419.686 51.12C419.686 50.608 419.598 50.144 419.422 49.728C419.246 49.312 419.014 48.96 418.726 48.672C418.438 48.384 418.102 48.16 417.718 48C417.35 47.84 416.958 47.76 416.542 47.76C416.126 47.76 415.726 47.84 415.342 48C414.974 48.144 414.646 48.36 414.358 48.648C414.07 48.936 413.838 49.288 413.662 49.704C413.486 50.12 413.398 50.592 413.398 51.12C413.398 51.648 413.486 52.12 413.662 52.536C413.838 52.952 414.07 53.304 414.358 53.592C414.646 53.88 414.974 54.104 415.342 54.264C415.726 54.408 416.126 54.48 416.542 54.48ZM432.084 55.752H431.892C431.524 56.2 431.076 56.584 430.548 56.904C430.036 57.224 429.372 57.384 428.556 57.384C427.948 57.384 427.372 57.28 426.828 57.072C426.3 56.88 425.836 56.608 425.436 56.256C425.036 55.904 424.724 55.48 424.5 54.984C424.276 54.488 424.164 53.944 424.164 53.352C424.164 52.744 424.284 52.2 424.524 51.72C424.764 51.224 425.1 50.8 425.532 50.448C425.964 50.096 426.468 49.832 427.044 49.656C427.636 49.464 428.276 49.368 428.964 49.368C429.732 49.368 430.364 49.432 430.86 49.56C431.356 49.672 431.764 49.792 432.084 49.92V49.56C432.084 48.936 431.836 48.424 431.34 48.024C430.844 47.608 430.228 47.4 429.492 47.4C428.404 47.4 427.484 47.856 426.732 48.768L424.452 47.208C425.7 45.64 427.404 44.856 429.564 44.856C431.388 44.856 432.78 45.288 433.74 46.152C434.7 47 435.18 48.264 435.18 49.944V57H432.084V55.752ZM432.084 52.224C431.716 52.048 431.332 51.912 430.932 51.816C430.548 51.704 430.124 51.648 429.66 51.648C428.908 51.648 428.324 51.816 427.908 52.152C427.508 52.472 427.308 52.872 427.308 53.352C427.308 53.832 427.5 54.216 427.884 54.504C428.284 54.792 428.74 54.936 429.252 54.936C429.668 54.936 430.052 54.864 430.404 54.72C430.756 54.56 431.052 54.36 431.292 54.12C431.548 53.864 431.74 53.576 431.868 53.256C432.012 52.92 432.084 52.576 432.084 52.224ZM437.68 39.816H440.824V49.176H440.968L444.904 45.24H448.792V45.432L444.424 49.68L449.152 56.808V57H445.432L442.216 51.84L440.824 53.208V57H437.68V39.816ZM455.623 44.856C456.535 44.856 457.367 45.016 458.119 45.336C458.887 45.64 459.543 46.072 460.087 46.632C460.647 47.176 461.079 47.832 461.383 48.6C461.703 49.368 461.863 50.208 461.863 51.12C461.863 52.032 461.703 52.872 461.383 53.64C461.079 54.408 460.647 55.072 460.087 55.632C459.543 56.176 458.887 56.608 458.119 56.928C457.367 57.232 456.535 57.384 455.623 57.384C454.711 57.384 453.871 57.232 453.103 56.928C452.351 56.608 451.695 56.176 451.135 55.632C450.591 55.072 450.159 54.408 449.839 53.64C449.535 52.872 449.383 52.032 449.383 51.12C449.383 50.208 449.535 49.368 449.839 48.6C450.159 47.832 450.591 47.176 451.135 46.632C451.695 46.072 452.351 45.64 453.103 45.336C453.871 45.016 454.711 44.856 455.623 44.856ZM455.623 54.48C456.023 54.48 456.407 54.408 456.775 54.264C457.159 54.104 457.495 53.88 457.783 53.592C458.071 53.304 458.295 52.952 458.455 52.536C458.631 52.12 458.719 51.648 458.719 51.12C458.719 50.592 458.631 50.12 458.455 49.704C458.295 49.288 458.071 48.936 457.783 48.648C457.495 48.36 457.159 48.144 456.775 48C456.407 47.84 456.023 47.76 455.623 47.76C455.207 47.76 454.815 47.84 454.447 48C454.079 48.144 453.751 48.36 453.463 48.648C453.175 48.936 452.943 49.288 452.767 49.704C452.607 50.12 452.527 50.592 452.527 51.12C452.527 51.648 452.607 52.12 452.767 52.536C452.943 52.952 453.175 53.304 453.463 53.592C453.751 53.88 454.079 54.104 454.447 54.264C454.815 54.408 455.207 54.48 455.623 54.48ZM475.949 39.912C474.909 41.208 474.069 42.632 473.429 44.184C472.805 45.736 472.493 47.432 472.493 49.272C472.493 51.112 472.805 52.808 473.429 54.36C474.069 55.912 474.909 57.336 475.949 58.632L473.573 60.264C473.093 59.736 472.597 59.088 472.085 58.32C471.589 57.552 471.133 56.696 470.717 55.752C470.317 54.808 469.989 53.792 469.733 52.704C469.477 51.6 469.349 50.456 469.349 49.272C469.349 48.088 469.477 46.952 469.733 45.864C469.989 44.76 470.317 43.736 470.717 42.792C471.133 41.848 471.589 40.992 472.085 40.224C472.597 39.456 473.093 38.808 473.573 38.28L475.949 39.912ZM478.166 39.816H484.886C485.622 39.816 486.31 39.936 486.95 40.176C487.59 40.4 488.142 40.72 488.606 41.136C489.086 41.536 489.462 42.008 489.734 42.552C490.006 43.096 490.142 43.68 490.142 44.304C490.142 45.216 489.918 45.984 489.47 46.608C489.038 47.216 488.494 47.68 487.838 48V48.192C488.718 48.512 489.422 49.016 489.95 49.704C490.494 50.376 490.766 51.216 490.766 52.224C490.766 52.96 490.614 53.624 490.31 54.216C490.022 54.792 489.622 55.288 489.109 55.704C488.598 56.12 487.998 56.44 487.31 56.664C486.638 56.888 485.91 57 485.126 57H478.166V39.816ZM484.646 46.824C485.398 46.824 485.974 46.624 486.374 46.224C486.79 45.808 486.998 45.32 486.998 44.76C486.998 44.2 486.798 43.72 486.398 43.32C485.998 42.92 485.446 42.72 484.742 42.72H481.406V46.824H484.646ZM485.006 54.024C485.822 54.024 486.446 53.824 486.878 53.424C487.31 53.008 487.526 52.48 487.526 51.84C487.526 51.2 487.302 50.672 486.854 50.256C486.422 49.824 485.774 49.608 484.91 49.608H481.406V54.024H485.006ZM498.443 44.856C499.355 44.856 500.187 45.016 500.939 45.336C501.707 45.64 502.363 46.072 502.907 46.632C503.467 47.176 503.899 47.832 504.203 48.6C504.523 49.368 504.683 50.208 504.683 51.12C504.683 52.032 504.523 52.872 504.203 53.64C503.899 54.408 503.467 55.072 502.907 55.632C502.363 56.176 501.707 56.608 500.939 56.928C500.187 57.232 499.355 57.384 498.443 57.384C497.531 57.384 496.691 57.232 495.923 56.928C495.171 56.608 494.515 56.176 493.955 55.632C493.411 55.072 492.979 54.408 492.659 53.64C492.355 52.872 492.203 52.032 492.203 51.12C492.203 50.208 492.355 49.368 492.659 48.6C492.979 47.832 493.411 47.176 493.955 46.632C494.515 46.072 495.171 45.64 495.923 45.336C496.691 45.016 497.531 44.856 498.443 44.856ZM498.443 54.48C498.843 54.48 499.227 54.408 499.595 54.264C499.979 54.104 500.315 53.88 500.603 53.592C500.891 53.304 501.115 52.952 501.275 52.536C501.451 52.12 501.539 51.648 501.539 51.12C501.539 50.592 501.451 50.12 501.275 49.704C501.115 49.288 500.891 48.936 500.603 48.648C500.315 48.36 499.979 48.144 499.595 48C499.227 47.84 498.843 47.76 498.443 47.76C498.027 47.76 497.635 47.84 497.267 48C496.899 48.144 496.571 48.36 496.283 48.648C495.995 48.936 495.763 49.288 495.587 49.704C495.427 50.12 495.347 50.592 495.347 51.12C495.347 51.648 495.427 52.12 495.587 52.536C495.763 52.952 495.995 53.304 496.283 53.592C496.571 53.88 496.899 54.104 497.267 54.264C497.635 54.408 498.027 54.48 498.443 54.48ZM515.463 55.584H515.271C514.983 56.08 514.535 56.504 513.927 56.856C513.319 57.208 512.567 57.384 511.671 57.384C510.919 57.384 510.199 57.232 509.511 56.928C508.839 56.608 508.239 56.176 507.711 55.632C507.199 55.072 506.791 54.408 506.487 53.64C506.183 52.872 506.031 52.032 506.031 51.12C506.031 50.208 506.183 49.368 506.487 48.6C506.791 47.832 507.199 47.176 507.711 46.632C508.239 46.072 508.839 45.64 509.511 45.336C510.199 45.016 510.919 44.856 511.671 44.856C512.567 44.856 513.319 45.032 513.927 45.384C514.535 45.736 514.983 46.16 515.271 46.656H515.463L515.271 44.976V39.816H518.415V57H515.463V55.584ZM512.319 54.48C512.735 54.48 513.127 54.408 513.495 54.264C513.879 54.104 514.215 53.88 514.503 53.592C514.791 53.304 515.023 52.952 515.199 52.536C515.375 52.12 515.463 51.648 515.463 51.12C515.463 50.592 515.375 50.12 515.199 49.704C515.023 49.288 514.791 48.936 514.503 48.648C514.215 48.36 513.879 48.144 513.495 48C513.127 47.84 512.735 47.76 512.319 47.76C511.903 47.76 511.503 47.84 511.119 48C510.751 48.16 510.423 48.384 510.135 48.672C509.847 48.96 509.615 49.312 509.439 49.728C509.263 50.144 509.175 50.608 509.175 51.12C509.175 51.632 509.263 52.096 509.439 52.512C509.615 52.928 509.847 53.28 510.135 53.568C510.423 53.856 510.751 54.08 511.119 54.24C511.503 54.4 511.903 54.48 512.319 54.48ZM532.113 54.168C531.569 55.128 530.833 55.904 529.905 56.496C528.993 57.088 527.873 57.384 526.545 57.384C525.649 57.384 524.817 57.232 524.049 56.928C523.297 56.608 522.641 56.168 522.081 55.608C521.521 55.048 521.081 54.392 520.761 53.64C520.457 52.872 520.305 52.032 520.305 51.12C520.305 50.272 520.457 49.472 520.761 48.72C521.065 47.952 521.489 47.288 522.033 46.728C522.577 46.152 523.217 45.696 523.953 45.36C524.705 45.024 525.529 44.856 526.425 44.856C527.369 44.856 528.209 45.016 528.945 45.336C529.681 45.64 530.297 46.072 530.793 46.632C531.289 47.176 531.665 47.824 531.921 48.576C532.177 49.328 532.305 50.144 532.305 51.024C532.305 51.136 532.305 51.232 532.305 51.312C532.289 51.408 532.281 51.496 532.281 51.576C532.265 51.656 532.257 51.744 532.257 51.84H523.401C523.465 52.32 523.593 52.736 523.785 53.088C523.993 53.424 524.241 53.712 524.529 53.952C524.833 54.176 525.161 54.344 525.513 54.456C525.865 54.552 526.225 54.6 526.593 54.6C527.313 54.6 527.905 54.44 528.369 54.12C528.849 53.784 529.225 53.368 529.497 52.872L532.113 54.168ZM529.257 49.608C529.241 49.4 529.169 49.168 529.041 48.912C528.929 48.656 528.753 48.416 528.513 48.192C528.289 47.968 528.001 47.784 527.649 47.64C527.313 47.496 526.905 47.424 526.425 47.424C525.753 47.424 525.161 47.616 524.649 48C524.137 48.384 523.777 48.92 523.569 49.608H529.257ZM534.313 39.816H537.457V44.976L537.265 46.656H537.457C537.745 46.16 538.193 45.736 538.801 45.384C539.409 45.032 540.161 44.856 541.057 44.856C541.809 44.856 542.521 45.016 543.193 45.336C543.881 45.64 544.481 46.072 544.993 46.632C545.521 47.176 545.937 47.832 546.241 48.6C546.545 49.368 546.697 50.208 546.697 51.12C546.697 52.032 546.545 52.872 546.241 53.64C545.937 54.408 545.521 55.072 544.993 55.632C544.481 56.176 543.881 56.608 543.193 56.928C542.521 57.232 541.809 57.384 541.057 57.384C540.161 57.384 539.409 57.208 538.801 56.856C538.193 56.504 537.745 56.08 537.457 55.584H537.265V57H534.313V39.816ZM540.409 54.48C540.825 54.48 541.217 54.4 541.585 54.24C541.969 54.08 542.305 53.856 542.593 53.568C542.881 53.28 543.113 52.928 543.289 52.512C543.465 52.096 543.553 51.632 543.553 51.12C543.553 50.608 543.465 50.144 543.289 49.728C543.113 49.312 542.881 48.96 542.593 48.672C542.305 48.384 541.969 48.16 541.585 48C541.217 47.84 540.825 47.76 540.409 47.76C539.993 47.76 539.593 47.84 539.209 48C538.841 48.144 538.513 48.36 538.225 48.648C537.937 48.936 537.705 49.288 537.529 49.704C537.353 50.12 537.265 50.592 537.265 51.12C537.265 51.648 537.353 52.12 537.529 52.536C537.705 52.952 537.937 53.304 538.225 53.592C538.513 53.88 538.841 54.104 539.209 54.264C539.593 54.408 539.993 54.48 540.409 54.48ZM559.839 54.168C559.295 55.128 558.559 55.904 557.631 56.496C556.719 57.088 555.599 57.384 554.271 57.384C553.375 57.384 552.543 57.232 551.775 56.928C551.023 56.608 550.367 56.168 549.807 55.608C549.247 55.048 548.807 54.392 548.487 53.64C548.183 52.872 548.031 52.032 548.031 51.12C548.031 50.272 548.183 49.472 548.487 48.72C548.791 47.952 549.215 47.288 549.759 46.728C550.303 46.152 550.943 45.696 551.679 45.36C552.431 45.024 553.255 44.856 554.151 44.856C555.095 44.856 555.935 45.016 556.671 45.336C557.407 45.64 558.023 46.072 558.519 46.632C559.015 47.176 559.391 47.824 559.647 48.576C559.903 49.328 560.031 50.144 560.031 51.024C560.031 51.136 560.031 51.232 560.031 51.312C560.015 51.408 560.007 51.496 560.007 51.576C559.991 51.656 559.983 51.744 559.983 51.84H551.127C551.191 52.32 551.319 52.736 551.511 53.088C551.719 53.424 551.967 53.712 552.255 53.952C552.559 54.176 552.887 54.344 553.239 54.456C553.591 54.552 553.951 54.6 554.319 54.6C555.039 54.6 555.631 54.44 556.095 54.12C556.575 53.784 556.951 53.368 557.223 52.872L559.839 54.168ZM556.983 49.608C556.967 49.4 556.895 49.168 556.767 48.912C556.655 48.656 556.479 48.416 556.239 48.192C556.015 47.968 555.727 47.784 555.375 47.64C555.039 47.496 554.631 47.424 554.151 47.424C553.479 47.424 552.887 47.616 552.375 48C551.863 48.384 551.503 48.92 551.295 49.608H556.983ZM562.039 39.816H565.183V49.176H565.327L569.263 45.24H573.151V45.432L568.783 49.68L573.511 56.808V57H569.791L566.575 51.84L565.183 53.208V57H562.039V39.816ZM576.278 38.28C576.758 38.808 577.246 39.456 577.742 40.224C578.238 40.992 578.686 41.848 579.086 42.792C579.502 43.736 579.838 44.76 580.094 45.864C580.366 46.952 580.502 48.088 580.502 49.272C580.502 50.456 580.366 51.6 580.094 52.704C579.838 53.792 579.502 54.808 579.086 55.752C578.686 56.696 578.238 57.552 577.742 58.32C577.246 59.088 576.758 59.736 576.278 60.264L573.902 58.632C574.942 57.336 575.774 55.912 576.398 54.36C577.038 52.808 577.358 51.112 577.358 49.272C577.358 47.432 577.038 45.736 576.398 44.184C575.774 42.632 574.942 41.208 573.902 39.912L576.278 38.28Z" fill="#333333"/>
<circle cx="48" cy="48" r="24" fill="#FCF1CF"/>
<g clip-path="url(#clip0)">
<path d="M59.2493 47.84C58.4468 47.1787 57.1785 47.1219 56.346 48.0153L54.2794 50.2338C54.0122 49.3751 53.2103 48.7498 52.2649 48.7498H48.577C48.2971 48.7498 48.2034 48.6429 47.7173 48.2685C45.864 46.6528 43.0803 46.6579 41.2326 48.2839L39.877 49.4773C39.2677 49.1548 38.5562 49.1468 37.9435 49.4529L36.3888 50.23C36.0414 50.4039 35.9009 50.8262 36.0743 51.1736L40.2928 59.6106C40.4667 59.9579 40.889 60.0985 41.2363 59.9251L42.7911 59.1475C43.5574 58.7646 43.9839 57.9827 43.9563 57.1868H52.2648C53.8055 57.1868 55.2778 56.451 56.2021 55.2182L59.5774 50.7176C60.2322 49.8452 60.1286 48.5661 59.2493 47.84ZM42.162 57.8899L41.2363 58.353L37.6463 51.1736L38.5725 50.7105C38.9199 50.5371 39.3417 50.6772 39.5156 51.025L42.4765 56.9468C42.65 57.2941 42.5093 57.716 42.162 57.8899ZM58.4524 49.8738L55.0772 54.3745C54.4168 55.2552 53.3654 55.7806 52.2649 55.7806H43.4655L40.8308 50.5108L42.1615 49.3395C43.4857 48.1747 45.4824 48.1747 46.8066 49.3395C47.5865 50.0262 48.0716 50.156 48.5769 50.156H52.2648C52.6525 50.156 52.9679 50.4715 52.9679 50.8591C52.9679 51.2467 52.6524 51.5622 52.2648 51.5622H48.674C48.2858 51.5622 47.9709 51.8772 47.9709 52.2653C47.9709 52.6533 48.2859 52.9683 48.674 52.9683H52.7359C53.3195 52.9683 53.882 52.7236 54.2794 52.2967L57.3749 48.9739C57.658 48.6701 58.092 48.6954 58.3583 48.9284C58.6366 49.1721 58.6667 49.5888 58.4524 49.8738Z" fill="#F2C94C"/>
<path d="M50.7836 40.7986C51.265 40.2938 51.5617 39.6113 51.5617 38.8599C51.5617 37.3122 50.3112 36.0007 48.7494 36.0007C47.1993 36.0007 45.8902 37.3099 45.8902 38.8599C45.8902 39.5883 46.1757 40.2759 46.6941 40.8042C45.4084 41.5251 44.4841 42.9087 44.4841 44.5315V45.2345C44.4841 45.6226 44.7991 45.9376 45.1871 45.9376H52.2648C52.6529 45.9376 52.9679 45.6226 52.9679 45.2345V44.5315C52.9679 42.9406 52.0929 41.5354 50.7836 40.7986ZM48.7494 37.4069C49.5115 37.4069 50.1556 38.0725 50.1556 38.86C50.1556 39.6352 49.5247 40.2661 48.7494 40.2661C47.962 40.2661 47.2964 39.6221 47.2964 38.86C47.2964 38.0861 47.9755 37.4069 48.7494 37.4069ZM45.8902 44.5315C45.8902 42.9814 47.1993 41.6723 48.7494 41.6723C50.2999 41.6723 51.5617 42.9547 51.5617 44.5315H45.8902Z" fill="#F2C94C"/>
</g>
<defs>
<clipPath id="clip0">
<rect x="36" y="36" width="24" height="24" fill="white"/>
</clipPath>
</defs>
</svg>
