<svg width="1092" height="96" viewBox="0 0 1092 96" fill="none" xmlns="http://www.w3.org/2000/svg">
<rect x="0.5" y="0.5" width="1091" height="95" rx="7.5" fill="white" stroke="#E0E0E0"/>
<path d="M97.728 38.816H104.448C105.184 38.816 105.872 38.936 106.512 39.176C107.152 39.4 107.704 39.72 108.168 40.136C108.648 40.536 109.024 41.008 109.296 41.552C109.568 42.096 109.704 42.68 109.704 43.304C109.704 44.216 109.48 44.984 109.032 45.608C108.6 46.216 108.056 46.68 107.4 47V47.192C108.28 47.512 108.984 48.016 109.512 48.704C110.056 49.376 110.328 50.216 110.328 51.224C110.328 51.96 110.176 52.624 109.872 53.216C109.584 53.792 109.184 54.288 108.672 54.704C108.16 55.12 107.56 55.44 106.872 55.664C106.2 55.888 105.472 56 104.688 56H97.728V38.816ZM104.208 45.824C104.96 45.824 105.536 45.624 105.936 45.224C106.352 44.808 106.56 44.32 106.56 43.76C106.56 43.2 106.36 42.72 105.96 42.32C105.56 41.92 105.008 41.72 104.304 41.72H100.968V45.824H104.208ZM104.568 53.024C105.384 53.024 106.008 52.824 106.44 52.424C106.872 52.008 107.088 51.48 107.088 50.84C107.088 50.2 106.864 49.672 106.416 49.256C105.984 48.824 105.336 48.608 104.472 48.608H100.968V53.024H104.568ZM119.686 54.752H119.494C119.126 55.2 118.678 55.584 118.15 55.904C117.638 56.224 116.974 56.384 116.158 56.384C115.55 56.384 114.974 56.28 114.43 56.072C113.902 55.88 113.438 55.608 113.038 55.256C112.638 54.904 112.326 54.48 112.102 53.984C111.878 53.488 111.766 52.944 111.766 52.352C111.766 51.744 111.886 51.2 112.126 50.72C112.366 50.224 112.702 49.8 113.134 49.448C113.566 49.096 114.07 48.832 114.646 48.656C115.238 48.464 115.878 48.368 116.566 48.368C117.334 48.368 117.966 48.432 118.462 48.56C118.958 48.672 119.366 48.792 119.686 48.92V48.56C119.686 47.936 119.438 47.424 118.942 47.024C118.446 46.608 117.83 46.4 117.094 46.4C116.006 46.4 115.086 46.856 114.334 47.768L112.054 46.208C113.302 44.64 115.006 43.856 117.166 43.856C118.99 43.856 120.382 44.288 121.342 45.152C122.302 46 122.782 47.264 122.782 48.944V56H119.686V54.752ZM119.686 51.224C119.318 51.048 118.934 50.912 118.534 50.816C118.15 50.704 117.726 50.648 117.262 50.648C116.51 50.648 115.926 50.816 115.51 51.152C115.11 51.472 114.91 51.872 114.91 52.352C114.91 52.832 115.102 53.216 115.486 53.504C115.886 53.792 116.342 53.936 116.854 53.936C117.27 53.936 117.654 53.864 118.006 53.72C118.358 53.56 118.654 53.36 118.894 53.12C119.15 52.864 119.342 52.576 119.47 52.256C119.614 51.92 119.686 51.576 119.686 51.224ZM128.234 45.776H128.426C128.794 45.184 129.29 44.72 129.914 44.384C130.538 44.032 131.25 43.856 132.05 43.856C132.786 43.856 133.434 43.976 133.994 44.216C134.554 44.456 135.01 44.8 135.362 45.248C135.73 45.68 136.002 46.208 136.178 46.832C136.37 47.44 136.466 48.12 136.466 48.872V56H133.322V49.256C133.322 48.408 133.13 47.784 132.746 47.384C132.378 46.968 131.834 46.76 131.114 46.76C130.682 46.76 130.298 46.856 129.962 47.048C129.642 47.224 129.362 47.472 129.122 47.792C128.898 48.096 128.722 48.464 128.594 48.896C128.482 49.312 128.426 49.76 128.426 50.24V56H125.282V44.24H128.234V45.776ZM139.749 46.928H137.685V44.24H139.749V40.64H142.893V44.24H145.773V46.928H142.893V51.488C142.893 51.76 142.917 52.016 142.965 52.256C143.029 52.48 143.141 52.672 143.301 52.832C143.525 53.088 143.845 53.216 144.261 53.216C144.533 53.216 144.749 53.192 144.909 53.144C145.069 53.08 145.221 53 145.365 52.904L146.253 55.664C145.885 55.84 145.485 55.968 145.053 56.048C144.637 56.144 144.173 56.192 143.661 56.192C143.069 56.192 142.533 56.104 142.053 55.928C141.589 55.736 141.197 55.48 140.877 55.16C140.125 54.44 139.749 53.416 139.749 52.088V46.928ZM156.222 54.464H156.03C155.662 55.056 155.166 55.528 154.542 55.88C153.918 56.216 153.206 56.384 152.406 56.384C150.918 56.384 149.806 55.928 149.07 55.016C148.35 54.104 147.99 52.888 147.99 51.368V44.24H151.134V50.984C151.134 51.832 151.318 52.464 151.686 52.88C152.07 53.28 152.622 53.48 153.342 53.48C153.774 53.48 154.15 53.392 154.47 53.216C154.806 53.024 155.086 52.776 155.31 52.472C155.55 52.152 155.726 51.784 155.838 51.368C155.966 50.936 156.03 50.48 156.03 50V44.24H159.174V56H156.222V54.464ZM168.998 54.752H168.806C168.438 55.2 167.99 55.584 167.462 55.904C166.95 56.224 166.286 56.384 165.47 56.384C164.862 56.384 164.286 56.28 163.742 56.072C163.214 55.88 162.75 55.608 162.35 55.256C161.95 54.904 161.638 54.48 161.414 53.984C161.19 53.488 161.078 52.944 161.078 52.352C161.078 51.744 161.198 51.2 161.438 50.72C161.678 50.224 162.014 49.8 162.446 49.448C162.878 49.096 163.382 48.832 163.958 48.656C164.55 48.464 165.19 48.368 165.878 48.368C166.646 48.368 167.278 48.432 167.774 48.56C168.27 48.672 168.678 48.792 168.998 48.92V48.56C168.998 47.936 168.75 47.424 168.254 47.024C167.758 46.608 167.142 46.4 166.406 46.4C165.318 46.4 164.398 46.856 163.646 47.768L161.366 46.208C162.614 44.64 164.318 43.856 166.478 43.856C168.302 43.856 169.694 44.288 170.654 45.152C171.614 46 172.094 47.264 172.094 48.944V56H168.998V54.752ZM168.998 51.224C168.63 51.048 168.246 50.912 167.846 50.816C167.462 50.704 167.038 50.648 166.574 50.648C165.822 50.648 165.238 50.816 164.822 51.152C164.422 51.472 164.222 51.872 164.222 52.352C164.222 52.832 164.414 53.216 164.798 53.504C165.198 53.792 165.654 53.936 166.166 53.936C166.582 53.936 166.966 53.864 167.318 53.72C167.67 53.56 167.966 53.36 168.206 53.12C168.462 52.864 168.654 52.576 168.782 52.256C168.926 51.92 168.998 51.576 168.998 51.224ZM177.546 45.776H177.738C178.106 45.184 178.602 44.72 179.226 44.384C179.85 44.032 180.562 43.856 181.362 43.856C182.098 43.856 182.746 43.976 183.306 44.216C183.866 44.456 184.322 44.8 184.674 45.248C185.042 45.68 185.314 46.208 185.49 46.832C185.682 47.44 185.778 48.12 185.778 48.872V56H182.634V49.256C182.634 48.408 182.442 47.784 182.058 47.384C181.69 46.968 181.146 46.76 180.426 46.76C179.994 46.76 179.61 46.856 179.274 47.048C178.954 47.224 178.674 47.472 178.434 47.792C178.21 48.096 178.034 48.464 177.906 48.896C177.794 49.312 177.738 49.76 177.738 50.24V56H174.594V44.24H177.546V45.776ZM198.562 56.384C197.826 56.384 197.122 56.28 196.45 56.072C195.778 55.864 195.162 55.552 194.602 55.136C194.042 54.72 193.554 54.216 193.138 53.624C192.722 53.016 192.394 52.312 192.154 51.512L195.202 50.312C195.426 51.176 195.818 51.896 196.378 52.472C196.938 53.032 197.674 53.312 198.586 53.312C198.922 53.312 199.242 53.272 199.546 53.192C199.866 53.096 200.146 52.968 200.386 52.808C200.642 52.632 200.842 52.416 200.986 52.16C201.13 51.904 201.202 51.608 201.202 51.272C201.202 50.952 201.146 50.664 201.034 50.408C200.922 50.152 200.73 49.912 200.458 49.688C200.202 49.464 199.858 49.248 199.426 49.04C199.01 48.832 198.49 48.616 197.866 48.392L196.81 48.008C196.346 47.848 195.874 47.632 195.394 47.36C194.93 47.088 194.506 46.76 194.122 46.376C193.738 45.992 193.418 45.544 193.162 45.032C192.922 44.504 192.802 43.912 192.802 43.256C192.802 42.584 192.93 41.96 193.186 41.384C193.458 40.792 193.834 40.28 194.314 39.848C194.81 39.4 195.394 39.056 196.066 38.816C196.754 38.56 197.514 38.432 198.346 38.432C199.21 38.432 199.954 38.552 200.578 38.792C201.218 39.016 201.754 39.312 202.186 39.68C202.634 40.032 202.994 40.424 203.266 40.856C203.538 41.288 203.738 41.696 203.866 42.08L201.01 43.28C200.85 42.8 200.554 42.368 200.122 41.984C199.706 41.6 199.13 41.408 198.394 41.408C197.69 41.408 197.106 41.576 196.642 41.912C196.178 42.232 195.946 42.656 195.946 43.184C195.946 43.696 196.17 44.136 196.618 44.504C197.066 44.856 197.778 45.2 198.754 45.536L199.834 45.896C200.522 46.136 201.146 46.416 201.706 46.736C202.282 47.04 202.77 47.408 203.17 47.84C203.586 48.272 203.898 48.768 204.106 49.328C204.33 49.872 204.442 50.504 204.442 51.224C204.442 52.12 204.258 52.896 203.89 53.552C203.538 54.192 203.082 54.72 202.522 55.136C201.962 55.552 201.33 55.864 200.626 56.072C199.922 56.28 199.234 56.384 198.562 56.384ZM212.295 43.856C213.207 43.856 214.039 44.016 214.791 44.336C215.559 44.64 216.215 45.072 216.759 45.632C217.319 46.176 217.751 46.832 218.055 47.6C218.375 48.368 218.535 49.208 218.535 50.12C218.535 51.032 218.375 51.872 218.055 52.64C217.751 53.408 217.319 54.072 216.759 54.632C216.215 55.176 215.559 55.608 214.791 55.928C214.039 56.232 213.207 56.384 212.295 56.384C211.383 56.384 210.543 56.232 209.775 55.928C209.023 55.608 208.367 55.176 207.807 54.632C207.263 54.072 206.831 53.408 206.511 52.64C206.207 51.872 206.055 51.032 206.055 50.12C206.055 49.208 206.207 48.368 206.511 47.6C206.831 46.832 207.263 46.176 207.807 45.632C208.367 45.072 209.023 44.64 209.775 44.336C210.543 44.016 211.383 43.856 212.295 43.856ZM212.295 53.48C212.695 53.48 213.079 53.408 213.447 53.264C213.831 53.104 214.167 52.88 214.455 52.592C214.743 52.304 214.967 51.952 215.127 51.536C215.303 51.12 215.391 50.648 215.391 50.12C215.391 49.592 215.303 49.12 215.127 48.704C214.967 48.288 214.743 47.936 214.455 47.648C214.167 47.36 213.831 47.144 213.447 47C213.079 46.84 212.695 46.76 212.295 46.76C211.879 46.76 211.487 46.84 211.119 47C210.751 47.144 210.423 47.36 210.135 47.648C209.847 47.936 209.615 48.288 209.439 48.704C209.279 49.12 209.199 49.592 209.199 50.12C209.199 50.648 209.279 51.12 209.439 51.536C209.615 51.952 209.847 52.304 210.135 52.592C210.423 52.88 210.751 53.104 211.119 53.264C211.487 53.408 211.879 53.48 212.295 53.48ZM225.094 56.384C224.326 56.384 223.638 56.288 223.03 56.096C222.438 55.904 221.918 55.656 221.47 55.352C221.038 55.032 220.67 54.672 220.366 54.272C220.062 53.856 219.83 53.44 219.67 53.024L222.478 51.824C222.75 52.432 223.11 52.888 223.558 53.192C224.022 53.48 224.534 53.624 225.094 53.624C225.67 53.624 226.126 53.52 226.462 53.312C226.798 53.104 226.966 52.856 226.966 52.568C226.966 52.248 226.822 51.992 226.534 51.8C226.262 51.592 225.782 51.408 225.094 51.248L223.438 50.888C223.07 50.808 222.686 50.68 222.286 50.504C221.902 50.328 221.55 50.104 221.23 49.832C220.91 49.56 220.646 49.232 220.438 48.848C220.23 48.464 220.126 48.016 220.126 47.504C220.126 46.928 220.246 46.416 220.486 45.968C220.742 45.52 221.086 45.144 221.518 44.84C221.95 44.52 222.454 44.28 223.03 44.12C223.622 43.944 224.254 43.856 224.926 43.856C226.046 43.856 227.046 44.08 227.926 44.528C228.806 44.96 229.454 45.656 229.87 46.616L227.158 47.72C226.934 47.256 226.606 46.92 226.174 46.712C225.742 46.504 225.31 46.4 224.878 46.4C224.43 46.4 224.038 46.496 223.702 46.688C223.366 46.864 223.198 47.096 223.198 47.384C223.198 47.656 223.334 47.872 223.606 48.032C223.894 48.192 224.278 48.336 224.758 48.464L226.558 48.896C227.758 49.184 228.646 49.648 229.222 50.288C229.814 50.912 230.11 51.656 230.11 52.52C230.11 53.032 229.99 53.52 229.75 53.984C229.51 54.448 229.166 54.864 228.718 55.232C228.286 55.584 227.758 55.864 227.134 56.072C226.526 56.28 225.846 56.384 225.094 56.384ZM233.674 42.536C233.402 42.536 233.138 42.488 232.882 42.392C232.642 42.28 232.426 42.136 232.234 41.96C232.058 41.768 231.914 41.552 231.802 41.312C231.706 41.072 231.658 40.808 231.658 40.52C231.658 40.232 231.706 39.968 231.802 39.728C231.914 39.488 232.058 39.28 232.234 39.104C232.426 38.912 232.642 38.768 232.882 38.672C233.138 38.56 233.402 38.504 233.674 38.504C234.234 38.504 234.714 38.704 235.114 39.104C235.514 39.488 235.714 39.96 235.714 40.52C235.714 41.08 235.514 41.56 235.114 41.96C234.714 42.344 234.234 42.536 233.674 42.536ZM232.114 56V44.24H235.258V56H232.114ZM245.264 54.752H245.072C244.704 55.2 244.256 55.584 243.728 55.904C243.216 56.224 242.552 56.384 241.736 56.384C241.128 56.384 240.552 56.28 240.008 56.072C239.48 55.88 239.016 55.608 238.616 55.256C238.216 54.904 237.904 54.48 237.68 53.984C237.456 53.488 237.344 52.944 237.344 52.352C237.344 51.744 237.464 51.2 237.704 50.72C237.944 50.224 238.28 49.8 238.712 49.448C239.144 49.096 239.648 48.832 240.224 48.656C240.816 48.464 241.456 48.368 242.144 48.368C242.912 48.368 243.544 48.432 244.04 48.56C244.536 48.672 244.944 48.792 245.264 48.92V48.56C245.264 47.936 245.016 47.424 244.52 47.024C244.024 46.608 243.408 46.4 242.672 46.4C241.584 46.4 240.664 46.856 239.912 47.768L237.632 46.208C238.88 44.64 240.584 43.856 242.744 43.856C244.568 43.856 245.96 44.288 246.92 45.152C247.88 46 248.36 47.264 248.36 48.944V56H245.264V54.752ZM245.264 51.224C244.896 51.048 244.512 50.912 244.112 50.816C243.728 50.704 243.304 50.648 242.84 50.648C242.088 50.648 241.504 50.816 241.088 51.152C240.688 51.472 240.488 51.872 240.488 52.352C240.488 52.832 240.68 53.216 241.064 53.504C241.464 53.792 241.92 53.936 242.432 53.936C242.848 53.936 243.232 53.864 243.584 53.72C243.936 53.56 244.232 53.36 244.472 53.12C244.728 52.864 244.92 52.576 245.048 52.256C245.192 51.92 245.264 51.576 245.264 51.224ZM250.86 56V38.816H254.004V56H250.86ZM262.353 38.816H265.593V46.184H265.785L272.073 38.816H275.985V39.008L269.769 46.112L276.633 55.808V56H272.673L267.561 48.68L265.593 50.96V56H262.353V38.816ZM283.123 43.856C284.035 43.856 284.867 44.016 285.619 44.336C286.387 44.64 287.043 45.072 287.587 45.632C288.147 46.176 288.579 46.832 288.883 47.6C289.203 48.368 289.363 49.208 289.363 50.12C289.363 51.032 289.203 51.872 288.883 52.64C288.579 53.408 288.147 54.072 287.587 54.632C287.043 55.176 286.387 55.608 285.619 55.928C284.867 56.232 284.035 56.384 283.123 56.384C282.211 56.384 281.371 56.232 280.603 55.928C279.851 55.608 279.195 55.176 278.635 54.632C278.091 54.072 277.659 53.408 277.339 52.64C277.035 51.872 276.883 51.032 276.883 50.12C276.883 49.208 277.035 48.368 277.339 47.6C277.659 46.832 278.091 46.176 278.635 45.632C279.195 45.072 279.851 44.64 280.603 44.336C281.371 44.016 282.211 43.856 283.123 43.856ZM283.123 53.48C283.523 53.48 283.907 53.408 284.275 53.264C284.659 53.104 284.995 52.88 285.283 52.592C285.571 52.304 285.795 51.952 285.955 51.536C286.131 51.12 286.219 50.648 286.219 50.12C286.219 49.592 286.131 49.12 285.955 48.704C285.795 48.288 285.571 47.936 285.283 47.648C284.995 47.36 284.659 47.144 284.275 47C283.907 46.84 283.523 46.76 283.123 46.76C282.707 46.76 282.315 46.84 281.947 47C281.579 47.144 281.251 47.36 280.963 47.648C280.675 47.936 280.443 48.288 280.267 48.704C280.107 49.12 280.027 49.592 280.027 50.12C280.027 50.648 280.107 51.12 280.267 51.536C280.443 51.952 280.675 52.304 280.963 52.592C281.251 52.88 281.579 53.104 281.947 53.264C282.315 53.408 282.707 53.48 283.123 53.48ZM292.328 46.928H290.264V44.24H292.328V40.64H295.472V44.24H298.352V46.928H295.472V51.488C295.472 51.76 295.496 52.016 295.544 52.256C295.608 52.48 295.72 52.672 295.88 52.832C296.104 53.088 296.424 53.216 296.84 53.216C297.112 53.216 297.328 53.192 297.488 53.144C297.648 53.08 297.8 53 297.944 52.904L298.832 55.664C298.464 55.84 298.064 55.968 297.632 56.048C297.216 56.144 296.752 56.192 296.24 56.192C295.648 56.192 295.112 56.104 294.632 55.928C294.168 55.736 293.776 55.48 293.456 55.16C292.704 54.44 292.328 53.416 292.328 52.088V46.928ZM307.678 54.752H307.486C307.118 55.2 306.67 55.584 306.142 55.904C305.63 56.224 304.966 56.384 304.15 56.384C303.542 56.384 302.966 56.28 302.422 56.072C301.894 55.88 301.43 55.608 301.03 55.256C300.63 54.904 300.318 54.48 300.094 53.984C299.87 53.488 299.758 52.944 299.758 52.352C299.758 51.744 299.878 51.2 300.118 50.72C300.358 50.224 300.694 49.8 301.126 49.448C301.558 49.096 302.062 48.832 302.638 48.656C303.23 48.464 303.87 48.368 304.558 48.368C305.326 48.368 305.958 48.432 306.454 48.56C306.95 48.672 307.358 48.792 307.678 48.92V48.56C307.678 47.936 307.43 47.424 306.934 47.024C306.438 46.608 305.822 46.4 305.086 46.4C303.998 46.4 303.078 46.856 302.326 47.768L300.046 46.208C301.294 44.64 302.998 43.856 305.158 43.856C306.982 43.856 308.374 44.288 309.334 45.152C310.294 46 310.774 47.264 310.774 48.944V56H307.678V54.752ZM307.678 51.224C307.31 51.048 306.926 50.912 306.526 50.816C306.142 50.704 305.718 50.648 305.254 50.648C304.502 50.648 303.918 50.816 303.502 51.152C303.102 51.472 302.902 51.872 302.902 52.352C302.902 52.832 303.094 53.216 303.478 53.504C303.878 53.792 304.334 53.936 304.846 53.936C305.262 53.936 305.646 53.864 305.998 53.72C306.35 53.56 306.646 53.36 306.886 53.12C307.142 52.864 307.334 52.576 307.462 52.256C307.606 51.92 307.678 51.576 307.678 51.224ZM317.851 56L324.979 38.816H328.075L320.947 56H317.851ZM335.736 38.816H338.976V46.184H339.168L345.456 38.816H349.368V39.008L343.152 46.112L350.016 55.808V56H346.056L340.944 48.68L338.976 50.96V56H335.736V38.816ZM358.42 54.752H358.228C357.86 55.2 357.412 55.584 356.884 55.904C356.372 56.224 355.708 56.384 354.892 56.384C354.284 56.384 353.708 56.28 353.164 56.072C352.636 55.88 352.172 55.608 351.772 55.256C351.372 54.904 351.06 54.48 350.836 53.984C350.612 53.488 350.5 52.944 350.5 52.352C350.5 51.744 350.62 51.2 350.86 50.72C351.1 50.224 351.436 49.8 351.868 49.448C352.3 49.096 352.804 48.832 353.38 48.656C353.972 48.464 354.612 48.368 355.3 48.368C356.068 48.368 356.7 48.432 357.196 48.56C357.692 48.672 358.1 48.792 358.42 48.92V48.56C358.42 47.936 358.172 47.424 357.676 47.024C357.18 46.608 356.564 46.4 355.828 46.4C354.74 46.4 353.82 46.856 353.068 47.768L350.788 46.208C352.036 44.64 353.74 43.856 355.9 43.856C357.724 43.856 359.116 44.288 360.076 45.152C361.036 46 361.516 47.264 361.516 48.944V56H358.42V54.752ZM358.42 51.224C358.052 51.048 357.668 50.912 357.268 50.816C356.884 50.704 356.46 50.648 355.996 50.648C355.244 50.648 354.66 50.816 354.244 51.152C353.844 51.472 353.644 51.872 353.644 52.352C353.644 52.832 353.836 53.216 354.22 53.504C354.62 53.792 355.076 53.936 355.588 53.936C356.004 53.936 356.388 53.864 356.74 53.72C357.092 53.56 357.388 53.36 357.628 53.12C357.884 52.864 358.076 52.576 358.204 52.256C358.348 51.92 358.42 51.576 358.42 51.224ZM364.016 38.816H367.16V43.976L366.968 45.656H367.16C367.448 45.16 367.896 44.736 368.504 44.384C369.112 44.032 369.864 43.856 370.76 43.856C371.512 43.856 372.224 44.016 372.896 44.336C373.584 44.64 374.184 45.072 374.696 45.632C375.224 46.176 375.64 46.832 375.944 47.6C376.248 48.368 376.4 49.208 376.4 50.12C376.4 51.032 376.248 51.872 375.944 52.64C375.64 53.408 375.224 54.072 374.696 54.632C374.184 55.176 373.584 55.608 372.896 55.928C372.224 56.232 371.512 56.384 370.76 56.384C369.864 56.384 369.112 56.208 368.504 55.856C367.896 55.504 367.448 55.08 367.16 54.584H366.968V56H364.016V38.816ZM370.112 53.48C370.528 53.48 370.92 53.4 371.288 53.24C371.672 53.08 372.008 52.856 372.296 52.568C372.584 52.28 372.816 51.928 372.992 51.512C373.168 51.096 373.256 50.632 373.256 50.12C373.256 49.608 373.168 49.144 372.992 48.728C372.816 48.312 372.584 47.96 372.296 47.672C372.008 47.384 371.672 47.16 371.288 47C370.92 46.84 370.528 46.76 370.112 46.76C369.696 46.76 369.296 46.84 368.912 47C368.544 47.144 368.216 47.36 367.928 47.648C367.64 47.936 367.408 48.288 367.232 48.704C367.056 49.12 366.968 49.592 366.968 50.12C366.968 50.648 367.056 51.12 367.232 51.536C367.408 51.952 367.64 52.304 367.928 52.592C368.216 52.88 368.544 53.104 368.912 53.264C369.296 53.408 369.696 53.48 370.112 53.48ZM386.425 54.464H386.233C385.865 55.056 385.369 55.528 384.745 55.88C384.121 56.216 383.409 56.384 382.609 56.384C381.121 56.384 380.009 55.928 379.273 55.016C378.553 54.104 378.193 52.888 378.193 51.368V44.24H381.337V50.984C381.337 51.832 381.521 52.464 381.889 52.88C382.273 53.28 382.825 53.48 383.545 53.48C383.977 53.48 384.353 53.392 384.673 53.216C385.009 53.024 385.289 52.776 385.513 52.472C385.753 52.152 385.929 51.784 386.041 51.368C386.169 50.936 386.233 50.48 386.233 50V44.24H389.377V56H386.425V54.464ZM391.975 44.24H394.927V45.656H395.119C395.407 45.16 395.855 44.736 396.463 44.384C397.071 44.032 397.823 43.856 398.719 43.856C399.471 43.856 400.183 44.016 400.855 44.336C401.543 44.64 402.143 45.072 402.655 45.632C403.183 46.176 403.599 46.832 403.903 47.6C404.207 48.368 404.359 49.208 404.359 50.12C404.359 51.032 404.207 51.872 403.903 52.64C403.599 53.408 403.183 54.072 402.655 54.632C402.143 55.176 401.543 55.608 400.855 55.928C400.183 56.232 399.471 56.384 398.719 56.384C397.823 56.384 397.071 56.208 396.463 55.856C395.855 55.504 395.407 55.08 395.119 54.584H394.927L395.119 56.264V61.184H391.975V44.24ZM398.071 53.48C398.487 53.48 398.879 53.4 399.247 53.24C399.631 53.08 399.967 52.856 400.255 52.568C400.543 52.28 400.775 51.928 400.951 51.512C401.127 51.096 401.215 50.632 401.215 50.12C401.215 49.608 401.127 49.144 400.951 48.728C400.775 48.312 400.543 47.96 400.255 47.672C399.967 47.384 399.631 47.16 399.247 47C398.879 46.84 398.487 46.76 398.071 46.76C397.655 46.76 397.255 46.84 396.871 47C396.503 47.144 396.175 47.36 395.887 47.648C395.599 47.936 395.367 48.288 395.191 48.704C395.015 49.12 394.927 49.592 394.927 50.12C394.927 50.648 395.015 51.12 395.191 51.536C395.367 51.952 395.599 52.304 395.887 52.592C396.175 52.88 396.503 53.104 396.871 53.264C397.255 53.408 397.655 53.48 398.071 53.48ZM413.615 54.752H413.423C413.055 55.2 412.607 55.584 412.079 55.904C411.567 56.224 410.903 56.384 410.087 56.384C409.479 56.384 408.903 56.28 408.359 56.072C407.831 55.88 407.367 55.608 406.967 55.256C406.567 54.904 406.255 54.48 406.031 53.984C405.807 53.488 405.695 52.944 405.695 52.352C405.695 51.744 405.815 51.2 406.055 50.72C406.295 50.224 406.631 49.8 407.063 49.448C407.495 49.096 407.999 48.832 408.575 48.656C409.167 48.464 409.807 48.368 410.495 48.368C411.263 48.368 411.895 48.432 412.391 48.56C412.887 48.672 413.295 48.792 413.615 48.92V48.56C413.615 47.936 413.367 47.424 412.871 47.024C412.375 46.608 411.759 46.4 411.023 46.4C409.935 46.4 409.015 46.856 408.263 47.768L405.983 46.208C407.231 44.64 408.935 43.856 411.095 43.856C412.919 43.856 414.311 44.288 415.271 45.152C416.231 46 416.711 47.264 416.711 48.944V56H413.615V54.752ZM413.615 51.224C413.247 51.048 412.863 50.912 412.463 50.816C412.079 50.704 411.655 50.648 411.191 50.648C410.439 50.648 409.855 50.816 409.439 51.152C409.039 51.472 408.839 51.872 408.839 52.352C408.839 52.832 409.031 53.216 409.415 53.504C409.815 53.792 410.271 53.936 410.783 53.936C411.199 53.936 411.583 53.864 411.935 53.72C412.287 53.56 412.583 53.36 412.823 53.12C413.079 52.864 413.271 52.576 413.399 52.256C413.543 51.92 413.615 51.576 413.615 51.224ZM420.273 46.928H418.209V44.24H420.273V40.64H423.417V44.24H426.297V46.928H423.417V51.488C423.417 51.76 423.441 52.016 423.489 52.256C423.553 52.48 423.665 52.672 423.825 52.832C424.049 53.088 424.369 53.216 424.785 53.216C425.057 53.216 425.273 53.192 425.433 53.144C425.593 53.08 425.745 53 425.889 52.904L426.777 55.664C426.409 55.84 426.009 55.968 425.577 56.048C425.161 56.144 424.697 56.192 424.185 56.192C423.593 56.192 423.057 56.104 422.577 55.928C422.113 55.736 421.721 55.48 421.401 55.16C420.649 54.44 420.273 53.416 420.273 52.088V46.928ZM439.628 53.168C439.084 54.128 438.348 54.904 437.42 55.496C436.508 56.088 435.388 56.384 434.06 56.384C433.164 56.384 432.332 56.232 431.564 55.928C430.812 55.608 430.156 55.168 429.596 54.608C429.036 54.048 428.596 53.392 428.276 52.64C427.972 51.872 427.82 51.032 427.82 50.12C427.82 49.272 427.972 48.472 428.276 47.72C428.58 46.952 429.004 46.288 429.548 45.728C430.092 45.152 430.732 44.696 431.468 44.36C432.22 44.024 433.044 43.856 433.94 43.856C434.884 43.856 435.724 44.016 436.46 44.336C437.196 44.64 437.812 45.072 438.308 45.632C438.804 46.176 439.18 46.824 439.436 47.576C439.692 48.328 439.82 49.144 439.82 50.024C439.82 50.136 439.82 50.232 439.82 50.312C439.804 50.408 439.796 50.496 439.796 50.576C439.78 50.656 439.772 50.744 439.772 50.84H430.916C430.98 51.32 431.108 51.736 431.3 52.088C431.508 52.424 431.756 52.712 432.044 52.952C432.348 53.176 432.676 53.344 433.028 53.456C433.38 53.552 433.74 53.6 434.108 53.6C434.828 53.6 435.42 53.44 435.884 53.12C436.364 52.784 436.74 52.368 437.012 51.872L439.628 53.168ZM436.772 48.608C436.756 48.4 436.684 48.168 436.556 47.912C436.444 47.656 436.268 47.416 436.028 47.192C435.804 46.968 435.516 46.784 435.164 46.64C434.828 46.496 434.42 46.424 433.94 46.424C433.268 46.424 432.676 46.616 432.164 47C431.652 47.384 431.292 47.92 431.084 48.608H436.772ZM444.78 45.776H444.972C445.34 45.184 445.836 44.72 446.46 44.384C447.084 44.032 447.796 43.856 448.596 43.856C449.332 43.856 449.98 43.976 450.54 44.216C451.1 44.456 451.556 44.8 451.908 45.248C452.276 45.68 452.548 46.208 452.724 46.832C452.916 47.44 453.012 48.12 453.012 48.872V56H449.868V49.256C449.868 48.408 449.676 47.784 449.292 47.384C448.924 46.968 448.38 46.76 447.66 46.76C447.228 46.76 446.844 46.856 446.508 47.048C446.188 47.224 445.908 47.472 445.668 47.792C445.444 48.096 445.268 48.464 445.14 48.896C445.028 49.312 444.972 49.76 444.972 50.24V56H441.828V44.24H444.78V45.776Z" fill="#333333"/>
<circle cx="48" cy="48" r="24" fill="#FCF1CF"/>
<g clip-path="url(#clip0)">
<path d="M59.2493 47.84C58.4468 47.1787 57.1785 47.1219 56.346 48.0153L54.2794 50.2338C54.0122 49.3751 53.2103 48.7498 52.2649 48.7498H48.577C48.2971 48.7498 48.2034 48.6429 47.7173 48.2685C45.864 46.6528 43.0803 46.6579 41.2326 48.2839L39.877 49.4773C39.2677 49.1548 38.5562 49.1468 37.9435 49.4529L36.3888 50.23C36.0414 50.4039 35.9009 50.8262 36.0743 51.1736L40.2928 59.6106C40.4667 59.9579 40.889 60.0985 41.2363 59.9251L42.7911 59.1475C43.5574 58.7646 43.9839 57.9827 43.9563 57.1868H52.2648C53.8055 57.1868 55.2778 56.451 56.2021 55.2182L59.5774 50.7176C60.2322 49.8452 60.1286 48.5661 59.2493 47.84ZM42.162 57.8899L41.2363 58.353L37.6463 51.1736L38.5725 50.7105C38.9199 50.5371 39.3417 50.6772 39.5156 51.025L42.4765 56.9468C42.65 57.2941 42.5093 57.716 42.162 57.8899ZM58.4524 49.8738L55.0772 54.3745C54.4168 55.2552 53.3654 55.7806 52.2649 55.7806H43.4655L40.8308 50.5108L42.1615 49.3395C43.4857 48.1747 45.4824 48.1747 46.8066 49.3395C47.5865 50.0262 48.0716 50.156 48.5769 50.156H52.2648C52.6525 50.156 52.9679 50.4715 52.9679 50.8591C52.9679 51.2467 52.6524 51.5622 52.2648 51.5622H48.674C48.2858 51.5622 47.9709 51.8772 47.9709 52.2653C47.9709 52.6533 48.2859 52.9683 48.674 52.9683H52.7359C53.3195 52.9683 53.882 52.7236 54.2794 52.2967L57.3749 48.9739C57.658 48.6701 58.092 48.6954 58.3583 48.9284C58.6366 49.1721 58.6667 49.5888 58.4524 49.8738Z" fill="#F2C94C"/>
<path d="M50.7836 40.7986C51.265 40.2938 51.5617 39.6113 51.5617 38.8599C51.5617 37.3122 50.3112 36.0007 48.7494 36.0007C47.1993 36.0007 45.8902 37.3099 45.8902 38.8599C45.8902 39.5883 46.1757 40.2759 46.6941 40.8042C45.4084 41.5251 44.4841 42.9087 44.4841 44.5315V45.2345C44.4841 45.6226 44.7991 45.9376 45.1871 45.9376H52.2648C52.6529 45.9376 52.9679 45.6226 52.9679 45.2345V44.5315C52.9679 42.9406 52.0929 41.5354 50.7836 40.7986ZM48.7494 37.4069C49.5115 37.4069 50.1556 38.0725 50.1556 38.86C50.1556 39.6352 49.5247 40.2661 48.7494 40.2661C47.962 40.2661 47.2964 39.6221 47.2964 38.86C47.2964 38.0861 47.9755 37.4069 48.7494 37.4069ZM45.8902 44.5315C45.8902 42.9814 47.1993 41.6723 48.7494 41.6723C50.2999 41.6723 51.5617 42.9547 51.5617 44.5315H45.8902Z" fill="#F2C94C"/>
</g>
<defs>
<clipPath id="clip0">
<rect x="36" y="36" width="24" height="24" fill="white"/>
</clipPath>
</defs>
</svg>
