<svg width="1092" height="96" viewBox="0 0 1092 96" fill="none" xmlns="http://www.w3.org/2000/svg">
<rect x="0.5" y="0.5" width="1091" height="95" rx="7.5" fill="white" stroke="#E0E0E0"/>
<path d="M97.728 39.816H103.536C104.896 39.816 106.12 40.024 107.208 40.44C108.296 40.856 109.224 41.448 109.992 42.216C110.76 42.968 111.344 43.872 111.744 44.928C112.16 45.984 112.368 47.144 112.368 48.408C112.368 49.688 112.16 50.856 111.744 51.912C111.344 52.968 110.76 53.872 109.992 54.624C109.224 55.376 108.296 55.96 107.208 56.376C106.12 56.792 104.896 57 103.536 57H97.728V39.816ZM103.392 53.928C104.336 53.928 105.168 53.8 105.888 53.544C106.608 53.272 107.208 52.896 107.688 52.416C108.168 51.936 108.528 51.36 108.768 50.688C109.008 50 109.128 49.24 109.128 48.408C109.128 47.576 109.008 46.824 108.768 46.152C108.528 45.464 108.168 44.88 107.688 44.4C107.208 43.92 106.608 43.552 105.888 43.296C105.168 43.024 104.336 42.888 103.392 42.888H100.968V53.928H103.392ZM121.842 55.752H121.65C121.282 56.2 120.834 56.584 120.306 56.904C119.794 57.224 119.13 57.384 118.314 57.384C117.706 57.384 117.13 57.28 116.586 57.072C116.058 56.88 115.594 56.608 115.194 56.256C114.794 55.904 114.482 55.48 114.258 54.984C114.034 54.488 113.922 53.944 113.922 53.352C113.922 52.744 114.042 52.2 114.282 51.72C114.522 51.224 114.858 50.8 115.29 50.448C115.722 50.096 116.226 49.832 116.802 49.656C117.394 49.464 118.034 49.368 118.722 49.368C119.49 49.368 120.122 49.432 120.618 49.56C121.114 49.672 121.522 49.792 121.842 49.92V49.56C121.842 48.936 121.594 48.424 121.098 48.024C120.602 47.608 119.986 47.4 119.25 47.4C118.162 47.4 117.242 47.856 116.49 48.768L114.21 47.208C115.458 45.64 117.162 44.856 119.322 44.856C121.146 44.856 122.538 45.288 123.498 46.152C124.458 47 124.938 48.264 124.938 49.944V57H121.842V55.752ZM121.842 52.224C121.474 52.048 121.09 51.912 120.69 51.816C120.306 51.704 119.882 51.648 119.418 51.648C118.666 51.648 118.082 51.816 117.666 52.152C117.266 52.472 117.066 52.872 117.066 53.352C117.066 53.832 117.258 54.216 117.642 54.504C118.042 54.792 118.498 54.936 119.01 54.936C119.426 54.936 119.81 54.864 120.162 54.72C120.514 54.56 120.81 54.36 121.05 54.12C121.306 53.864 121.498 53.576 121.626 53.256C121.77 52.92 121.842 52.576 121.842 52.224ZM130.39 46.776H130.582C130.95 46.184 131.446 45.72 132.07 45.384C132.694 45.032 133.406 44.856 134.206 44.856C134.942 44.856 135.59 44.976 136.15 45.216C136.71 45.456 137.166 45.8 137.518 46.248C137.886 46.68 138.158 47.208 138.334 47.832C138.526 48.44 138.622 49.12 138.622 49.872V57H135.478V50.256C135.478 49.408 135.286 48.784 134.902 48.384C134.534 47.968 133.99 47.76 133.27 47.76C132.838 47.76 132.454 47.856 132.118 48.048C131.798 48.224 131.518 48.472 131.278 48.792C131.054 49.096 130.878 49.464 130.75 49.896C130.638 50.312 130.582 50.76 130.582 51.24V57H127.438V45.24H130.39V46.776ZM148.35 55.752H148.158C147.79 56.2 147.342 56.584 146.814 56.904C146.302 57.224 145.638 57.384 144.822 57.384C144.214 57.384 143.638 57.28 143.094 57.072C142.566 56.88 142.102 56.608 141.702 56.256C141.302 55.904 140.99 55.48 140.766 54.984C140.542 54.488 140.43 53.944 140.43 53.352C140.43 52.744 140.55 52.2 140.79 51.72C141.03 51.224 141.366 50.8 141.798 50.448C142.23 50.096 142.734 49.832 143.31 49.656C143.902 49.464 144.542 49.368 145.23 49.368C145.998 49.368 146.63 49.432 147.126 49.56C147.622 49.672 148.03 49.792 148.35 49.92V49.56C148.35 48.936 148.102 48.424 147.606 48.024C147.11 47.608 146.494 47.4 145.758 47.4C144.67 47.4 143.75 47.856 142.998 48.768L140.718 47.208C141.966 45.64 143.67 44.856 145.83 44.856C147.654 44.856 149.046 45.288 150.006 46.152C150.966 47 151.446 48.264 151.446 49.944V57H148.35V55.752ZM148.35 52.224C147.982 52.048 147.598 51.912 147.198 51.816C146.814 51.704 146.39 51.648 145.926 51.648C145.174 51.648 144.59 51.816 144.174 52.152C143.774 52.472 143.574 52.872 143.574 53.352C143.574 53.832 143.766 54.216 144.15 54.504C144.55 54.792 145.006 54.936 145.518 54.936C145.934 54.936 146.318 54.864 146.67 54.72C147.022 54.56 147.318 54.36 147.558 54.12C147.814 53.864 148.006 53.576 148.134 53.256C148.278 52.92 148.35 52.576 148.35 52.224ZM159.603 39.816H165.411C166.771 39.816 167.995 40.024 169.083 40.44C170.171 40.856 171.099 41.448 171.867 42.216C172.635 42.968 173.219 43.872 173.619 44.928C174.035 45.984 174.243 47.144 174.243 48.408C174.243 49.688 174.035 50.856 173.619 51.912C173.219 52.968 172.635 53.872 171.867 54.624C171.099 55.376 170.171 55.96 169.083 56.376C167.995 56.792 166.771 57 165.411 57H159.603V39.816ZM165.267 53.928C166.211 53.928 167.043 53.8 167.763 53.544C168.483 53.272 169.083 52.896 169.563 52.416C170.043 51.936 170.403 51.36 170.643 50.688C170.883 50 171.003 49.24 171.003 48.408C171.003 47.576 170.883 46.824 170.643 46.152C170.403 45.464 170.043 44.88 169.563 44.4C169.083 43.92 168.483 43.552 167.763 43.296C167.043 43.024 166.211 42.888 165.267 42.888H162.843V53.928H165.267ZM187.253 54.168C186.709 55.128 185.973 55.904 185.045 56.496C184.133 57.088 183.013 57.384 181.685 57.384C180.789 57.384 179.957 57.232 179.189 56.928C178.437 56.608 177.781 56.168 177.221 55.608C176.661 55.048 176.221 54.392 175.901 53.64C175.597 52.872 175.445 52.032 175.445 51.12C175.445 50.272 175.597 49.472 175.901 48.72C176.205 47.952 176.629 47.288 177.173 46.728C177.717 46.152 178.357 45.696 179.093 45.36C179.845 45.024 180.669 44.856 181.565 44.856C182.509 44.856 183.349 45.016 184.085 45.336C184.821 45.64 185.437 46.072 185.933 46.632C186.429 47.176 186.805 47.824 187.061 48.576C187.317 49.328 187.445 50.144 187.445 51.024C187.445 51.136 187.445 51.232 187.445 51.312C187.429 51.408 187.421 51.496 187.421 51.576C187.405 51.656 187.397 51.744 187.397 51.84H178.541C178.605 52.32 178.733 52.736 178.925 53.088C179.133 53.424 179.381 53.712 179.669 53.952C179.973 54.176 180.301 54.344 180.653 54.456C181.005 54.552 181.365 54.6 181.733 54.6C182.453 54.6 183.045 54.44 183.509 54.12C183.989 53.784 184.365 53.368 184.637 52.872L187.253 54.168ZM184.397 49.608C184.381 49.4 184.309 49.168 184.181 48.912C184.069 48.656 183.893 48.416 183.653 48.192C183.429 47.968 183.141 47.784 182.789 47.64C182.453 47.496 182.045 47.424 181.565 47.424C180.893 47.424 180.301 47.616 179.789 48C179.277 48.384 178.917 48.92 178.709 49.608H184.397ZM194.227 57.384C193.459 57.384 192.771 57.288 192.163 57.096C191.571 56.904 191.051 56.656 190.603 56.352C190.171 56.032 189.803 55.672 189.499 55.272C189.195 54.856 188.963 54.44 188.803 54.024L191.611 52.824C191.883 53.432 192.243 53.888 192.691 54.192C193.155 54.48 193.667 54.624 194.227 54.624C194.803 54.624 195.259 54.52 195.595 54.312C195.931 54.104 196.099 53.856 196.099 53.568C196.099 53.248 195.955 52.992 195.667 52.8C195.395 52.592 194.915 52.408 194.227 52.248L192.571 51.888C192.203 51.808 191.819 51.68 191.419 51.504C191.035 51.328 190.683 51.104 190.363 50.832C190.043 50.56 189.779 50.232 189.571 49.848C189.363 49.464 189.259 49.016 189.259 48.504C189.259 47.928 189.379 47.416 189.619 46.968C189.875 46.52 190.219 46.144 190.651 45.84C191.083 45.52 191.587 45.28 192.163 45.12C192.755 44.944 193.387 44.856 194.059 44.856C195.179 44.856 196.179 45.08 197.059 45.528C197.939 45.96 198.587 46.656 199.003 47.616L196.291 48.72C196.067 48.256 195.739 47.92 195.307 47.712C194.875 47.504 194.443 47.4 194.011 47.4C193.563 47.4 193.171 47.496 192.835 47.688C192.499 47.864 192.331 48.096 192.331 48.384C192.331 48.656 192.467 48.872 192.739 49.032C193.027 49.192 193.411 49.336 193.891 49.464L195.691 49.896C196.891 50.184 197.779 50.648 198.355 51.288C198.947 51.912 199.243 52.656 199.243 53.52C199.243 54.032 199.123 54.52 198.883 54.984C198.643 55.448 198.299 55.864 197.851 56.232C197.419 56.584 196.891 56.864 196.267 57.072C195.659 57.28 194.979 57.384 194.227 57.384ZM208.537 55.752H208.345C207.977 56.2 207.529 56.584 207.001 56.904C206.489 57.224 205.825 57.384 205.009 57.384C204.401 57.384 203.825 57.28 203.281 57.072C202.753 56.88 202.289 56.608 201.889 56.256C201.489 55.904 201.177 55.48 200.953 54.984C200.729 54.488 200.617 53.944 200.617 53.352C200.617 52.744 200.737 52.2 200.977 51.72C201.217 51.224 201.553 50.8 201.985 50.448C202.417 50.096 202.921 49.832 203.497 49.656C204.089 49.464 204.729 49.368 205.417 49.368C206.185 49.368 206.817 49.432 207.313 49.56C207.809 49.672 208.217 49.792 208.537 49.92V49.56C208.537 48.936 208.289 48.424 207.793 48.024C207.297 47.608 206.681 47.4 205.945 47.4C204.857 47.4 203.937 47.856 203.185 48.768L200.905 47.208C202.153 45.64 203.857 44.856 206.017 44.856C207.841 44.856 209.233 45.288 210.193 46.152C211.153 47 211.633 48.264 211.633 49.944V57H208.537V55.752ZM208.537 52.224C208.169 52.048 207.785 51.912 207.385 51.816C207.001 51.704 206.577 51.648 206.113 51.648C205.361 51.648 204.777 51.816 204.361 52.152C203.961 52.472 203.761 52.872 203.761 53.352C203.761 53.832 203.953 54.216 204.337 54.504C204.737 54.792 205.193 54.936 205.705 54.936C206.121 54.936 206.505 54.864 206.857 54.72C207.209 54.56 207.505 54.36 207.745 54.12C208.001 53.864 208.193 53.576 208.321 53.256C208.465 52.92 208.537 52.576 208.537 52.224Z" fill="#333333"/>
<circle cx="48" cy="48" r="24" fill="#FCF1CF"/>
<g clip-path="url(#clip0)">
<path d="M59.2493 47.84C58.4468 47.1787 57.1785 47.1219 56.346 48.0153L54.2794 50.2338C54.0122 49.3751 53.2103 48.7498 52.2649 48.7498H48.577C48.2971 48.7498 48.2034 48.6429 47.7173 48.2685C45.864 46.6528 43.0803 46.6579 41.2326 48.2839L39.877 49.4773C39.2677 49.1548 38.5562 49.1468 37.9435 49.4529L36.3888 50.23C36.0414 50.4039 35.9009 50.8262 36.0743 51.1736L40.2928 59.6106C40.4667 59.9579 40.889 60.0985 41.2363 59.9251L42.7911 59.1475C43.5574 58.7646 43.9839 57.9827 43.9563 57.1868H52.2648C53.8055 57.1868 55.2778 56.451 56.2021 55.2182L59.5774 50.7176C60.2322 49.8452 60.1286 48.5661 59.2493 47.84ZM42.162 57.8899L41.2363 58.353L37.6463 51.1736L38.5725 50.7105C38.9199 50.5371 39.3417 50.6772 39.5156 51.025L42.4765 56.9468C42.65 57.2941 42.5093 57.716 42.162 57.8899ZM58.4524 49.8738L55.0772 54.3745C54.4168 55.2552 53.3654 55.7806 52.2649 55.7806H43.4655L40.8308 50.5108L42.1615 49.3395C43.4857 48.1747 45.4824 48.1747 46.8066 49.3395C47.5865 50.0262 48.0716 50.156 48.5769 50.156H52.2648C52.6525 50.156 52.9679 50.4715 52.9679 50.8591C52.9679 51.2467 52.6524 51.5622 52.2648 51.5622H48.674C48.2858 51.5622 47.9709 51.8772 47.9709 52.2653C47.9709 52.6533 48.2859 52.9683 48.674 52.9683H52.7359C53.3195 52.9683 53.882 52.7236 54.2794 52.2967L57.3749 48.9739C57.658 48.6701 58.092 48.6954 58.3583 48.9284C58.6366 49.1721 58.6667 49.5888 58.4524 49.8738Z" fill="#F2C94C"/>
<path d="M50.7836 40.7986C51.265 40.2938 51.5617 39.6113 51.5617 38.8599C51.5617 37.3122 50.3112 36.0007 48.7494 36.0007C47.1993 36.0007 45.8902 37.3099 45.8902 38.8599C45.8902 39.5883 46.1757 40.2759 46.6941 40.8042C45.4084 41.5251 44.4841 42.9087 44.4841 44.5315V45.2345C44.4841 45.6226 44.7991 45.9376 45.1871 45.9376H52.2648C52.6529 45.9376 52.9679 45.6226 52.9679 45.2345V44.5315C52.9679 42.9406 52.0929 41.5354 50.7836 40.7986ZM48.7494 37.4069C49.5115 37.4069 50.1556 38.0725 50.1556 38.86C50.1556 39.6352 49.5247 40.2661 48.7494 40.2661C47.962 40.2661 47.2964 39.6221 47.2964 38.86C47.2964 38.0861 47.9755 37.4069 48.7494 37.4069ZM45.8902 44.5315C45.8902 42.9814 47.1993 41.6723 48.7494 41.6723C50.2999 41.6723 51.5617 42.9547 51.5617 44.5315H45.8902Z" fill="#F2C94C"/>
</g>
<defs>
<clipPath id="clip0">
<rect x="36" y="36" width="24" height="24" fill="white"/>
</clipPath>
</defs>
</svg>
