<svg width="1092" height="96" viewBox="0 0 1092 96" fill="none" xmlns="http://www.w3.org/2000/svg">
<rect x="0.5" y="0.5" width="1091" height="95" rx="7.5" fill="white" stroke="#E0E0E0"/>
<path d="M97.728 39.816H104.448C105.184 39.816 105.872 39.936 106.512 40.176C107.152 40.4 107.704 40.72 108.168 41.136C108.648 41.536 109.024 42.008 109.296 42.552C109.568 43.096 109.704 43.68 109.704 44.304C109.704 45.216 109.48 45.984 109.032 46.608C108.6 47.216 108.056 47.68 107.4 48V48.192C108.28 48.512 108.984 49.016 109.512 49.704C110.056 50.376 110.328 51.216 110.328 52.224C110.328 52.96 110.176 53.624 109.872 54.216C109.584 54.792 109.184 55.288 108.672 55.704C108.16 56.12 107.56 56.44 106.872 56.664C106.2 56.888 105.472 57 104.688 57H97.728V39.816ZM104.208 46.824C104.96 46.824 105.536 46.624 105.936 46.224C106.352 45.808 106.56 45.32 106.56 44.76C106.56 44.2 106.36 43.72 105.96 43.32C105.56 42.92 105.008 42.72 104.304 42.72H100.968V46.824H104.208ZM104.568 54.024C105.384 54.024 106.008 53.824 106.44 53.424C106.872 53.008 107.088 52.48 107.088 51.84C107.088 51.2 106.864 50.672 106.416 50.256C105.984 49.824 105.336 49.608 104.472 49.608H100.968V54.024H104.568ZM119.686 55.752H119.494C119.126 56.2 118.678 56.584 118.15 56.904C117.638 57.224 116.974 57.384 116.158 57.384C115.55 57.384 114.974 57.28 114.43 57.072C113.902 56.88 113.438 56.608 113.038 56.256C112.638 55.904 112.326 55.48 112.102 54.984C111.878 54.488 111.766 53.944 111.766 53.352C111.766 52.744 111.886 52.2 112.126 51.72C112.366 51.224 112.702 50.8 113.134 50.448C113.566 50.096 114.07 49.832 114.646 49.656C115.238 49.464 115.878 49.368 116.566 49.368C117.334 49.368 117.966 49.432 118.462 49.56C118.958 49.672 119.366 49.792 119.686 49.92V49.56C119.686 48.936 119.438 48.424 118.942 48.024C118.446 47.608 117.83 47.4 117.094 47.4C116.006 47.4 115.086 47.856 114.334 48.768L112.054 47.208C113.302 45.64 115.006 44.856 117.166 44.856C118.99 44.856 120.382 45.288 121.342 46.152C122.302 47 122.782 48.264 122.782 49.944V57H119.686V55.752ZM119.686 52.224C119.318 52.048 118.934 51.912 118.534 51.816C118.15 51.704 117.726 51.648 117.262 51.648C116.51 51.648 115.926 51.816 115.51 52.152C115.11 52.472 114.91 52.872 114.91 53.352C114.91 53.832 115.102 54.216 115.486 54.504C115.886 54.792 116.342 54.936 116.854 54.936C117.27 54.936 117.654 54.864 118.006 54.72C118.358 54.56 118.654 54.36 118.894 54.12C119.15 53.864 119.342 53.576 119.47 53.256C119.614 52.92 119.686 52.576 119.686 52.224ZM128.234 46.776H128.426C128.794 46.184 129.29 45.72 129.914 45.384C130.538 45.032 131.25 44.856 132.05 44.856C132.786 44.856 133.434 44.976 133.994 45.216C134.554 45.456 135.01 45.8 135.362 46.248C135.73 46.68 136.002 47.208 136.178 47.832C136.37 48.44 136.466 49.12 136.466 49.872V57H133.322V50.256C133.322 49.408 133.13 48.784 132.746 48.384C132.378 47.968 131.834 47.76 131.114 47.76C130.682 47.76 130.298 47.856 129.962 48.048C129.642 48.224 129.362 48.472 129.122 48.792C128.898 49.096 128.722 49.464 128.594 49.896C128.482 50.312 128.426 50.76 128.426 51.24V57H125.282V45.24H128.234V46.776ZM139.749 47.928H137.685V45.24H139.749V41.64H142.893V45.24H145.773V47.928H142.893V52.488C142.893 52.76 142.917 53.016 142.965 53.256C143.029 53.48 143.141 53.672 143.301 53.832C143.525 54.088 143.845 54.216 144.261 54.216C144.533 54.216 144.749 54.192 144.909 54.144C145.069 54.08 145.221 54 145.365 53.904L146.253 56.664C145.885 56.84 145.485 56.968 145.053 57.048C144.637 57.144 144.173 57.192 143.661 57.192C143.069 57.192 142.533 57.104 142.053 56.928C141.589 56.736 141.197 56.48 140.877 56.16C140.125 55.44 139.749 54.416 139.749 53.088V47.928ZM156.222 55.464H156.03C155.662 56.056 155.166 56.528 154.542 56.88C153.918 57.216 153.206 57.384 152.406 57.384C150.918 57.384 149.806 56.928 149.07 56.016C148.35 55.104 147.99 53.888 147.99 52.368V45.24H151.134V51.984C151.134 52.832 151.318 53.464 151.686 53.88C152.07 54.28 152.622 54.48 153.342 54.48C153.774 54.48 154.15 54.392 154.47 54.216C154.806 54.024 155.086 53.776 155.31 53.472C155.55 53.152 155.726 52.784 155.838 52.368C155.966 51.936 156.03 51.48 156.03 51V45.24H159.174V57H156.222V55.464ZM168.998 55.752H168.806C168.438 56.2 167.99 56.584 167.462 56.904C166.95 57.224 166.286 57.384 165.47 57.384C164.862 57.384 164.286 57.28 163.742 57.072C163.214 56.88 162.75 56.608 162.35 56.256C161.95 55.904 161.638 55.48 161.414 54.984C161.19 54.488 161.078 53.944 161.078 53.352C161.078 52.744 161.198 52.2 161.438 51.72C161.678 51.224 162.014 50.8 162.446 50.448C162.878 50.096 163.382 49.832 163.958 49.656C164.55 49.464 165.19 49.368 165.878 49.368C166.646 49.368 167.278 49.432 167.774 49.56C168.27 49.672 168.678 49.792 168.998 49.92V49.56C168.998 48.936 168.75 48.424 168.254 48.024C167.758 47.608 167.142 47.4 166.406 47.4C165.318 47.4 164.398 47.856 163.646 48.768L161.366 47.208C162.614 45.64 164.318 44.856 166.478 44.856C168.302 44.856 169.694 45.288 170.654 46.152C171.614 47 172.094 48.264 172.094 49.944V57H168.998V55.752ZM168.998 52.224C168.63 52.048 168.246 51.912 167.846 51.816C167.462 51.704 167.038 51.648 166.574 51.648C165.822 51.648 165.238 51.816 164.822 52.152C164.422 52.472 164.222 52.872 164.222 53.352C164.222 53.832 164.414 54.216 164.798 54.504C165.198 54.792 165.654 54.936 166.166 54.936C166.582 54.936 166.966 54.864 167.318 54.72C167.67 54.56 167.966 54.36 168.206 54.12C168.462 53.864 168.654 53.576 168.782 53.256C168.926 52.92 168.998 52.576 168.998 52.224ZM177.546 46.776H177.738C178.106 46.184 178.602 45.72 179.226 45.384C179.85 45.032 180.562 44.856 181.362 44.856C182.098 44.856 182.746 44.976 183.306 45.216C183.866 45.456 184.322 45.8 184.674 46.248C185.042 46.68 185.314 47.208 185.49 47.832C185.682 48.44 185.778 49.12 185.778 49.872V57H182.634V50.256C182.634 49.408 182.442 48.784 182.058 48.384C181.69 47.968 181.146 47.76 180.426 47.76C179.994 47.76 179.61 47.856 179.274 48.048C178.954 48.224 178.674 48.472 178.434 48.792C178.21 49.096 178.034 49.464 177.906 49.896C177.794 50.312 177.738 50.76 177.738 51.24V57H174.594V45.24H177.546V46.776ZM198.562 57.384C197.826 57.384 197.122 57.28 196.45 57.072C195.778 56.864 195.162 56.552 194.602 56.136C194.042 55.72 193.554 55.216 193.138 54.624C192.722 54.016 192.394 53.312 192.154 52.512L195.202 51.312C195.426 52.176 195.818 52.896 196.378 53.472C196.938 54.032 197.674 54.312 198.586 54.312C198.922 54.312 199.242 54.272 199.546 54.192C199.866 54.096 200.146 53.968 200.386 53.808C200.642 53.632 200.842 53.416 200.986 53.16C201.13 52.904 201.202 52.608 201.202 52.272C201.202 51.952 201.146 51.664 201.034 51.408C200.922 51.152 200.73 50.912 200.458 50.688C200.202 50.464 199.858 50.248 199.426 50.04C199.01 49.832 198.49 49.616 197.866 49.392L196.81 49.008C196.346 48.848 195.874 48.632 195.394 48.36C194.93 48.088 194.506 47.76 194.122 47.376C193.738 46.992 193.418 46.544 193.162 46.032C192.922 45.504 192.802 44.912 192.802 44.256C192.802 43.584 192.93 42.96 193.186 42.384C193.458 41.792 193.834 41.28 194.314 40.848C194.81 40.4 195.394 40.056 196.066 39.816C196.754 39.56 197.514 39.432 198.346 39.432C199.21 39.432 199.954 39.552 200.578 39.792C201.218 40.016 201.754 40.312 202.186 40.68C202.634 41.032 202.994 41.424 203.266 41.856C203.538 42.288 203.738 42.696 203.866 43.08L201.01 44.28C200.85 43.8 200.554 43.368 200.122 42.984C199.706 42.6 199.13 42.408 198.394 42.408C197.69 42.408 197.106 42.576 196.642 42.912C196.178 43.232 195.946 43.656 195.946 44.184C195.946 44.696 196.17 45.136 196.618 45.504C197.066 45.856 197.778 46.2 198.754 46.536L199.834 46.896C200.522 47.136 201.146 47.416 201.706 47.736C202.282 48.04 202.77 48.408 203.17 48.84C203.586 49.272 203.898 49.768 204.106 50.328C204.33 50.872 204.442 51.504 204.442 52.224C204.442 53.12 204.258 53.896 203.89 54.552C203.538 55.192 203.082 55.72 202.522 56.136C201.962 56.552 201.33 56.864 200.626 57.072C199.922 57.28 199.234 57.384 198.562 57.384ZM212.295 44.856C213.207 44.856 214.039 45.016 214.791 45.336C215.559 45.64 216.215 46.072 216.759 46.632C217.319 47.176 217.751 47.832 218.055 48.6C218.375 49.368 218.535 50.208 218.535 51.12C218.535 52.032 218.375 52.872 218.055 53.64C217.751 54.408 217.319 55.072 216.759 55.632C216.215 56.176 215.559 56.608 214.791 56.928C214.039 57.232 213.207 57.384 212.295 57.384C211.383 57.384 210.543 57.232 209.775 56.928C209.023 56.608 208.367 56.176 207.807 55.632C207.263 55.072 206.831 54.408 206.511 53.64C206.207 52.872 206.055 52.032 206.055 51.12C206.055 50.208 206.207 49.368 206.511 48.6C206.831 47.832 207.263 47.176 207.807 46.632C208.367 46.072 209.023 45.64 209.775 45.336C210.543 45.016 211.383 44.856 212.295 44.856ZM212.295 54.48C212.695 54.48 213.079 54.408 213.447 54.264C213.831 54.104 214.167 53.88 214.455 53.592C214.743 53.304 214.967 52.952 215.127 52.536C215.303 52.12 215.391 51.648 215.391 51.12C215.391 50.592 215.303 50.12 215.127 49.704C214.967 49.288 214.743 48.936 214.455 48.648C214.167 48.36 213.831 48.144 213.447 48C213.079 47.84 212.695 47.76 212.295 47.76C211.879 47.76 211.487 47.84 211.119 48C210.751 48.144 210.423 48.36 210.135 48.648C209.847 48.936 209.615 49.288 209.439 49.704C209.279 50.12 209.199 50.592 209.199 51.12C209.199 51.648 209.279 52.12 209.439 52.536C209.615 52.952 209.847 53.304 210.135 53.592C210.423 53.88 210.751 54.104 211.119 54.264C211.487 54.408 211.879 54.48 212.295 54.48ZM225.094 57.384C224.326 57.384 223.638 57.288 223.03 57.096C222.438 56.904 221.918 56.656 221.47 56.352C221.038 56.032 220.67 55.672 220.366 55.272C220.062 54.856 219.83 54.44 219.67 54.024L222.478 52.824C222.75 53.432 223.11 53.888 223.558 54.192C224.022 54.48 224.534 54.624 225.094 54.624C225.67 54.624 226.126 54.52 226.462 54.312C226.798 54.104 226.966 53.856 226.966 53.568C226.966 53.248 226.822 52.992 226.534 52.8C226.262 52.592 225.782 52.408 225.094 52.248L223.438 51.888C223.07 51.808 222.686 51.68 222.286 51.504C221.902 51.328 221.55 51.104 221.23 50.832C220.91 50.56 220.646 50.232 220.438 49.848C220.23 49.464 220.126 49.016 220.126 48.504C220.126 47.928 220.246 47.416 220.486 46.968C220.742 46.52 221.086 46.144 221.518 45.84C221.95 45.52 222.454 45.28 223.03 45.12C223.622 44.944 224.254 44.856 224.926 44.856C226.046 44.856 227.046 45.08 227.926 45.528C228.806 45.96 229.454 46.656 229.87 47.616L227.158 48.72C226.934 48.256 226.606 47.92 226.174 47.712C225.742 47.504 225.31 47.4 224.878 47.4C224.43 47.4 224.038 47.496 223.702 47.688C223.366 47.864 223.198 48.096 223.198 48.384C223.198 48.656 223.334 48.872 223.606 49.032C223.894 49.192 224.278 49.336 224.758 49.464L226.558 49.896C227.758 50.184 228.646 50.648 229.222 51.288C229.814 51.912 230.11 52.656 230.11 53.52C230.11 54.032 229.99 54.52 229.75 54.984C229.51 55.448 229.166 55.864 228.718 56.232C228.286 56.584 227.758 56.864 227.134 57.072C226.526 57.28 225.846 57.384 225.094 57.384ZM233.674 43.536C233.402 43.536 233.138 43.488 232.882 43.392C232.642 43.28 232.426 43.136 232.234 42.96C232.058 42.768 231.914 42.552 231.802 42.312C231.706 42.072 231.658 41.808 231.658 41.52C231.658 41.232 231.706 40.968 231.802 40.728C231.914 40.488 232.058 40.28 232.234 40.104C232.426 39.912 232.642 39.768 232.882 39.672C233.138 39.56 233.402 39.504 233.674 39.504C234.234 39.504 234.714 39.704 235.114 40.104C235.514 40.488 235.714 40.96 235.714 41.52C235.714 42.08 235.514 42.56 235.114 42.96C234.714 43.344 234.234 43.536 233.674 43.536ZM232.114 57V45.24H235.258V57H232.114ZM245.264 55.752H245.072C244.704 56.2 244.256 56.584 243.728 56.904C243.216 57.224 242.552 57.384 241.736 57.384C241.128 57.384 240.552 57.28 240.008 57.072C239.48 56.88 239.016 56.608 238.616 56.256C238.216 55.904 237.904 55.48 237.68 54.984C237.456 54.488 237.344 53.944 237.344 53.352C237.344 52.744 237.464 52.2 237.704 51.72C237.944 51.224 238.28 50.8 238.712 50.448C239.144 50.096 239.648 49.832 240.224 49.656C240.816 49.464 241.456 49.368 242.144 49.368C242.912 49.368 243.544 49.432 244.04 49.56C244.536 49.672 244.944 49.792 245.264 49.92V49.56C245.264 48.936 245.016 48.424 244.52 48.024C244.024 47.608 243.408 47.4 242.672 47.4C241.584 47.4 240.664 47.856 239.912 48.768L237.632 47.208C238.88 45.64 240.584 44.856 242.744 44.856C244.568 44.856 245.96 45.288 246.92 46.152C247.88 47 248.36 48.264 248.36 49.944V57H245.264V55.752ZM245.264 52.224C244.896 52.048 244.512 51.912 244.112 51.816C243.728 51.704 243.304 51.648 242.84 51.648C242.088 51.648 241.504 51.816 241.088 52.152C240.688 52.472 240.488 52.872 240.488 53.352C240.488 53.832 240.68 54.216 241.064 54.504C241.464 54.792 241.92 54.936 242.432 54.936C242.848 54.936 243.232 54.864 243.584 54.72C243.936 54.56 244.232 54.36 244.472 54.12C244.728 53.864 244.92 53.576 245.048 53.256C245.192 52.92 245.264 52.576 245.264 52.224ZM250.86 57V39.816H254.004V57H250.86ZM265.04 57V42.888H260.24V39.816H273.08V42.888H268.28V57H265.04ZM281.707 55.464H281.515C281.147 56.056 280.651 56.528 280.027 56.88C279.403 57.216 278.691 57.384 277.891 57.384C276.403 57.384 275.291 56.928 274.555 56.016C273.835 55.104 273.475 53.888 273.475 52.368V45.24H276.619V51.984C276.619 52.832 276.803 53.464 277.171 53.88C277.555 54.28 278.107 54.48 278.827 54.48C279.259 54.48 279.635 54.392 279.955 54.216C280.291 54.024 280.571 53.776 280.795 53.472C281.035 53.152 281.211 52.784 281.323 52.368C281.451 51.936 281.515 51.48 281.515 51V45.24H284.659V57H281.707V55.464ZM290.304 46.776H290.496C290.864 46.184 291.36 45.72 291.984 45.384C292.608 45.032 293.32 44.856 294.12 44.856C294.856 44.856 295.504 44.976 296.064 45.216C296.624 45.456 297.08 45.8 297.432 46.248C297.8 46.68 298.072 47.208 298.248 47.832C298.44 48.44 298.536 49.12 298.536 49.872V57H295.392V50.256C295.392 49.408 295.2 48.784 294.816 48.384C294.448 47.968 293.904 47.76 293.184 47.76C292.752 47.76 292.368 47.856 292.032 48.048C291.712 48.224 291.432 48.472 291.192 48.792C290.968 49.096 290.792 49.464 290.664 49.896C290.552 50.312 290.496 50.76 290.496 51.24V57H287.352V45.24H290.304V46.776ZM308.264 55.752H308.072C307.704 56.2 307.256 56.584 306.728 56.904C306.216 57.224 305.552 57.384 304.736 57.384C304.128 57.384 303.552 57.28 303.008 57.072C302.48 56.88 302.016 56.608 301.616 56.256C301.216 55.904 300.904 55.48 300.68 54.984C300.456 54.488 300.344 53.944 300.344 53.352C300.344 52.744 300.464 52.2 300.704 51.72C300.944 51.224 301.28 50.8 301.712 50.448C302.144 50.096 302.648 49.832 303.224 49.656C303.816 49.464 304.456 49.368 305.144 49.368C305.912 49.368 306.544 49.432 307.04 49.56C307.536 49.672 307.944 49.792 308.264 49.92V49.56C308.264 48.936 308.016 48.424 307.52 48.024C307.024 47.608 306.408 47.4 305.672 47.4C304.584 47.4 303.664 47.856 302.912 48.768L300.632 47.208C301.88 45.64 303.584 44.856 305.744 44.856C307.568 44.856 308.96 45.288 309.92 46.152C310.88 47 311.36 48.264 311.36 49.944V57H308.264V55.752ZM308.264 52.224C307.896 52.048 307.512 51.912 307.112 51.816C306.728 51.704 306.304 51.648 305.84 51.648C305.088 51.648 304.504 51.816 304.088 52.152C303.688 52.472 303.488 52.872 303.488 53.352C303.488 53.832 303.68 54.216 304.064 54.504C304.464 54.792 304.92 54.936 305.432 54.936C305.848 54.936 306.232 54.864 306.584 54.72C306.936 54.56 307.232 54.36 307.472 54.12C307.728 53.864 307.92 53.576 308.048 53.256C308.192 52.92 308.264 52.576 308.264 52.224ZM315.612 43.536C315.34 43.536 315.076 43.488 314.82 43.392C314.58 43.28 314.364 43.136 314.172 42.96C313.996 42.768 313.852 42.552 313.74 42.312C313.644 42.072 313.596 41.808 313.596 41.52C313.596 41.232 313.644 40.968 313.74 40.728C313.852 40.488 313.996 40.28 314.172 40.104C314.364 39.912 314.58 39.768 314.82 39.672C315.076 39.56 315.34 39.504 315.612 39.504C316.172 39.504 316.652 39.704 317.052 40.104C317.452 40.488 317.652 40.96 317.652 41.52C317.652 42.08 317.452 42.56 317.052 42.96C316.652 43.344 316.172 43.536 315.612 43.536ZM314.052 57V45.24H317.196V57H314.052ZM325.728 39.816H328.968V47.184H329.16L335.448 39.816H339.36V40.008L333.144 47.112L340.008 56.808V57H336.048L330.936 49.68L328.968 51.96V57H325.728V39.816ZM352.066 54.168C351.522 55.128 350.786 55.904 349.858 56.496C348.946 57.088 347.826 57.384 346.498 57.384C345.602 57.384 344.77 57.232 344.002 56.928C343.25 56.608 342.594 56.168 342.034 55.608C341.474 55.048 341.034 54.392 340.714 53.64C340.41 52.872 340.258 52.032 340.258 51.12C340.258 50.272 340.41 49.472 340.714 48.72C341.018 47.952 341.442 47.288 341.986 46.728C342.53 46.152 343.17 45.696 343.906 45.36C344.658 45.024 345.482 44.856 346.378 44.856C347.322 44.856 348.162 45.016 348.898 45.336C349.634 45.64 350.25 46.072 350.746 46.632C351.242 47.176 351.618 47.824 351.874 48.576C352.13 49.328 352.258 50.144 352.258 51.024C352.258 51.136 352.258 51.232 352.258 51.312C352.242 51.408 352.234 51.496 352.234 51.576C352.218 51.656 352.21 51.744 352.21 51.84H343.354C343.418 52.32 343.546 52.736 343.738 53.088C343.946 53.424 344.194 53.712 344.482 53.952C344.786 54.176 345.114 54.344 345.466 54.456C345.818 54.552 346.178 54.6 346.546 54.6C347.266 54.6 347.858 54.44 348.322 54.12C348.802 53.784 349.178 53.368 349.45 52.872L352.066 54.168ZM349.21 49.608C349.194 49.4 349.122 49.168 348.994 48.912C348.882 48.656 348.706 48.416 348.466 48.192C348.242 47.968 347.954 47.784 347.602 47.64C347.266 47.496 346.858 47.424 346.378 47.424C345.706 47.424 345.114 47.616 344.602 48C344.09 48.384 343.73 48.92 343.522 49.608H349.21ZM354.266 45.24H357.218V46.776H357.41C357.778 46.2 358.274 45.736 358.898 45.384C359.538 45.032 360.242 44.856 361.01 44.856C361.906 44.856 362.658 45.064 363.266 45.48C363.874 45.896 364.306 46.408 364.562 47.016C364.93 46.424 365.45 45.92 366.122 45.504C366.794 45.072 367.61 44.856 368.57 44.856C369.29 44.856 369.914 44.976 370.442 45.216C370.97 45.44 371.402 45.76 371.738 46.176C372.09 46.592 372.354 47.096 372.53 47.688C372.706 48.264 372.794 48.896 372.794 49.584V57H369.65V50.16C369.65 48.56 368.994 47.76 367.682 47.76C367.266 47.76 366.898 47.856 366.578 48.048C366.258 48.224 365.986 48.472 365.762 48.792C365.554 49.096 365.386 49.464 365.258 49.896C365.146 50.328 365.09 50.792 365.09 51.288V57H361.946V50.16C361.946 48.56 361.258 47.76 359.882 47.76C359.482 47.76 359.13 47.856 358.826 48.048C358.522 48.224 358.266 48.472 358.058 48.792C357.85 49.096 357.69 49.464 357.578 49.896C357.466 50.328 357.41 50.792 357.41 51.288V57H354.266V45.24ZM386.519 54.168C385.975 55.128 385.239 55.904 384.311 56.496C383.399 57.088 382.279 57.384 380.951 57.384C380.055 57.384 379.223 57.232 378.455 56.928C377.703 56.608 377.047 56.168 376.487 55.608C375.927 55.048 375.487 54.392 375.167 53.64C374.863 52.872 374.711 52.032 374.711 51.12C374.711 50.272 374.863 49.472 375.167 48.72C375.471 47.952 375.895 47.288 376.439 46.728C376.983 46.152 377.623 45.696 378.359 45.36C379.111 45.024 379.935 44.856 380.831 44.856C381.775 44.856 382.615 45.016 383.351 45.336C384.087 45.64 384.703 46.072 385.199 46.632C385.695 47.176 386.071 47.824 386.327 48.576C386.583 49.328 386.711 50.144 386.711 51.024C386.711 51.136 386.711 51.232 386.711 51.312C386.695 51.408 386.687 51.496 386.687 51.576C386.671 51.656 386.663 51.744 386.663 51.84H377.807C377.871 52.32 377.999 52.736 378.191 53.088C378.399 53.424 378.647 53.712 378.935 53.952C379.239 54.176 379.567 54.344 379.919 54.456C380.271 54.552 380.631 54.6 380.999 54.6C381.719 54.6 382.311 54.44 382.775 54.12C383.255 53.784 383.631 53.368 383.903 52.872L386.519 54.168ZM383.663 49.608C383.647 49.4 383.575 49.168 383.447 48.912C383.335 48.656 383.159 48.416 382.919 48.192C382.695 47.968 382.407 47.784 382.055 47.64C381.719 47.496 381.311 47.424 380.831 47.424C380.159 47.424 379.567 47.616 379.055 48C378.543 48.384 378.183 48.92 377.975 49.608H383.663ZM391.671 46.776H391.863C392.231 46.184 392.727 45.72 393.351 45.384C393.975 45.032 394.687 44.856 395.487 44.856C396.223 44.856 396.871 44.976 397.431 45.216C397.991 45.456 398.447 45.8 398.799 46.248C399.167 46.68 399.439 47.208 399.615 47.832C399.807 48.44 399.903 49.12 399.903 49.872V57H396.759V50.256C396.759 49.408 396.567 48.784 396.183 48.384C395.815 47.968 395.271 47.76 394.551 47.76C394.119 47.76 393.735 47.856 393.399 48.048C393.079 48.224 392.799 48.472 392.559 48.792C392.335 49.096 392.159 49.464 392.031 49.896C391.919 50.312 391.863 50.76 391.863 51.24V57H388.719V45.24H391.671V46.776ZM407.039 57.384C406.271 57.384 405.583 57.288 404.975 57.096C404.383 56.904 403.863 56.656 403.415 56.352C402.983 56.032 402.615 55.672 402.311 55.272C402.007 54.856 401.775 54.44 401.615 54.024L404.423 52.824C404.695 53.432 405.055 53.888 405.503 54.192C405.967 54.48 406.479 54.624 407.039 54.624C407.615 54.624 408.071 54.52 408.407 54.312C408.743 54.104 408.911 53.856 408.911 53.568C408.911 53.248 408.767 52.992 408.479 52.8C408.207 52.592 407.727 52.408 407.039 52.248L405.383 51.888C405.015 51.808 404.631 51.68 404.231 51.504C403.847 51.328 403.495 51.104 403.175 50.832C402.855 50.56 402.591 50.232 402.383 49.848C402.175 49.464 402.071 49.016 402.071 48.504C402.071 47.928 402.191 47.416 402.431 46.968C402.687 46.52 403.031 46.144 403.463 45.84C403.895 45.52 404.399 45.28 404.975 45.12C405.567 44.944 406.199 44.856 406.871 44.856C407.991 44.856 408.991 45.08 409.871 45.528C410.751 45.96 411.399 46.656 411.815 47.616L409.103 48.72C408.879 48.256 408.551 47.92 408.119 47.712C407.687 47.504 407.255 47.4 406.823 47.4C406.375 47.4 405.983 47.496 405.647 47.688C405.311 47.864 405.143 48.096 405.143 48.384C405.143 48.656 405.279 48.872 405.551 49.032C405.839 49.192 406.223 49.336 406.703 49.464L408.503 49.896C409.703 50.184 410.591 50.648 411.167 51.288C411.759 51.912 412.055 52.656 412.055 53.52C412.055 54.032 411.935 54.52 411.695 54.984C411.455 55.448 411.111 55.864 410.663 56.232C410.231 56.584 409.703 56.864 409.079 57.072C408.471 57.28 407.791 57.384 407.039 57.384ZM419.67 44.856C420.582 44.856 421.414 45.016 422.166 45.336C422.934 45.64 423.59 46.072 424.134 46.632C424.694 47.176 425.126 47.832 425.43 48.6C425.75 49.368 425.91 50.208 425.91 51.12C425.91 52.032 425.75 52.872 425.43 53.64C425.126 54.408 424.694 55.072 424.134 55.632C423.59 56.176 422.934 56.608 422.166 56.928C421.414 57.232 420.582 57.384 419.67 57.384C418.758 57.384 417.918 57.232 417.15 56.928C416.398 56.608 415.742 56.176 415.182 55.632C414.638 55.072 414.206 54.408 413.886 53.64C413.582 52.872 413.43 52.032 413.43 51.12C413.43 50.208 413.582 49.368 413.886 48.6C414.206 47.832 414.638 47.176 415.182 46.632C415.742 46.072 416.398 45.64 417.15 45.336C417.918 45.016 418.758 44.856 419.67 44.856ZM419.67 54.48C420.07 54.48 420.454 54.408 420.822 54.264C421.206 54.104 421.542 53.88 421.83 53.592C422.118 53.304 422.342 52.952 422.502 52.536C422.678 52.12 422.766 51.648 422.766 51.12C422.766 50.592 422.678 50.12 422.502 49.704C422.342 49.288 422.118 48.936 421.83 48.648C421.542 48.36 421.206 48.144 420.822 48C420.454 47.84 420.07 47.76 419.67 47.76C419.254 47.76 418.862 47.84 418.494 48C418.126 48.144 417.798 48.36 417.51 48.648C417.222 48.936 416.99 49.288 416.814 49.704C416.654 50.12 416.574 50.592 416.574 51.12C416.574 51.648 416.654 52.12 416.814 52.536C416.99 52.952 417.222 53.304 417.51 53.592C417.798 53.88 418.126 54.104 418.494 54.264C418.862 54.408 419.254 54.48 419.67 54.48ZM432.469 57.384C431.701 57.384 431.013 57.288 430.405 57.096C429.813 56.904 429.293 56.656 428.845 56.352C428.413 56.032 428.045 55.672 427.741 55.272C427.437 54.856 427.205 54.44 427.045 54.024L429.853 52.824C430.125 53.432 430.485 53.888 430.933 54.192C431.397 54.48 431.909 54.624 432.469 54.624C433.045 54.624 433.501 54.52 433.837 54.312C434.173 54.104 434.341 53.856 434.341 53.568C434.341 53.248 434.197 52.992 433.909 52.8C433.637 52.592 433.157 52.408 432.469 52.248L430.813 51.888C430.445 51.808 430.061 51.68 429.661 51.504C429.277 51.328 428.925 51.104 428.605 50.832C428.285 50.56 428.021 50.232 427.813 49.848C427.605 49.464 427.501 49.016 427.501 48.504C427.501 47.928 427.621 47.416 427.861 46.968C428.117 46.52 428.461 46.144 428.893 45.84C429.325 45.52 429.829 45.28 430.405 45.12C430.997 44.944 431.629 44.856 432.301 44.856C433.421 44.856 434.421 45.08 435.301 45.528C436.181 45.96 436.829 46.656 437.245 47.616L434.533 48.72C434.309 48.256 433.981 47.92 433.549 47.712C433.117 47.504 432.685 47.4 432.253 47.4C431.805 47.4 431.413 47.496 431.077 47.688C430.741 47.864 430.573 48.096 430.573 48.384C430.573 48.656 430.709 48.872 430.981 49.032C431.269 49.192 431.653 49.336 432.133 49.464L433.933 49.896C435.133 50.184 436.021 50.648 436.597 51.288C437.189 51.912 437.485 52.656 437.485 53.52C437.485 54.032 437.365 54.52 437.125 54.984C436.885 55.448 436.541 55.864 436.093 56.232C435.661 56.584 435.133 56.864 434.509 57.072C433.901 57.28 433.221 57.384 432.469 57.384Z" fill="#333333"/>
<circle cx="48" cy="48" r="24" fill="#FCF1CF"/>
<g clip-path="url(#clip0)">
<path d="M59.2493 47.84C58.4468 47.1787 57.1785 47.1219 56.346 48.0153L54.2794 50.2338C54.0122 49.3751 53.2103 48.7498 52.2649 48.7498H48.577C48.2971 48.7498 48.2034 48.6429 47.7173 48.2685C45.864 46.6528 43.0803 46.6579 41.2326 48.2839L39.877 49.4773C39.2677 49.1548 38.5562 49.1468 37.9435 49.4529L36.3888 50.23C36.0414 50.4039 35.9009 50.8262 36.0743 51.1736L40.2928 59.6106C40.4667 59.9579 40.889 60.0985 41.2363 59.9251L42.7911 59.1475C43.5574 58.7646 43.9839 57.9827 43.9563 57.1868H52.2648C53.8055 57.1868 55.2778 56.451 56.2021 55.2182L59.5774 50.7176C60.2322 49.8452 60.1286 48.5661 59.2493 47.84ZM42.162 57.8899L41.2363 58.353L37.6463 51.1736L38.5725 50.7105C38.9199 50.5371 39.3417 50.6772 39.5156 51.025L42.4765 56.9468C42.65 57.2941 42.5093 57.716 42.162 57.8899ZM58.4524 49.8738L55.0772 54.3745C54.4168 55.2552 53.3654 55.7806 52.2649 55.7806H43.4655L40.8308 50.5108L42.1615 49.3395C43.4857 48.1747 45.4824 48.1747 46.8066 49.3395C47.5865 50.0262 48.0716 50.156 48.5769 50.156H52.2648C52.6525 50.156 52.9679 50.4715 52.9679 50.8591C52.9679 51.2467 52.6524 51.5622 52.2648 51.5622H48.674C48.2858 51.5622 47.9709 51.8772 47.9709 52.2653C47.9709 52.6533 48.2859 52.9683 48.674 52.9683H52.7359C53.3195 52.9683 53.882 52.7236 54.2794 52.2967L57.3749 48.9739C57.658 48.6701 58.092 48.6954 58.3583 48.9284C58.6366 49.1721 58.6667 49.5888 58.4524 49.8738Z" fill="#F2C94C"/>
<path d="M50.7836 40.7986C51.265 40.2938 51.5617 39.6113 51.5617 38.8599C51.5617 37.3122 50.3112 36.0007 48.7494 36.0007C47.1993 36.0007 45.8902 37.3099 45.8902 38.8599C45.8902 39.5883 46.1757 40.2759 46.6941 40.8042C45.4084 41.5251 44.4841 42.9087 44.4841 44.5315V45.2345C44.4841 45.6226 44.7991 45.9376 45.1871 45.9376H52.2648C52.6529 45.9376 52.9679 45.6226 52.9679 45.2345V44.5315C52.9679 42.9406 52.0929 41.5354 50.7836 40.7986ZM48.7494 37.4069C49.5115 37.4069 50.1556 38.0725 50.1556 38.86C50.1556 39.6352 49.5247 40.2661 48.7494 40.2661C47.962 40.2661 47.2964 39.6221 47.2964 38.86C47.2964 38.0861 47.9755 37.4069 48.7494 37.4069ZM45.8902 44.5315C45.8902 42.9814 47.1993 41.6723 48.7494 41.6723C50.2999 41.6723 51.5617 42.9547 51.5617 44.5315H45.8902Z" fill="#F2C94C"/>
</g>
<defs>
<clipPath id="clip0">
<rect x="36" y="36" width="24" height="24" fill="white"/>
</clipPath>
</defs>
</svg>
