<svg width="296" height="296" viewBox="0 0 296 296" fill="none" xmlns="http://www.w3.org/2000/svg">
<circle cx="148" cy="148" r="148" fill="#334154" fill-opacity="0.08"/>
<g clip-path="url(#clip0)">
<path d="M106.406 116.533V159.199L78.7008 142.269V137.226C78.7022 134.814 79.9576 132.576 82.0152 131.318L106.406 116.533Z" fill="#4E637E"/>
<path d="M159.899 76.0622L186.473 105.686H170.822C164.756 105.686 159.838 100.767 159.841 94.7013V76.0554L159.899 76.0622Z" fill="#2580C1"/>
<path d="M217.229 137.226V142.269L189.523 159.199V116.533L191.283 117.35L213.915 131.318C215.974 132.576 217.229 134.814 217.229 137.226Z" fill="#4E637E"/>
<path d="M106.406 159.199L147.965 184.596L189.523 159.199L217.229 142.269V204.607C217.23 213.106 210.339 219.999 201.839 220H94.0918C85.5907 219.999 78.7008 213.106 78.7008 204.607V142.269L106.406 159.199Z" fill="#334154"/>
<path d="M189.523 116.533V159.199L147.965 184.596L106.406 159.199V86.9848C106.406 80.9188 111.322 76.0014 117.389 76H159.282L159.841 76.0555V94.7013C159.838 100.767 164.756 105.686 170.822 105.686H186.473L189.523 109.087V116.533Z" fill="#449FE0"/>
<path d="M170.649 135.186H125.281C123.943 135.186 122.857 134.101 122.857 132.761C122.857 131.423 123.943 130.337 125.281 130.337H170.649C171.988 130.337 173.073 131.423 173.073 132.761C173.073 134.101 171.988 135.186 170.649 135.186Z" fill="#2580C1"/>
<path d="M148.138 150.424H125.281C123.943 150.424 122.857 149.339 122.857 147.999C122.857 146.662 123.943 145.575 125.281 145.575H148.138C149.477 145.575 150.562 146.662 150.562 147.999C150.562 149.339 149.477 150.424 148.138 150.424Z" fill="#2580C1"/>
</g>
<defs>
<clipPath id="clip0">
<rect width="144" height="144" fill="white" transform="translate(76 76)"/>
</clipPath>
</defs>
</svg>
