<svg width="15" height="14" viewBox="0 0 15 14" fill="none" xmlns="http://www.w3.org/2000/svg">
<path d="M0.666667 5.22664H2.66667V13.2266H0.666667C0.489856 13.2266 0.320286 13.1564 0.195262 13.0314C0.0702379 12.9063 0 12.7368 0 12.56V5.8933C0 5.71649 0.0702379 5.54692 0.195262 5.4219C0.320286 5.29687 0.489856 5.22664 0.666667 5.22664ZM4.19533 4.36464L8.462 0.0979702C8.51871 0.0410995 8.59404 0.00661472 8.67415 0.000857903C8.75425 -0.00489891 8.83374 0.0184593 8.898 0.0666368L9.46667 0.493303C9.6246 0.611867 9.74389 0.774539 9.8095 0.960807C9.87511 1.14708 9.8841 1.3486 9.83533 1.53997L9.06667 4.55997H13.3333C13.687 4.55997 14.0261 4.70045 14.2761 4.95049C14.5262 5.20054 14.6667 5.53968 14.6667 5.8933V7.29597C14.6668 7.47021 14.6329 7.6428 14.5667 7.80397L12.5033 12.814C12.453 12.9361 12.3675 13.0406 12.2577 13.114C12.1479 13.1875 12.0188 13.2267 11.8867 13.2266H4.66667C4.48986 13.2266 4.32029 13.1564 4.19526 13.0314C4.07024 12.9063 4 12.7368 4 12.56V4.83597C4.00004 4.65917 4.0703 4.48963 4.19533 4.36464Z" fill="#BDBDBD"/>
</svg>
