<svg width="56" height="56" viewBox="0 0 56 56" fill="none" xmlns="http://www.w3.org/2000/svg">
<rect x="19.6844" y="44.9995" width="12.2816" height="35.8016" transform="rotate(-135 19.6844 44.9995)" fill="#BDBDBD"/>
<rect x="11" y="19.6841" width="12.2816" height="35.8016" transform="rotate(-45 11 19.6841)" fill="#828282"/>
<path fill-rule="evenodd" clip-rule="evenodd" d="M36.6843 27.9998L27.9999 36.6843L19.3155 27.9998L27.9999 19.3154L36.6843 27.9998Z" fill="#4F4F4F"/>
<path d="M34.4977 32.9205C34.1583 32.5812 33.6081 32.5812 33.2687 32.9205C32.9294 33.2599 32.9294 33.8101 33.2687 34.1495L35.0874 35.9681L33.2687 37.7868C32.9294 38.1262 32.9294 38.6764 33.2687 39.0158C33.6081 39.3551 34.1583 39.3551 34.4977 39.0158L36.3164 37.1971L38.135 39.0158C38.4744 39.3551 39.0246 39.3551 39.364 39.0158C39.7033 38.6764 39.7033 38.1262 39.364 37.7868L37.5453 35.9681L39.364 34.1495C39.7033 33.8101 39.7033 33.2599 39.364 32.9205C39.0246 32.5812 38.4744 32.5812 38.135 32.9205L36.3164 34.7392L34.4977 32.9205Z" fill="white"/>
<path d="M16.8512 16.0977C17.3311 16.0977 17.7201 16.4867 17.7201 16.9666L17.7201 18.6467L20.9643 18.6467V16.9666C20.9643 16.4867 21.3534 16.0977 21.8333 16.0977C22.3132 16.0977 22.7023 16.4867 22.7023 16.9666L22.7023 22.0647C22.7023 22.5446 22.3132 22.9336 21.8333 22.9336C21.3534 22.9336 20.9643 22.5446 20.9643 22.0647V20.3846H17.7201L17.7201 22.0647C17.7201 22.5446 17.3311 22.9336 16.8512 22.9336C16.3712 22.9336 15.9822 22.5446 15.9822 22.0647L15.9822 16.9666C15.9822 16.4867 16.3712 16.0977 16.8512 16.0977Z" fill="white"/>
<path fill-rule="evenodd" clip-rule="evenodd" d="M19.3885 32.785C19.0247 32.7574 18.6635 32.9392 18.4932 33.2692L16.0757 37.9539C16.0064 38.0883 15.9769 38.2314 15.9829 38.3711C15.9826 38.3813 15.9824 38.3916 15.9824 38.4019C15.9824 38.8818 16.3923 39.2708 16.8979 39.2708H21.9027C22.4083 39.2708 22.8182 38.8818 22.8182 38.4019C22.8182 38.29 22.7959 38.183 22.7553 38.0848C22.7412 38.0406 22.7231 37.9968 22.701 37.954L20.2835 33.2692C20.1133 32.9393 19.7522 32.7575 19.3885 32.785ZM18.3319 37.5329H20.4448L19.3883 35.4855L18.3319 37.5329Z" fill="white"/>
<path fill-rule="evenodd" clip-rule="evenodd" d="M36.3163 21.5132C37.4195 21.5132 38.3137 20.6189 38.3137 19.5158C38.3137 18.4127 37.4195 17.5184 36.3163 17.5184C35.2132 17.5184 34.3189 18.4127 34.3189 19.5158C34.3189 20.6189 35.2132 21.5132 36.3163 21.5132ZM36.3163 23.0497C38.268 23.0497 39.8502 21.4675 39.8502 19.5158C39.8502 17.5641 38.268 15.9819 36.3163 15.9819C34.3646 15.9819 32.7825 17.5641 32.7825 19.5158C32.7825 21.4675 34.3646 23.0497 36.3163 23.0497Z" fill="white"/>
</svg>
