<svg width="56" height="56" viewBox="0 0 56 56" fill="none" xmlns="http://www.w3.org/2000/svg">
<path fill-rule="evenodd" clip-rule="evenodd" d="M16.5788 39.8167C13.2034 36.8586 11.0834 32.5861 11.0834 27.835C11.0834 18.9057 18.5717 11.667 27.8089 11.667C37.0462 11.667 44.5345 18.9057 44.5345 27.835C44.5345 36.7644 37.0462 44.003 27.8089 44.003C25.7809 44.003 23.8372 43.6541 22.0385 43.015L18.2674 44.1562C17.6708 44.3368 17.0562 43.9334 16.9844 43.3143L16.5788 39.8167Z" fill="#BDBDBD"/>
<path d="M32.3808 31.3477V31.7376C32.3808 32.1517 32.2162 32.549 31.9235 32.8416C31.6309 33.1343 31.2336 33.2989 30.8203 33.2989H24.5766C24.1632 33.2989 23.766 33.1343 23.4733 32.8416C23.1807 32.549 23.016 32.1517 23.016 31.7376V31.3477H32.3808Z" fill="white"/>
<path d="M30.8203 34.0791V34.1808C30.8203 34.5678 30.6666 34.9388 30.3922 35.2124C30.1186 35.4867 29.7477 35.6404 29.3607 35.6404H26.0362C25.6491 35.6404 25.2782 35.4867 25.0046 35.2124C24.7302 34.9388 24.5766 34.5678 24.5766 34.1808V34.0791H30.8203Z" fill="white"/>
<path d="M21.4554 26.2755C21.4547 24.2145 22.4709 22.286 24.1719 21.1212C25.8722 19.9572 28.0379 19.7069 29.959 20.4539C31.8803 21.2002 33.3091 22.8463 33.7781 24.8531C34.2464 26.86 33.6947 28.9693 32.3024 30.4896V30.5679L28.479 30.5671V28.4762C29.4118 28.1462 30.0366 27.2646 30.0395 26.2755C30.0395 25.8445 29.6898 25.4948 29.2589 25.4948C28.828 25.4948 28.479 25.8445 28.479 26.2755C28.479 26.7064 28.1293 27.0554 27.6983 27.0554C27.2674 27.0554 26.9177 26.7064 26.9177 26.2755C26.9177 25.8445 26.5687 25.4948 26.1378 25.4948C25.7068 25.4948 25.3571 25.8445 25.3571 26.2755C25.3601 27.2646 25.9849 28.1462 26.9177 28.4762V30.5671H23.0781V30.4889V30.4896C22.0231 29.3409 21.4429 27.8345 21.4554 26.2754L21.4554 26.2755Z" fill="white"/>
</svg>
