<svg width="56" height="56" viewBox="0 0 56 56" fill="none" xmlns="http://www.w3.org/2000/svg">
<path d="M15.8817 39.4517C14.3317 37.9057 13.1026 36.0688 12.2648 34.0463C11.4271 32.0239 10.9972 29.8558 11 27.6667C11 18.4617 18.4617 11 27.6667 11C36.8717 11 44.3333 18.4617 44.3333 27.6667C44.3333 36.8717 36.8717 44.3333 27.6667 44.3333H11L15.8817 39.4517ZM21 29.3333C21 31.1014 21.7024 32.7971 22.9526 34.0474C24.2029 35.2976 25.8986 36 27.6667 36C29.4348 36 31.1305 35.2976 32.3807 34.0474C33.631 32.7971 34.3333 31.1014 34.3333 29.3333H21Z" fill="#BDBDBD"/>
</svg>
