<svg width="56" height="56" viewBox="0 0 56 56" fill="none" xmlns="http://www.w3.org/2000/svg">
<rect x="11.6666" y="43.1665" width="22.1667" height="8.75" rx="1" transform="rotate(-90 11.6666 43.1665)" fill="#828282"/>
<rect x="23.3333" y="43.1665" width="30.3333" height="8.75" rx="1" transform="rotate(-90 23.3333 43.1665)" fill="#828282"/>
<path d="M36 43.1665C35.4477 43.1665 35 42.7188 35 42.1665L35 27.8332C35 27.2809 35.4477 26.8332 36 26.8332L42.75 26.8332C43.3023 26.8332 43.75 27.2809 43.75 27.8332L43.75 42.1665C43.75 42.7188 43.3023 43.1665 42.75 43.1665L36 43.1665Z" fill="#828282"/>
<path d="M12.6666 43.1665C12.1143 43.1665 11.6666 42.7188 11.6666 42.1665L11.6666 31.7915L20.4166 31.7915L20.4166 42.1665C20.4166 42.7188 19.9689 43.1665 19.4166 43.1665L12.6666 43.1665Z" fill="#BDBDBD"/>
<path d="M24.3333 43.1665C23.781 43.1665 23.3333 42.7188 23.3333 42.1665L23.3333 27.4165L32.0833 27.4165L32.0833 42.1665C32.0833 42.7188 31.6356 43.1665 31.0833 43.1665L24.3333 43.1665Z" fill="#BDBDBD"/>
<path d="M36 43.1665C35.4477 43.1665 35 42.7188 35 42.1665L35 35.2915L43.75 35.2915L43.75 42.1665C43.75 42.7188 43.3023 43.1665 42.75 43.1665L36 43.1665Z" fill="#BDBDBD"/>
</svg>
