<svg width="56" height="56" viewBox="0 0 56 56" fill="none" xmlns="http://www.w3.org/2000/svg">
<path fill-rule="evenodd" clip-rule="evenodd" d="M15.75 15.4699C13.4948 15.4699 11.6666 17.2981 11.6666 19.5532V38.8105C11.6666 41.0657 13.4948 42.8938 15.75 42.8938H31.8429C34.0981 42.8938 35.9263 41.0657 35.9263 38.8105V19.5532C35.9263 17.2981 34.0981 15.4699 31.8429 15.4699H29.0703V16.8842C29.0703 17.8507 28.2868 18.6342 27.3203 18.6342H19.7452C18.7787 18.6342 17.9952 17.8507 17.9952 16.8842V15.4699H15.75Z" fill="#BDBDBD"/>
<path d="M19.5774 13.9997C19.5774 13.3553 20.0997 12.833 20.744 12.833H26.3215C26.9658 12.833 27.4881 13.3553 27.4881 13.9997V15.8854C27.4881 16.5297 26.9658 17.0521 26.3215 17.0521H20.744C20.0997 17.0521 19.5774 16.5297 19.5774 15.8854V13.9997Z" fill="#BDBDBD"/>
<path fill-rule="evenodd" clip-rule="evenodd" d="M18.7222 22.1383C18.9101 22.3054 18.9406 22.61 18.7903 22.8188L16.6988 25.7237C16.5574 25.9201 16.3041 25.9635 16.1161 25.8236L14.7217 24.7861C14.5218 24.6373 14.4682 24.3366 14.6021 24.1144C14.736 23.8923 15.0067 23.8328 15.2066 23.9815L16.2683 24.7715L18.1098 22.2139C18.2601 22.0052 18.5343 21.9713 18.7222 22.1383Z" fill="white"/>
<rect x="21.1596" y="22.8535" width="11.6024" height="2.10953" fill="white"/>
<g opacity="0.53">
<path fill-rule="evenodd" clip-rule="evenodd" d="M18.7222 28.4323C18.9101 28.5993 18.9406 28.904 18.7903 29.1128L16.6988 32.0177C16.5574 32.2141 16.3041 32.2575 16.1161 32.1175L14.7217 31.0801C14.5218 30.9313 14.4682 30.6306 14.6021 30.4084C14.736 30.1862 15.0067 30.1267 15.2066 30.2755L16.2683 31.0655L18.1098 28.5079C18.2601 28.2991 18.5343 28.2652 18.7222 28.4323Z" fill="white"/>
<rect x="21.1596" y="29.1821" width="11.6024" height="2.10953" fill="white"/>
</g>
<g opacity="0.53">
<path fill-rule="evenodd" clip-rule="evenodd" d="M18.7222 34.7262C18.9101 34.8933 18.9406 35.1979 18.7903 35.4067L16.6988 38.3116C16.5574 38.508 16.3041 38.5514 16.1161 38.4115L14.7217 37.374C14.5218 37.2252 14.4682 36.9245 14.6021 36.7023C14.736 36.4802 15.0067 36.4207 15.2066 36.5694L16.2683 37.3594L18.1098 34.8018C18.2601 34.593 18.5343 34.5592 18.7222 34.7262Z" fill="white"/>
<rect x="21.1596" y="35.5107" width="11.6024" height="2.10954" fill="white"/>
</g>
<path d="M42.8673 23.4942H38.5307C38.2575 23.4942 38.0358 23.716 38.0358 23.9892C38.0358 23.9919 38.0371 23.9932 38.0371 23.9959V34.9033C38.0371 35.1805 38.2548 35.3982 38.5321 35.3982H41.841C42.1128 35.3982 42.336 35.1805 42.336 34.9033V24.4827H42.8674C43.1298 24.4827 43.3434 24.6963 43.3434 24.9586V28.9722C43.3434 29.2454 43.5652 29.4672 43.8383 29.4672C44.1115 29.4672 44.3333 29.2454 44.3333 28.9722V24.9586C44.3319 24.15 43.6761 23.4941 42.8674 23.4941L42.8673 23.4942Z" fill="#BDBDBD"/>
<path d="M39.7395 38.5977C39.8234 38.7707 39.9965 38.8789 40.1844 38.8789C40.3778 38.8789 40.5509 38.7707 40.6347 38.5977L41.6841 36.3867H38.6888L39.7395 38.5977Z" fill="#BDBDBD"/>
<path d="M41.8424 22.5043C42.0168 22.5043 42.1818 22.5394 42.3373 22.5949V21.9796C42.3373 21.2967 41.7829 20.7437 41.1013 20.7437H39.2772C38.5943 20.7437 38.0412 21.2981 38.0412 21.9796V22.5949C38.1967 22.5394 38.3617 22.5043 38.5361 22.5043H41.8424Z" fill="#BDBDBD"/>
</svg>
