<svg width="18" height="16" viewBox="0 0 18 16" fill="none" xmlns="http://www.w3.org/2000/svg">
<path d="M2.92455 13.6568C2.1039 12.9148 1.45309 12.033 1.00953 11.0622C0.565958 10.0914 0.338373 9.05077 0.339851 8C0.339851 3.5816 4.29058 0 9.16436 0C14.0381 0 17.9889 3.5816 17.9889 8C17.9889 12.4184 14.0381 16 9.16436 16H0.339851L2.92455 13.6568ZM5.63456 8.8C5.63456 9.64869 6.00644 10.4626 6.66841 11.0627C7.33038 11.6629 8.2282 12 9.16436 12C10.1005 12 10.9983 11.6629 11.6603 11.0627C12.3223 10.4626 12.6942 9.64869 12.6942 8.8H5.63456Z" fill="url(#paint0_linear)"/>
<defs>
<linearGradient id="paint0_linear" x1="17.8124" y1="3.78297e-07" x2="2.24185" y2="19.5174" gradientUnits="userSpaceOnUse">
<stop stop-color="#02934E"/>
<stop offset="1" stop-color="#0DC141"/>
</linearGradient>
</defs>
</svg>
