<svg width="157" height="113" viewBox="0 0 157 113" fill="none" xmlns="http://www.w3.org/2000/svg">
<path d="M7.25628 23.0075C8.63793 23.0075 9.75798 21.8784 9.75798 20.4857C9.75798 19.0929 8.63793 17.9639 7.25628 17.9639C5.87463 17.9639 4.75458 19.0929 4.75458 20.4857C4.75458 21.8784 5.87463 23.0075 7.25628 23.0075Z" fill="#E6E6E6"/>
<path d="M14.7613 23.0075C16.143 23.0075 17.263 21.8784 17.263 20.4857C17.263 19.0929 16.143 17.9639 14.7613 17.9639C13.3797 17.9639 12.2596 19.0929 12.2596 20.4857C12.2596 21.8784 13.3797 23.0075 14.7613 23.0075Z" fill="#E6E6E6"/>
<path d="M22.2664 23.0075C23.6481 23.0075 24.7681 21.8784 24.7681 20.4857C24.7681 19.0929 23.6481 17.9639 22.2664 17.9639C20.8848 17.9639 19.7647 19.0929 19.7647 20.4857C19.7647 21.8784 20.8848 23.0075 22.2664 23.0075Z" fill="#E6E6E6"/>
<path d="M29.7715 23.0075C31.1532 23.0075 32.2732 21.8784 32.2732 20.4857C32.2732 19.0929 31.1532 17.9639 29.7715 17.9639C28.3899 17.9639 27.2698 19.0929 27.2698 20.4857C27.2698 21.8784 28.3899 23.0075 29.7715 23.0075Z" fill="#E6E6E6"/>
<path d="M37.2766 23.0075C38.6583 23.0075 39.7783 21.8784 39.7783 20.4857C39.7783 19.0929 38.6583 17.9639 37.2766 17.9639C35.895 17.9639 34.7749 19.0929 34.7749 20.4857C34.7749 21.8784 35.895 23.0075 37.2766 23.0075Z" fill="#E6E6E6"/>
<path d="M44.7817 23.0075C46.1634 23.0075 47.2834 21.8784 47.2834 20.4857C47.2834 19.0929 46.1634 17.9639 44.7817 17.9639C43.4001 17.9639 42.28 19.0929 42.28 20.4857C42.28 21.8784 43.4001 23.0075 44.7817 23.0075Z" fill="#E6E6E6"/>
<path d="M52.2868 23.0075C53.6685 23.0075 54.7885 21.8784 54.7885 20.4857C54.7885 19.0929 53.6685 17.9639 52.2868 17.9639C50.9052 17.9639 49.7851 19.0929 49.7851 20.4857C49.7851 21.8784 50.9052 23.0075 52.2868 23.0075Z" fill="#E6E6E6"/>
<path d="M58.0678 23.5565H1.4753C1.20539 23.5561 0.946631 23.4479 0.755776 23.2555C0.564922 23.0631 0.457562 22.8023 0.457245 22.5302V18.4408C0.457562 18.1687 0.564922 17.9079 0.755776 17.7155C0.946631 17.5231 1.20539 17.4149 1.4753 17.4146H58.0678C58.3377 17.4149 58.5964 17.5231 58.7873 17.7155C58.9781 17.9079 59.0855 18.1687 59.0858 18.4408V22.5302C59.0855 22.8023 58.9781 23.0631 58.7873 23.2555C58.5964 23.4479 58.3377 23.5561 58.0678 23.5565ZM1.4753 17.8251C1.31335 17.8252 1.15809 17.8902 1.04357 18.0056C0.929058 18.121 0.864645 18.2775 0.864468 18.4408V22.5302C0.864645 22.6935 0.929058 22.85 1.04357 22.9654C1.15809 23.0809 1.31335 23.1458 1.4753 23.146H58.0678C58.2297 23.1458 58.385 23.0809 58.4995 22.9654C58.614 22.85 58.6784 22.6935 58.6786 22.5302V18.4408C58.6784 18.2775 58.614 18.121 58.4995 18.0056C58.385 17.8902 58.2297 17.8252 58.0678 17.825L1.4753 17.8251Z" fill="#E6E6E6"/>
<path d="M13.5865 0.589637C13.7416 0.589816 13.8902 0.651996 13.9999 0.762534C14.1095 0.873072 14.1712 1.02294 14.1714 1.17927V13.9566C14.1712 14.1129 14.1095 14.2628 13.9999 14.3733C13.8902 14.4839 13.7416 14.546 13.5865 14.5462H1.16991C1.01483 14.546 0.866154 14.4839 0.756497 14.3733C0.64684 14.2628 0.585156 14.1129 0.584978 13.9566V1.17928C0.585156 1.02295 0.64684 0.873081 0.756497 0.762543C0.866154 0.652004 1.01483 0.589824 1.16991 0.589646H13.5865V0.589637ZM13.5865 8.46912e-06H1.16991C0.859639 8.46912e-06 0.562076 0.124253 0.342682 0.34541C0.123287 0.566568 3.05176e-05 0.866522 3.05176e-05 1.17929V13.9566C3.05176e-05 14.2694 0.123287 14.5693 0.342682 14.7905C0.562076 15.0116 0.859639 15.1359 1.16991 15.1359H13.5865C13.8968 15.1359 14.1943 15.0116 14.4137 14.7905C14.6331 14.5693 14.7564 14.2694 14.7564 13.9566V1.17928C14.7564 0.866513 14.6331 0.566559 14.4137 0.345402C14.1943 0.124245 13.8968 4.90678e-07 13.5865 0V8.46912e-06Z" fill="#E6E6E6"/>
<path d="M11.6497 3.94852H3.36549C3.32693 3.94876 3.28871 3.94131 3.25302 3.9266C3.21733 3.91189 3.18488 3.89022 3.15753 3.86282C3.13018 3.83542 3.10847 3.80284 3.09366 3.76695C3.07885 3.73106 3.07123 3.69258 3.07123 3.65371C3.07123 3.61484 3.07885 3.57635 3.09366 3.54047C3.10847 3.50458 3.13018 3.472 3.15753 3.4446C3.18488 3.4172 3.21733 3.39552 3.25302 3.38081C3.28871 3.3661 3.32693 3.35865 3.36549 3.35889H11.6497C11.6883 3.35865 11.7265 3.3661 11.7622 3.38081C11.7979 3.39552 11.8304 3.4172 11.8577 3.4446C11.8851 3.472 11.9068 3.50458 11.9216 3.54047C11.9364 3.57635 11.944 3.61484 11.944 3.65371C11.944 3.69258 11.9364 3.73106 11.9216 3.76695C11.9068 3.80284 11.8851 3.83542 11.8577 3.86282C11.8304 3.89022 11.7979 3.91189 11.7622 3.9266C11.7265 3.94131 11.6883 3.94876 11.6497 3.94852Z" fill="#02964D"/>
<path d="M11.6497 6.03592H3.36549C3.32693 6.03616 3.28871 6.02871 3.25302 6.014C3.21733 5.99929 3.18488 5.97761 3.15753 5.95022C3.13018 5.92282 3.10847 5.89023 3.09366 5.85435C3.07885 5.81846 3.07123 5.77998 3.07123 5.74111C3.07123 5.70224 3.07885 5.66375 3.09366 5.62787C3.10847 5.59198 3.13018 5.5594 3.15753 5.532C3.18488 5.5046 3.21733 5.48292 3.25302 5.46822C3.28871 5.45351 3.32693 5.44606 3.36549 5.44629H11.6497C11.6883 5.44606 11.7265 5.45351 11.7622 5.46822C11.7979 5.48292 11.8304 5.5046 11.8577 5.532C11.8851 5.5594 11.9068 5.59198 11.9216 5.62787C11.9364 5.66375 11.944 5.70224 11.944 5.74111C11.944 5.77998 11.9364 5.81846 11.9216 5.85435C11.9068 5.89023 11.8851 5.92282 11.8577 5.95022C11.8304 5.97761 11.7979 5.99929 11.7622 6.014C11.7265 6.02871 11.6883 6.03616 11.6497 6.03592Z" fill="#02964D"/>
<path d="M11.6497 8.12381H3.36549C3.32693 8.12405 3.28871 8.1166 3.25302 8.10189C3.21733 8.08718 3.18488 8.06551 3.15753 8.03811C3.13018 8.01071 3.10847 7.97812 3.09366 7.94224C3.07885 7.90635 3.07123 7.86787 3.07123 7.829C3.07123 7.79013 3.07885 7.75164 3.09366 7.71576C3.10847 7.67987 3.13018 7.64729 3.15753 7.61989C3.18488 7.59249 3.21733 7.57081 3.25302 7.5561C3.28871 7.54139 3.32693 7.53395 3.36549 7.53419H11.6497C11.6883 7.53395 11.7265 7.54139 11.7622 7.5561C11.7979 7.57081 11.8304 7.59249 11.8577 7.61989C11.8851 7.64729 11.9068 7.67987 11.9216 7.71576C11.9364 7.75164 11.944 7.79013 11.944 7.829C11.944 7.86787 11.9364 7.90635 11.9216 7.94224C11.9068 7.97812 11.8851 8.01071 11.8577 8.03811C11.8304 8.06551 11.7979 8.08718 11.7622 8.10189C11.7265 8.1166 11.6883 8.12405 11.6497 8.12381Z" fill="#02964D"/>
<path d="M11.6497 10.2112H3.36549C3.32693 10.2115 3.28871 10.204 3.25302 10.1893C3.21733 10.1746 3.18488 10.1529 3.15753 10.1255C3.13018 10.0981 3.10847 10.0655 3.09366 10.0296C3.07885 9.99375 3.07123 9.95527 3.07123 9.9164C3.07123 9.87753 3.07885 9.83905 3.09366 9.80316C3.10847 9.76727 3.13018 9.73469 3.15753 9.70729C3.18488 9.67989 3.21733 9.65821 3.25302 9.64351C3.28871 9.6288 3.32693 9.62135 3.36549 9.62159H11.6497C11.6883 9.62135 11.7265 9.6288 11.7622 9.64351C11.7979 9.65821 11.8304 9.67989 11.8577 9.70729C11.8851 9.73469 11.9068 9.76727 11.9216 9.80316C11.9364 9.83905 11.944 9.87753 11.944 9.9164C11.944 9.95527 11.9364 9.99375 11.9216 10.0296C11.9068 10.0655 11.8851 10.0981 11.8577 10.1255C11.8304 10.1529 11.7979 10.1746 11.7622 10.1893C11.7265 10.204 11.6883 10.2115 11.6497 10.2112Z" fill="#02964D"/>
<path d="M11.6497 12.2991H3.36547C3.2879 12.2991 3.21351 12.2681 3.15866 12.2128C3.10381 12.1575 3.073 12.0825 3.073 12.0043C3.073 11.9261 3.10381 11.8511 3.15866 11.7958C3.21351 11.7405 3.2879 11.7095 3.36547 11.7095H11.6497C11.7273 11.7095 11.8017 11.7405 11.8565 11.7958C11.9114 11.8511 11.9422 11.9261 11.9422 12.0043C11.9422 12.0825 11.9114 12.1575 11.8565 12.2128C11.8017 12.2681 11.7273 12.2991 11.6497 12.2991Z" fill="#02964D"/>
<path d="M55.9945 0.589637C56.1496 0.589816 56.2982 0.651996 56.4079 0.762534C56.5176 0.873072 56.5792 1.02294 56.5794 1.17927V13.9566C56.5792 14.1129 56.5176 14.2628 56.4079 14.3733C56.2982 14.4839 56.1496 14.546 55.9945 14.5462H43.5779C43.4228 14.546 43.2741 14.4839 43.1645 14.3733C43.0548 14.2628 42.9931 14.1129 42.993 13.9566V1.17928C42.9931 1.02295 43.0548 0.873081 43.1645 0.762543C43.2741 0.652004 43.4228 0.589824 43.5779 0.589646H55.9945V0.589637ZM55.9945 8.46912e-06H43.5779C43.2676 8.46912e-06 42.9701 0.124253 42.7507 0.34541C42.5313 0.566568 42.408 0.866522 42.408 1.17929V13.9566C42.408 14.2694 42.5313 14.5693 42.7507 14.7905C42.9701 15.0116 43.2676 15.1359 43.5779 15.1359H55.9945C56.3048 15.1359 56.6023 15.0116 56.8217 14.7905C57.0411 14.5693 57.1644 14.2694 57.1644 13.9566V1.17928C57.1644 0.866513 57.0411 0.566559 56.8217 0.345402C56.6023 0.124244 56.3048 0 55.9945 0V8.46912e-06Z" fill="#E6E6E6"/>
<path d="M54.0578 3.94852H45.7735C45.735 3.94876 45.6968 3.94131 45.6611 3.9266C45.6254 3.91189 45.5929 3.89022 45.5656 3.86282C45.5382 3.83542 45.5165 3.80284 45.5017 3.76695C45.4869 3.73106 45.4793 3.69258 45.4793 3.65371C45.4793 3.61484 45.4869 3.57635 45.5017 3.54047C45.5165 3.50458 45.5382 3.472 45.5656 3.4446C45.5929 3.4172 45.6254 3.39552 45.6611 3.38081C45.6968 3.3661 45.735 3.35865 45.7735 3.35889H54.0578C54.135 3.35937 54.209 3.39064 54.2634 3.44588C54.3179 3.50112 54.3485 3.57583 54.3485 3.65371C54.3485 3.73159 54.3179 3.8063 54.2634 3.86153C54.209 3.91677 54.135 3.94804 54.0578 3.94852H54.0578Z" fill="#02964D"/>
<path d="M54.0578 6.03592H45.7735C45.735 6.03616 45.6968 6.02871 45.6611 6.014C45.6254 5.99929 45.5929 5.97761 45.5656 5.95022C45.5382 5.92282 45.5165 5.89023 45.5017 5.85435C45.4869 5.81846 45.4793 5.77998 45.4793 5.74111C45.4793 5.70224 45.4869 5.66375 45.5017 5.62787C45.5165 5.59198 45.5382 5.5594 45.5656 5.532C45.5929 5.5046 45.6254 5.48292 45.6611 5.46822C45.6968 5.45351 45.735 5.44606 45.7735 5.44629H54.0578C54.135 5.44677 54.209 5.47804 54.2634 5.53328C54.3179 5.58852 54.3485 5.66323 54.3485 5.74111C54.3485 5.81898 54.3179 5.8937 54.2634 5.94894C54.209 6.00417 54.135 6.03544 54.0578 6.03592H54.0578Z" fill="#02964D"/>
<path d="M54.0578 8.12381H45.7735C45.735 8.12405 45.6968 8.1166 45.6611 8.10189C45.6254 8.08718 45.5929 8.06551 45.5656 8.03811C45.5382 8.01071 45.5165 7.97812 45.5017 7.94224C45.4869 7.90635 45.4793 7.86787 45.4793 7.829C45.4793 7.79013 45.4869 7.75164 45.5017 7.71576C45.5165 7.67987 45.5382 7.64729 45.5656 7.61989C45.5929 7.59249 45.6254 7.57081 45.6611 7.5561C45.6968 7.54139 45.735 7.53395 45.7735 7.53419H54.0578C54.135 7.53466 54.209 7.56593 54.2634 7.62117C54.3179 7.67641 54.3485 7.75112 54.3485 7.829C54.3485 7.90688 54.3179 7.98159 54.2634 8.03683C54.209 8.09206 54.135 8.12334 54.0578 8.12381H54.0578Z" fill="#02964D"/>
<path d="M54.0578 10.2112H45.7735C45.735 10.2115 45.6968 10.204 45.6611 10.1893C45.6254 10.1746 45.5929 10.1529 45.5656 10.1255C45.5382 10.0981 45.5165 10.0655 45.5017 10.0296C45.4869 9.99375 45.4793 9.95527 45.4793 9.9164C45.4793 9.87753 45.4869 9.83905 45.5017 9.80316C45.5165 9.76727 45.5382 9.73469 45.5656 9.70729C45.5929 9.67989 45.6254 9.65821 45.6611 9.64351C45.6968 9.6288 45.735 9.62135 45.7735 9.62159H54.0578C54.135 9.62207 54.209 9.65334 54.2634 9.70857C54.3179 9.76381 54.3485 9.83852 54.3485 9.9164C54.3485 9.99428 54.3179 10.069 54.2634 10.1242C54.209 10.1795 54.135 10.2107 54.0578 10.2112H54.0578Z" fill="#02964D"/>
<path d="M54.0578 12.2991H45.7735C45.696 12.2991 45.6216 12.2681 45.5667 12.2128C45.5119 12.1575 45.481 12.0825 45.481 12.0043C45.481 11.9261 45.5119 11.8511 45.5667 11.7958C45.6216 11.7405 45.696 11.7095 45.7735 11.7095H54.0578C54.1353 11.7095 54.2097 11.7405 54.2646 11.7958C54.3194 11.8511 54.3502 11.9261 54.3502 12.0043C54.3502 12.0825 54.3194 12.1575 54.2646 12.2128C54.2097 12.2681 54.1353 12.2991 54.0578 12.2991H54.0578Z" fill="#02964D"/>
<path d="M98.1965 25.1575C98.3516 25.1577 98.5003 25.2199 98.6099 25.3304C98.7196 25.4409 98.7813 25.5908 98.7815 25.7471V38.5245C98.7813 38.6808 98.7196 38.8307 98.6099 38.9412C98.5003 39.0517 98.3516 39.1139 98.1965 39.1141H85.7799C85.6249 39.1139 85.4762 39.0517 85.3665 38.9412C85.2569 38.8307 85.1952 38.6808 85.195 38.5245V25.7472C85.1952 25.5908 85.2569 25.441 85.3665 25.3304C85.4762 25.2199 85.6249 25.1577 85.7799 25.1575H98.1965V25.1575ZM98.1965 24.5679H85.7799C85.4697 24.5679 85.1721 24.6921 84.9527 24.9133C84.7333 25.1345 84.6101 25.4344 84.6101 25.7472V38.5245C84.6101 38.8373 84.7333 39.1372 84.9527 39.3584C85.1721 39.5795 85.4697 39.7038 85.7799 39.7038H98.1965C98.5068 39.7038 98.8043 39.5795 99.0237 39.3584C99.2431 39.1372 99.3664 38.8373 99.3664 38.5245V25.7472C99.3664 25.4344 99.2431 25.1344 99.0237 24.9133C98.8043 24.6921 98.5068 24.5679 98.1965 24.5679V24.5679Z" fill="#02964D"/>
<path d="M96.2598 28.5159H87.9756C87.937 28.5161 87.8988 28.5087 87.8631 28.494C87.8274 28.4793 87.795 28.4576 87.7676 28.4302C87.7403 28.4028 87.7186 28.3702 87.7037 28.3343C87.6889 28.2984 87.6813 28.26 87.6813 28.2211C87.6813 28.1822 87.6889 28.1437 87.7037 28.1079C87.7186 28.072 87.7403 28.0394 87.7676 28.012C87.795 27.9846 87.8274 27.9629 87.8631 27.9482C87.8988 27.9335 87.937 27.926 87.9756 27.9263H96.2598C96.3371 27.9268 96.411 27.958 96.4655 28.0133C96.5199 28.0685 96.5505 28.1432 96.5505 28.2211C96.5505 28.299 96.5199 28.3737 96.4655 28.4289C96.411 28.4842 96.3371 28.5154 96.2598 28.5159Z" fill="#02964D"/>
<path d="M96.2598 30.6038H87.9756C87.898 30.6038 87.8236 30.5727 87.7687 30.5174C87.7139 30.4622 87.6831 30.3872 87.6831 30.309C87.6831 30.2308 87.7139 30.1558 87.7687 30.1005C87.8236 30.0452 87.898 30.0142 87.9756 30.0142H96.2598C96.3374 30.0142 96.4118 30.0452 96.4666 30.1005C96.5215 30.1558 96.5523 30.2308 96.5523 30.309C96.5523 30.3872 96.5215 30.4622 96.4666 30.5174C96.4118 30.5727 96.3374 30.6038 96.2598 30.6038Z" fill="#02964D"/>
<path d="M96.2598 32.6917H87.9756C87.937 32.6919 87.8988 32.6844 87.8632 32.6697C87.8275 32.6549 87.7951 32.6332 87.7678 32.6059C87.7405 32.5785 87.7188 32.5459 87.704 32.51C87.6892 32.4742 87.6816 32.4357 87.6816 32.3969C87.6816 32.358 87.6892 32.3196 87.704 32.2837C87.7188 32.2478 87.7405 32.2153 87.7678 32.1879C87.7951 32.1605 87.8275 32.1388 87.8632 32.1241C87.8988 32.1093 87.937 32.1019 87.9756 32.1021H96.2598C96.3371 32.1025 96.411 32.1338 96.4655 32.189C96.5199 32.2443 96.5505 32.319 96.5505 32.3969C96.5505 32.4747 96.5199 32.5495 96.4655 32.6047C96.411 32.6599 96.3371 32.6912 96.2598 32.6917Z" fill="#02964D"/>
<path d="M96.2598 34.7791H87.9756C87.937 34.7793 87.8988 34.7719 87.8631 34.7572C87.8274 34.7425 87.795 34.7208 87.7676 34.6934C87.7403 34.666 87.7186 34.6334 87.7037 34.5975C87.6889 34.5616 87.6813 34.5231 87.6813 34.4843C87.6813 34.4454 87.6889 34.4069 87.7037 34.371C87.7186 34.3351 87.7403 34.3026 87.7676 34.2752C87.795 34.2478 87.8274 34.2261 87.8631 34.2114C87.8988 34.1967 87.937 34.1892 87.9756 34.1895H96.2598C96.3371 34.1899 96.411 34.2212 96.4655 34.2764C96.5199 34.3317 96.5505 34.4064 96.5505 34.4843C96.5505 34.5621 96.5199 34.6369 96.4655 34.6921C96.411 34.7473 96.3371 34.7786 96.2598 34.7791Z" fill="#02964D"/>
<path d="M96.2598 36.867H87.9756C87.937 36.8672 87.8988 36.8598 87.8631 36.8451C87.8274 36.8303 87.795 36.8087 87.7676 36.7813C87.7403 36.7539 87.7186 36.7213 87.7037 36.6854C87.6889 36.6495 87.6813 36.611 87.6813 36.5722C87.6813 36.5333 87.6889 36.4948 87.7037 36.4589C87.7186 36.423 87.7403 36.3905 87.7676 36.3631C87.795 36.3357 87.8274 36.314 87.8631 36.2993C87.8988 36.2846 87.937 36.2771 87.9756 36.2773H96.2598C96.3371 36.2778 96.411 36.3091 96.4655 36.3643C96.5199 36.4196 96.5505 36.4943 96.5505 36.5722C96.5505 36.65 96.5199 36.7248 96.4655 36.78C96.411 36.8352 96.3371 36.8665 96.2598 36.867Z" fill="#02964D"/>
<path d="M34.953 15.1358H22.2113C21.8667 15.1354 21.5364 14.9972 21.2927 14.7516C21.0491 14.506 20.912 14.173 20.9116 13.8256V4.63498C20.912 4.28762 21.049 3.95458 21.2927 3.70895C21.5363 3.46331 21.8667 3.32512 22.2113 3.32471H34.953C35.2976 3.32509 35.628 3.46326 35.8717 3.7089C36.1154 3.95454 36.2524 4.28759 36.2528 4.63498V13.8256C36.2524 14.173 36.1153 14.506 35.8716 14.7516C35.6279 14.9972 35.2976 15.1354 34.953 15.1358ZM22.2113 3.91434C22.0218 3.91458 21.8401 3.99059 21.7061 4.12569C21.5721 4.26078 21.4967 4.44394 21.4965 4.63498V13.8256C21.4967 14.0167 21.5721 14.1998 21.7061 14.3349C21.8401 14.4699 22.0218 14.5459 22.2113 14.5461H34.953C35.1425 14.5459 35.3242 14.47 35.4582 14.3349C35.5922 14.1998 35.6676 14.0167 35.6679 13.8256V4.63498C35.6676 4.44393 35.5922 4.26077 35.4582 4.12567C35.3242 3.99058 35.1425 3.91458 34.953 3.91434H22.2113Z" fill="#E6E6E6"/>
<path d="M32.7243 7.43729H24.44C24.3628 7.43681 24.2888 7.40554 24.2344 7.35031C24.1799 7.29507 24.1494 7.22036 24.1494 7.14248C24.1494 7.0646 24.1799 6.98988 24.2344 6.93465C24.2888 6.87941 24.3628 6.84814 24.44 6.84766H32.7243C32.7628 6.84742 32.8011 6.85487 32.8368 6.86958C32.8724 6.88429 32.9049 6.90597 32.9322 6.93337C32.9596 6.96077 32.9813 6.99335 32.9961 7.02924C33.0109 7.06512 33.0185 7.10361 33.0185 7.14248C33.0185 7.18135 33.0109 7.21983 32.9961 7.25572C32.9813 7.29161 32.9596 7.32419 32.9322 7.35159C32.9049 7.37899 32.8724 7.40066 32.8368 7.41537C32.8011 7.43008 32.7628 7.43753 32.7243 7.43729Z" fill="#02964D"/>
<path d="M32.7243 9.52518H24.44C24.3628 9.5247 24.2888 9.49343 24.2344 9.43819C24.1799 9.38296 24.1494 9.30825 24.1494 9.23037C24.1494 9.15249 24.1799 9.07778 24.2344 9.02254C24.2888 8.9673 24.3628 8.93603 24.44 8.93555H32.7243C32.7628 8.93531 32.8011 8.94276 32.8368 8.95747C32.8724 8.97218 32.9049 8.99386 32.9322 9.02126C32.9596 9.04866 32.9813 9.08124 32.9961 9.11713C33.0109 9.15301 33.0185 9.1915 33.0185 9.23037C33.0185 9.26924 33.0109 9.30772 32.9961 9.34361C32.9813 9.3795 32.9596 9.41208 32.9322 9.43948C32.9049 9.46688 32.8724 9.48855 32.8368 9.50326C32.8011 9.51797 32.7628 9.52542 32.7243 9.52518Z" fill="#02964D"/>
<path d="M32.7243 11.6126H24.44C24.3628 11.6121 24.2888 11.5808 24.2344 11.5256C24.1799 11.4704 24.1494 11.3956 24.1494 11.3178C24.1494 11.2399 24.1799 11.1652 24.2344 11.1099C24.2888 11.0547 24.3628 11.0234 24.44 11.023H32.7243C32.7628 11.0227 32.8011 11.0302 32.8368 11.0449C32.8724 11.0596 32.9049 11.0813 32.9322 11.1087C32.9596 11.1361 32.9813 11.1686 32.9961 11.2045C33.0109 11.2404 33.0185 11.2789 33.0185 11.3178C33.0185 11.3566 33.0109 11.3951 32.9961 11.431C32.9813 11.4669 32.9596 11.4995 32.9322 11.5269C32.9049 11.5543 32.8724 11.576 32.8368 11.5907C32.8011 11.6054 32.7628 11.6128 32.7243 11.6126Z" fill="#02964D"/>
<path d="M77.232 20.2289L64.9945 16.6515C64.6637 16.5544 64.3846 16.3289 64.2184 16.0246C64.0523 15.7203 64.0126 15.362 64.1082 15.0283L66.6476 6.20134C66.744 5.86783 66.9676 5.58645 67.2695 5.41894C67.5714 5.25143 67.9269 5.21147 68.2579 5.30782L80.4954 8.88522C80.8263 8.98234 81.1055 9.2078 81.2716 9.51214C81.4378 9.81648 81.4774 10.1748 81.3818 10.5086L78.8424 19.3356C78.746 19.6691 78.5223 19.9504 78.2204 20.1179C77.9185 20.2854 77.5631 20.3253 77.232 20.2289ZM68.095 5.87412C67.9129 5.82114 67.7174 5.84313 67.5514 5.93526C67.3854 6.02739 67.2624 6.18215 67.2094 6.36557L64.67 15.1925C64.6174 15.3761 64.6392 15.5731 64.7306 15.7405C64.822 15.9078 64.9755 16.0318 65.1574 16.0852L77.3949 19.6626C77.577 19.7156 77.7725 19.6937 77.9385 19.6016C78.1046 19.5095 78.2276 19.3547 78.2806 19.1713L80.82 10.3444C80.8726 10.1608 80.8508 9.96372 80.7594 9.79634C80.668 9.62896 80.5145 9.50496 80.3325 9.45152L68.095 5.87412Z" fill="#E6E6E6"/>
<path d="M77.2186 12.2094L69.2622 9.88348C69.1878 9.86158 69.1251 9.81084 69.0878 9.74239C69.0505 9.67394 69.0417 9.59337 69.0633 9.51837C69.0849 9.44337 69.1351 9.38006 69.2029 9.34234C69.2708 9.30462 69.3507 9.29557 69.4251 9.31717L77.3815 11.6431C77.456 11.6649 77.5189 11.7156 77.5563 11.7841C77.5937 11.8526 77.6026 11.9332 77.581 12.0083C77.5594 12.0834 77.5091 12.1468 77.4411 12.1845C77.3731 12.2222 77.2931 12.2312 77.2186 12.2094H77.2186Z" fill="#02964D"/>
<path d="M76.6417 14.2144L68.6853 11.8885C68.6484 11.8777 68.614 11.8597 68.584 11.8355C68.554 11.8113 68.5291 11.7814 68.5105 11.7475C68.492 11.7136 68.4803 11.6763 68.4761 11.6379C68.4719 11.5994 68.4752 11.5604 68.4859 11.5233C68.4966 11.4861 68.5144 11.4514 68.5384 11.4211C68.5624 11.3909 68.5921 11.3658 68.6257 11.3471C68.6594 11.3284 68.6964 11.3166 68.7345 11.3123C68.7727 11.3081 68.8113 11.3114 68.8482 11.3222L76.8047 13.6481C76.879 13.67 76.9417 13.7208 76.979 13.7892C77.0163 13.8577 77.0251 13.9382 77.0036 14.0132C76.982 14.0882 76.9318 14.1515 76.8639 14.1893C76.7961 14.227 76.7162 14.236 76.6417 14.2144Z" fill="#02964D"/>
<path d="M76.0649 16.2192L68.1085 13.8932C68.0341 13.8713 67.9714 13.8206 67.9341 13.7522C67.8969 13.6837 67.888 13.6031 67.9096 13.5281C67.9312 13.4531 67.9814 13.3898 68.0492 13.3521C68.1171 13.3144 68.197 13.3053 68.2714 13.3269L76.2279 15.6528C76.3024 15.6746 76.3652 15.7253 76.4026 15.7938C76.44 15.8623 76.4489 15.943 76.4273 16.0181C76.4057 16.0932 76.3554 16.1566 76.2874 16.1943C76.2195 16.232 76.1394 16.2409 76.0649 16.2192Z" fill="#02964D"/>
<path d="M157 112.445H28.651V113H157V112.445Z" fill="#E6E6E6"/>
<path d="M103.173 111.577H82.3014L83.0089 102.306H102.465L103.173 111.577Z" fill="#E6E6E6"/>
<path d="M104.588 110.507H81.2401V112.647H104.588V110.507Z" fill="#E6E6E6"/>
<path d="M132.711 42.5762H52.9399C52.377 42.5762 51.8371 42.8016 51.4391 43.2028C51.041 43.6041 50.8174 44.1483 50.8174 44.7157V93.7476H134.834V44.7157C134.834 44.4348 134.779 44.1565 134.672 43.897C134.565 43.6374 134.409 43.4015 134.212 43.2028C134.015 43.0042 133.781 42.8466 133.523 42.739C133.266 42.6315 132.99 42.5762 132.711 42.5762H132.711Z" fill="#02964D"/>
<path d="M50.8174 93.7476V101.771C50.8174 102.052 50.8723 102.33 50.979 102.59C51.0856 102.849 51.242 103.085 51.4391 103.284C51.6361 103.483 51.8701 103.64 52.1276 103.748C52.3852 103.855 52.6612 103.911 52.9399 103.911H132.711C133.274 103.911 133.814 103.685 134.212 103.284C134.61 102.883 134.834 102.338 134.834 101.771V93.7476H50.8174Z" fill="#E6E6E6"/>
<path d="M130.765 47.0337H55.0624V89.8252H130.765V47.0337Z" fill="#E6E6E6"/>
<path d="M92.914 100.879C94.0862 100.879 95.0365 99.9213 95.0365 98.7397C95.0365 97.558 94.0862 96.6001 92.914 96.6001C91.7417 96.6001 90.7914 97.558 90.7914 98.7397C90.7914 99.9213 91.7417 100.879 92.914 100.879Z" fill="#02964D"/>
<path d="M57.4229 48.8409C57.6453 48.8409 57.8257 48.6591 57.8257 48.4348C57.8257 48.2106 57.6453 48.0288 57.4229 48.0288C57.2004 48.0288 57.0201 48.2106 57.0201 48.4348C57.0201 48.6591 57.2004 48.8409 57.4229 48.8409Z" fill="white"/>
<path d="M58.9518 48.8409C59.1742 48.8409 59.3546 48.6591 59.3546 48.4348C59.3546 48.2106 59.1742 48.0288 58.9518 48.0288C58.7293 48.0288 58.549 48.2106 58.549 48.4348C58.549 48.6591 58.7293 48.8409 58.9518 48.8409Z" fill="white"/>
<path d="M60.4807 48.8409C60.7032 48.8409 60.8835 48.6591 60.8835 48.4348C60.8835 48.2106 60.7032 48.0288 60.4807 48.0288C60.2583 48.0288 60.0779 48.2106 60.0779 48.4348C60.0779 48.6591 60.2583 48.8409 60.4807 48.8409Z" fill="white"/>
<path d="M128.584 49.8149H57.0201V85.7527H128.584V49.8149Z" fill="white"/>
<path d="M61.7771 55.2812C61.7101 55.2813 61.6457 55.3082 61.5983 55.356C61.5509 55.4038 61.5242 55.4687 61.5241 55.5363V68.427C61.5242 68.4947 61.5509 68.5595 61.5983 68.6073C61.6457 68.6551 61.7101 68.682 61.7771 68.6821H76.5452C76.6123 68.682 76.6766 68.6551 76.724 68.6073C76.7715 68.5595 76.7981 68.4947 76.7982 68.427V55.5363C76.7981 55.4687 76.7715 55.4038 76.724 55.356C76.6766 55.3082 76.6123 55.2813 76.5452 55.2812H61.7771Z" fill="#E6E6E6"/>
<path d="M85.4892 55.3223C85.4221 55.3223 85.3578 55.3492 85.3103 55.397C85.2629 55.4448 85.2362 55.5097 85.2361 55.5773V68.4266C85.2362 68.4942 85.2629 68.5591 85.3103 68.6069C85.3578 68.6547 85.4221 68.6816 85.4892 68.6816H100.21C100.277 68.6815 100.342 68.6546 100.389 68.6068C100.436 68.559 100.463 68.4942 100.463 68.4266V55.5773C100.463 55.5097 100.436 55.4449 100.389 55.3971C100.342 55.3492 100.277 55.3223 100.21 55.3223H85.4892Z" fill="#E6E6E6"/>
<path d="M108.953 55.1875C108.885 55.1876 108.821 55.2145 108.774 55.2623C108.726 55.3101 108.7 55.3749 108.7 55.4425V68.4265C108.7 68.4941 108.726 68.5589 108.774 68.6068C108.821 68.6546 108.885 68.6815 108.953 68.6815H123.827C123.894 68.6815 123.958 68.6546 124.005 68.6068C124.053 68.5589 124.08 68.4941 124.08 68.4265V55.4425C124.08 55.3749 124.053 55.3101 124.005 55.2623C123.958 55.2145 123.894 55.1876 123.827 55.1875H108.953Z" fill="#E6E6E6"/>
<path d="M62.0471 75.0625C61.9086 75.0628 61.7758 75.1184 61.6779 75.2173C61.58 75.3161 61.5251 75.4501 61.5251 75.5897C61.5251 75.7294 61.58 75.8634 61.6779 75.9622C61.7758 76.0611 61.9086 76.1167 62.0471 76.117H75.932C76.0706 76.1167 76.2034 76.0611 76.3013 75.9622C76.3992 75.8634 76.4541 75.7294 76.4541 75.5897C76.4541 75.4501 76.3992 75.3161 76.3013 75.2173C76.2034 75.1184 76.0706 75.0628 75.932 75.0625H62.0471Z" fill="#E6E6E6"/>
<path d="M62.0471 77.5708C61.9086 77.5711 61.7758 77.6267 61.6779 77.7256C61.58 77.8244 61.525 77.9584 61.525 78.0981C61.525 78.2378 61.58 78.3717 61.6779 78.4706C61.7758 78.5695 61.9086 78.6251 62.0471 78.6254H68.2987C68.4373 78.6251 68.5701 78.5695 68.668 78.4706C68.7659 78.3717 68.8209 78.2378 68.8209 78.0981C68.8209 77.9584 68.7659 77.8244 68.668 77.7256C68.5701 77.6267 68.4373 77.5711 68.2987 77.5708H62.0471Z" fill="#02964D"/>
<path d="M86.014 75.0625C85.8754 75.0628 85.7426 75.1184 85.6448 75.2173C85.5469 75.3161 85.4919 75.4501 85.4919 75.5897C85.4919 75.7294 85.5469 75.8634 85.6448 75.9622C85.7426 76.0611 85.8754 76.1167 86.014 76.117H99.8989C100.037 76.1167 100.17 76.0611 100.268 75.9622C100.366 75.8634 100.421 75.7294 100.421 75.5897C100.421 75.4501 100.366 75.3161 100.268 75.2173C100.17 75.1184 100.037 75.0628 99.8989 75.0625H86.014Z" fill="#E6E6E6"/>
<path d="M86.014 77.5708C85.8754 77.5711 85.7426 77.6267 85.6447 77.7256C85.5468 77.8244 85.4919 77.9584 85.4919 78.0981C85.4919 78.2378 85.5468 78.3717 85.6447 78.4706C85.7426 78.5695 85.8754 78.6251 86.014 78.6254H92.2657C92.4042 78.6251 92.537 78.5695 92.6349 78.4706C92.7328 78.3717 92.7878 78.2378 92.7878 78.0981C92.7878 77.9584 92.7328 77.8244 92.6349 77.7256C92.537 77.6267 92.4042 77.5711 92.2657 77.5708H86.014Z" fill="#02964D"/>
<path d="M109.382 75.0625C109.243 75.0628 109.11 75.1184 109.013 75.2173C108.915 75.3161 108.86 75.4501 108.86 75.5897C108.86 75.7294 108.915 75.8634 109.013 75.9622C109.11 76.0611 109.243 76.1167 109.382 76.117H123.267C123.405 76.1167 123.538 76.0611 123.636 75.9622C123.734 75.8634 123.789 75.7294 123.789 75.5897C123.789 75.4501 123.734 75.3161 123.636 75.2173C123.538 75.1184 123.405 75.0628 123.267 75.0625H109.382Z" fill="#E6E6E6"/>
<path d="M62.0471 72.4727C61.9086 72.4729 61.7758 72.5286 61.6779 72.6274C61.58 72.7263 61.5251 72.8602 61.5251 72.9999C61.5251 73.1396 61.58 73.2735 61.6779 73.3724C61.7758 73.4712 61.9086 73.5269 62.0471 73.5272H75.932C76.0706 73.5269 76.2034 73.4712 76.3013 73.3724C76.3992 73.2735 76.4541 73.1396 76.4541 72.9999C76.4541 72.8602 76.3992 72.7263 76.3013 72.6274C76.2034 72.5286 76.0706 72.4729 75.932 72.4727H62.0471Z" fill="#E6E6E6"/>
<path d="M86.014 72.4727C85.8754 72.4729 85.7426 72.5286 85.6448 72.6274C85.5469 72.7263 85.4919 72.8602 85.4919 72.9999C85.4919 73.1396 85.5469 73.2735 85.6448 73.3724C85.7426 73.4712 85.8754 73.5269 86.014 73.5272H99.8989C100.037 73.5269 100.17 73.4712 100.268 73.3724C100.366 73.2735 100.421 73.1396 100.421 72.9999C100.421 72.8602 100.366 72.7263 100.268 72.6274C100.17 72.5286 100.037 72.4729 99.8989 72.4727H86.014Z" fill="#E6E6E6"/>
<path d="M109.382 72.4727C109.243 72.4729 109.11 72.5286 109.013 72.6274C108.915 72.7263 108.86 72.8602 108.86 72.9999C108.86 73.1396 108.915 73.2735 109.013 73.3724C109.11 73.4712 109.243 73.5269 109.382 73.5272H123.267C123.405 73.5269 123.538 73.4712 123.636 73.3724C123.734 73.2735 123.789 73.1396 123.789 72.9999C123.789 72.8602 123.734 72.7263 123.636 72.6274C123.538 72.5286 123.405 72.4729 123.267 72.4727H109.382Z" fill="#E6E6E6"/>
<path d="M109.382 77.5708C109.243 77.5711 109.11 77.6267 109.013 77.7256C108.915 77.8244 108.86 77.9584 108.86 78.0981C108.86 78.2378 108.915 78.3717 109.013 78.4706C109.11 78.5695 109.243 78.6251 109.382 78.6254H115.633C115.772 78.6251 115.905 78.5695 116.003 78.4706C116.1 78.3717 116.155 78.2378 116.155 78.0981C116.155 77.9584 116.1 77.8244 116.003 77.7256C115.905 77.6267 115.772 77.5711 115.633 77.5708H109.382Z" fill="#02964D"/>
</svg>
