<svg width="128" height="126" viewBox="0 0 128 126" xmlns="http://www.w3.org/2000/svg">
<path fill-rule="evenodd" clip-rule="evenodd" d="M21.0281 107.714C8.11206 96.3952 0 80.0467 0 61.8667C0 27.6986 28.6538 0 64 0C99.3462 0 128 27.6986 128 61.8667C128 96.0347 99.3462 123.733 64 123.733C56.2397 123.733 48.802 122.398 41.9194 119.953L24.2528 125.299C23.6562 125.479 23.0416 125.076 22.9698 124.457L21.0281 107.714Z" fill="#BDBDBD"/>
<path d="M81.4941 75.3087V76.8008C81.4941 78.3853 80.8642 79.9055 79.7444 81.0253C78.6246 82.1451 77.1045 82.775 75.5227 82.775H51.6314C50.0497 82.775 48.5296 82.1451 47.4098 81.0253C46.2899 79.9055 45.66 78.3853 45.66 76.8008V75.3087H81.4941Z" fill="white"/>
<path d="M75.5227 85.7596V86.1487C75.5227 87.6297 74.9348 89.049 73.885 90.096C72.838 91.1458 71.4186 91.7338 69.9376 91.7338H57.2165C55.7356 91.7338 54.3162 91.1459 53.2692 90.096C52.2194 89.049 51.6314 87.6297 51.6314 86.1487V85.7596H75.5227Z" fill="white"/>
<path d="M39.6883 55.8994C39.6855 48.013 43.5741 40.6333 50.0831 36.1763C56.5892 31.7222 64.8761 30.7648 72.2271 33.6231C79.5788 36.4787 85.0464 42.7773 86.841 50.4565C88.6327 58.1358 86.5218 66.207 81.1943 72.0243V72.3239L66.564 72.3211V64.3201C70.1334 63.0575 72.5242 59.684 72.5354 55.899C72.5354 54.2501 71.1972 52.9119 69.5482 52.9119C67.8993 52.9119 66.5639 54.2501 66.5639 55.899C66.5639 57.548 65.2257 58.8834 63.5768 58.8834C61.9278 58.8834 60.5896 57.548 60.5896 55.899C60.5896 54.2501 59.2542 52.9119 57.6053 52.9119C55.9564 52.9119 54.6182 54.2501 54.6182 55.899C54.6294 59.684 57.0202 63.0575 60.5896 64.3201V72.3211H45.8976V72.0215V72.0243C41.8607 67.6291 39.6406 61.8647 39.6882 55.899L39.6883 55.8994Z" fill="white"/>
</svg>
