<svg width="128" height="118" viewBox="0 0 128 118" fill="none" xmlns="http://www.w3.org/2000/svg">
<path fill-rule="evenodd" clip-rule="evenodd" d="M16 10.3323C7.16344 10.3323 0 17.4958 0 26.3323V101.789C0 110.626 7.16347 117.789 16 117.789H79.0582C87.8947 117.789 95.0582 110.626 95.0582 101.789V26.3323C95.0582 17.4958 87.8947 10.3323 79.0582 10.3323H68.1939V15.8741C68.1939 19.6612 65.1239 22.7312 61.3368 22.7312H31.6549C27.8678 22.7312 24.7978 19.6612 24.7978 15.8741V10.3323H16Z" fill="url(#paint0_linear)"/>
<path d="M30.9972 4.57143C30.9972 2.0467 33.0439 0 35.5687 0H57.423C59.9478 0 61.9945 2.0467 61.9945 4.57143V11.9604C61.9945 14.4852 59.9478 16.5319 57.423 16.5319H35.5687C33.0439 16.5319 30.9972 14.4852 30.9972 11.9604V4.57143Z" fill="url(#paint1_linear)"/>
<path fill-rule="evenodd" clip-rule="evenodd" d="M27.6465 36.4609C28.3828 37.1154 28.5022 38.3092 27.9131 39.1273L19.7178 50.5098C19.1637 51.2793 18.1715 51.4493 17.4346 50.901L11.971 46.8358C11.1875 46.2528 10.9777 45.0745 11.5023 44.204C12.027 43.3334 13.0875 43.1003 13.871 43.6832L18.0312 46.7786L25.2467 36.7571C25.8357 35.939 26.9102 35.8063 27.6465 36.4609Z" fill="white"/>
<rect x="37.197" y="39.2635" width="45.4626" height="8.26592" fill="white"/>
<g opacity="0.53">
<path fill-rule="evenodd" clip-rule="evenodd" d="M27.6465 61.1231C28.3828 61.7776 28.5022 62.9714 27.9131 63.7896L19.7178 75.172C19.1637 75.9416 18.1715 76.1116 17.4346 75.5632L11.971 71.4981C11.1875 70.9151 10.9777 69.7368 11.5023 68.8662C12.027 67.9957 13.0875 67.7625 13.871 68.3455L18.0312 71.4409L25.2467 61.4194C25.8357 60.6013 26.9102 60.4686 27.6465 61.1231Z" fill="white"/>
<rect x="37.197" y="64.061" width="45.4626" height="8.26591" fill="white"/>
</g>
<g opacity="0.53">
<path fill-rule="evenodd" clip-rule="evenodd" d="M27.6465 85.7854C28.3828 86.4399 28.5022 87.6338 27.9131 88.4519L19.7178 99.8343C19.1637 100.604 18.1715 100.774 17.4346 100.226L11.971 96.1604C11.1875 95.5774 10.9777 94.3991 11.5023 93.5285C12.027 92.658 13.0875 92.4248 13.871 93.0078L18.0312 96.1032L25.2467 86.0817C25.8357 85.2636 26.9102 85.1309 27.6465 85.7854Z" fill="white"/>
<rect x="37.197" y="88.8586" width="45.4626" height="8.26593" fill="white"/>
</g>
<path d="M122.256 41.7755H105.263C104.193 41.7755 103.324 42.6445 103.324 43.7149C103.324 43.7255 103.329 43.7308 103.329 43.7414V86.4804C103.329 87.5667 104.182 88.4198 105.269 88.4198H118.234C119.299 88.4198 120.174 87.5667 120.174 86.4804V45.6485H122.256C123.284 45.6485 124.121 46.4857 124.121 47.5136V63.2403C124.121 64.3107 124.99 65.1797 126.061 65.1797C127.131 65.1797 128 64.3107 128 63.2403V47.5136C127.995 44.3451 125.425 41.7752 122.256 41.7752L122.256 41.7755Z" fill="#0272AB"/>
<path d="M110 100.956C110.328 101.634 111.007 102.058 111.743 102.058C112.501 102.058 113.179 101.634 113.508 100.956L117.619 92.2928H105.883L110 100.956Z" fill="#0272AB"/>
<path d="M118.24 37.896C118.923 37.896 119.57 38.0338 120.179 38.251V35.8402C120.179 33.1643 118.006 30.9973 115.336 30.9973H108.188C105.512 30.9973 103.345 33.1698 103.345 35.8402V38.251C103.955 38.0338 104.601 37.896 105.285 37.896H118.24Z" fill="#0272AB"/>
<defs>
<linearGradient id="paint0_linear" x1="95.0582" y1="61.5717" x2="2.16041" y2="61.5717" gradientUnits="userSpaceOnUse">
<stop stop-color="#0187CB"/>
<stop offset="1" stop-color="#44B6F0"/>
</linearGradient>
<linearGradient id="paint1_linear" x1="95.0582" y1="61.5717" x2="2.16041" y2="61.5717" gradientUnits="userSpaceOnUse">
<stop stop-color="#0187CB"/>
<stop offset="1" stop-color="#44B6F0"/>
</linearGradient>
</defs>
</svg>
