<svg width="128" height="128" viewBox="0 0 128 128" fill="none" xmlns="http://www.w3.org/2000/svg">
<rect x="32.6943" y="128" width="46.2367" height="134.783" transform="rotate(-135 32.6943 128)" fill="#FFCC2A"/>
<rect y="32.6944" width="46.2367" height="134.783" transform="rotate(-45 0 32.6944)" fill="#00AFF0"/>
<path fill-rule="evenodd" clip-rule="evenodd" d="M96.6939 64.0007L63.9997 96.695L31.3054 64.0007L63.9997 31.3064L96.6939 64.0007Z" fill="#0E8C4F"/>
<path d="M88.4618 82.5269C87.1843 81.2493 85.1129 81.2493 83.8353 82.5269C82.5577 83.8045 82.5577 85.8759 83.8353 87.1535L90.6821 94.0003L83.8353 100.847C82.5577 102.125 82.5577 104.196 83.8353 105.474C85.1129 106.751 87.1843 106.751 88.4618 105.474L95.3087 98.6268L102.155 105.474C103.433 106.751 105.504 106.751 106.782 105.474C108.06 104.196 108.06 102.125 106.782 100.847L99.9352 94.0003L106.782 87.1535C108.06 85.8759 108.06 83.8045 106.782 82.5269C105.504 81.2493 103.433 81.2493 102.155 82.5269L95.3087 89.3737L88.4618 82.5269Z" fill="white"/>
<path d="M22.0279 19.1928C23.8347 19.1928 25.2994 20.6575 25.2994 22.4642V28.7891L37.5128 28.7891V22.4642C37.5128 20.6575 38.9775 19.1928 40.7843 19.1928C42.5911 19.1928 44.0558 20.6575 44.0558 22.4642L44.0558 41.6568C44.0558 43.4636 42.5911 44.9283 40.7843 44.9283C38.9775 44.9283 37.5128 43.4636 37.5128 41.6568V35.332H25.2994L25.2994 41.6568C25.2994 43.4636 23.8347 44.9283 22.0279 44.9283C20.2211 44.9283 18.7564 43.4636 18.7564 41.6568L18.7564 22.4642C18.7564 20.6575 20.2211 19.1928 22.0279 19.1928Z" fill="white"/>
<path fill-rule="evenodd" clip-rule="evenodd" d="M31.5802 82.0152C30.2108 81.9114 28.8507 82.5959 28.2098 83.838L19.1086 101.475C18.8475 101.981 18.7366 102.519 18.7593 103.045C18.7579 103.084 18.7572 103.122 18.7572 103.161C18.7572 104.968 20.3003 106.433 22.2038 106.433H41.0453C42.9488 106.433 44.492 104.968 44.492 103.161C44.492 102.74 44.4081 102.337 44.2554 101.968C44.2021 101.801 44.1341 101.636 44.0508 101.475L34.9496 83.8381C34.3088 82.5964 32.9493 81.9119 31.5802 82.0152ZM27.6023 99.8897H35.5571L31.5797 92.182L27.6023 99.8897Z" fill="white"/>
<path fill-rule="evenodd" clip-rule="evenodd" d="M95.3086 39.5801C99.4615 39.5801 102.828 36.2135 102.828 32.0605C102.828 27.9075 99.4615 24.5409 95.3086 24.5409C91.1556 24.5409 87.7889 27.9075 87.7889 32.0605C87.7889 36.2135 91.1556 39.5801 95.3086 39.5801ZM95.3086 45.3645C102.656 45.3645 108.613 39.4081 108.613 32.0605C108.613 24.7129 102.656 18.7566 95.3086 18.7566C87.961 18.7566 82.0046 24.7129 82.0046 32.0605C82.0046 39.4081 87.961 45.3645 95.3086 45.3645Z" fill="white"/>
</svg>
