<svg width="107" height="119" viewBox="0 0 107 119" fill="none" xmlns="http://www.w3.org/2000/svg">
<path d="M101.056 119H5.94444C4.36788 119 2.85589 118.373 1.74109 117.257C0.626288 116.141 0 114.628 0 113.05V5.95C0 4.37196 0.626288 2.85856 1.74109 1.74271C2.85589 0.626873 4.36788 0 5.94444 0H101.056C102.632 0 104.144 0.626873 105.259 1.74271C106.374 2.85856 107 4.37196 107 5.95V113.05C107 114.628 106.374 116.141 105.259 117.257C104.144 118.373 102.632 119 101.056 119ZM23.7778 23.8V47.6H47.5556V23.8H23.7778ZM23.7778 59.5V71.4H83.2222V59.5H23.7778ZM23.7778 83.3V95.2H83.2222V83.3H23.7778ZM59.4444 29.75V41.65H83.2222V29.75H59.4444Z" fill="url(#paint0_linear)"/>
<defs>
<linearGradient id="paint0_linear" x1="53.5" y1="0" x2="53.5" y2="119" gradientUnits="userSpaceOnUse">
<stop stop-color="#049D4B"/>
<stop offset="1" stop-color="#0AB345"/>
</linearGradient>
</defs>
</svg>
