<svg width="128" height="122" viewBox="0 0 128 122" fill="none" xmlns="http://www.w3.org/2000/svg">
<rect y="121.018" width="88.4364" height="34.9091" rx="1" transform="rotate(-90 0 121.018)" fill="#0272AB"/>
<rect x="46.5454" y="121.018" width="121.018" height="34.9091" rx="1" transform="rotate(-90 46.5454 121.018)" fill="#0272AB"/>
<path d="M94.0909 121.018C93.5387 121.018 93.0909 120.57 93.0909 120.018L93.0909 56.8545C93.0909 56.3022 93.5386 55.8545 94.0909 55.8545L127 55.8545C127.552 55.8545 128 56.3022 128 56.8545L128 120.018C128 120.57 127.552 121.018 127 121.018L94.0909 121.018Z" fill="#0272AB"/>
<path d="M1 121.018C0.447717 121.018 -1.95703e-08 120.57 -4.37114e-08 120.018L-1.9837e-06 75.6363L34.9091 75.6363L34.9091 120.018C34.9091 120.57 34.4614 121.018 33.9091 121.018L1 121.018Z" fill="url(#paint0_linear)"/>
<path d="M47.5454 121.018C46.9931 121.018 46.5454 120.57 46.5454 120.018L46.5454 58.1817L81.4545 58.1817L81.4545 120.018C81.4545 120.57 81.0068 121.018 80.4545 121.018L47.5454 121.018Z" fill="url(#paint1_linear)"/>
<path d="M94.0909 121.018C93.5387 121.018 93.0909 120.57 93.0909 120.018L93.0909 89.5999L128 89.5999L128 120.018C128 120.57 127.552 121.018 127 121.018L94.0909 121.018Z" fill="url(#paint2_linear)"/>
<defs>
<linearGradient id="paint0_linear" x1="18.2479" y1="75.6363" x2="18.2479" y2="119.987" gradientUnits="userSpaceOnUse">
<stop stop-color="#0187CB"/>
<stop offset="1" stop-color="#44B6F0"/>
</linearGradient>
<linearGradient id="paint1_linear" x1="64.7934" y1="58.1817" x2="64.7934" y2="119.59" gradientUnits="userSpaceOnUse">
<stop stop-color="#0187CB"/>
<stop offset="1" stop-color="#44B6F0"/>
</linearGradient>
<linearGradient id="paint2_linear" x1="111.339" y1="89.5999" x2="111.339" y2="120.304" gradientUnits="userSpaceOnUse">
<stop stop-color="#0187CB"/>
<stop offset="1" stop-color="#44B6F0"/>
</linearGradient>
</defs>
</svg>
