<svg width="128" height="128" viewBox="0 0 128 128" xmlns="http://www.w3.org/2000/svg">
<path d="M18.7456 109.254C12.7939 103.318 8.07388 96.2641 4.85689 88.4978C1.6399 80.7316 -0.0106646 72.4061 5.18496e-05 64C5.18496e-05 28.6528 28.6528 0 64 0C99.3472 0 128 28.6528 128 64C128 99.3472 99.3472 128 64 128H5.18496e-05L18.7456 109.254ZM38.4 70.4C38.4 77.1895 41.0972 83.701 45.8981 88.5019C50.699 93.3028 57.2105 96 64 96C70.7896 96 77.301 93.3028 82.102 88.5019C86.9029 83.701 89.6 77.1895 89.6 70.4H38.4Z" fill="#BDBDBD"/>
</svg>
