<svg width="28" height="28" viewBox="0 0 28 28" fill="none" xmlns="http://www.w3.org/2000/svg">
<path d="M0.672 27.3333L2.47467 20.7093C1.28685 18.6731 0.662795 16.3573 0.666667 14C0.666667 6.63601 6.636 0.666672 14 0.666672C21.364 0.666672 27.3333 6.63601 27.3333 14C27.3333 21.364 21.364 27.3333 14 27.3333C11.6437 27.3371 9.32887 26.7136 7.29333 25.5267L0.672 27.3333ZM9.188 7.74401C9.01582 7.7547 8.84757 7.80005 8.69333 7.87734C8.5487 7.95924 8.41666 8.06164 8.30133 8.18134C8.14133 8.33201 8.05067 8.46267 7.95333 8.58934C7.46055 9.23067 7.19548 10.0179 7.2 10.8267C7.20267 11.48 7.37333 12.116 7.64 12.7107C8.18533 13.9133 9.08267 15.1867 10.268 16.3667C10.5533 16.6507 10.832 16.936 11.132 17.2013C12.6032 18.4966 14.3563 19.4307 16.252 19.9293L17.0107 20.0453C17.2573 20.0587 17.504 20.04 17.752 20.028C18.1403 20.008 18.5195 19.9028 18.8627 19.72C19.084 19.6027 19.188 19.544 19.3733 19.4267C19.3733 19.4267 19.4307 19.3893 19.54 19.3067C19.72 19.1733 19.8307 19.0787 19.98 18.9227C20.0907 18.808 20.1867 18.6733 20.26 18.52C20.364 18.3027 20.468 17.888 20.5107 17.5427C20.5427 17.2787 20.5333 17.1347 20.5293 17.0453C20.524 16.9027 20.4053 16.7547 20.276 16.692L19.5 16.344C19.5 16.344 18.34 15.8387 17.632 15.516C17.5574 15.4835 17.4774 15.4649 17.396 15.4613C17.3048 15.452 17.2126 15.4622 17.1257 15.4914C17.0387 15.5206 16.9591 15.5681 16.892 15.6307V15.628C16.8853 15.628 16.796 15.704 15.832 16.872C15.7767 16.9464 15.7005 17.0025 15.6131 17.0334C15.5257 17.0643 15.4311 17.0684 15.3413 17.0453C15.2545 17.0221 15.1693 16.9927 15.0867 16.9573C14.9213 16.888 14.864 16.8613 14.7507 16.812L14.744 16.8093C13.9812 16.4763 13.275 16.0265 12.6507 15.476C12.4827 15.3293 12.3267 15.1693 12.1667 15.0147C11.6421 14.5123 11.185 13.944 10.8067 13.324L10.728 13.1973C10.6715 13.1122 10.6258 13.0204 10.592 12.924C10.5413 12.728 10.6733 12.5707 10.6733 12.5707C10.6733 12.5707 10.9973 12.216 11.148 12.024C11.2735 11.8644 11.3905 11.6984 11.4987 11.5267C11.656 11.2733 11.7053 11.0133 11.6227 10.812C11.2493 9.90001 10.8627 8.99201 10.4653 8.09067C10.3867 7.912 10.1533 7.78401 9.94133 7.75867C9.86933 7.75067 9.79733 7.74267 9.72533 7.73734C9.54627 7.72844 9.36685 7.73022 9.188 7.74267V7.74401Z" fill="white"/>
</svg>
